%TF.GenerationSoftware,KiCad,Pcbnew,10.0.4*%
%TF.CreationDate,2026-07-27T17:57:11+02:00*%
%TF.ProjectId,HM-BlueRemote-12,484d2d42-6c75-4655-9265-6d6f74652d31,rev?*%
%TF.SameCoordinates,Original*%
%TF.FileFunction,Soldermask,Bot*%
%TF.FilePolarity,Negative*%
%FSLAX46Y46*%
G04 Gerber Fmt 4.6, Leading zero omitted, Abs format (unit mm)*
G04 Created by KiCad (PCBNEW 10.0.4) date 2026-07-27 17:57:11*
%MOMM*%
%LPD*%
G01*
G04 APERTURE LIST*
G04 Aperture macros list*
%AMRoundRect*
0 Rectangle with rounded corners*
0 $1 Rounding radius*
0 $2 $3 $4 $5 $6 $7 $8 $9 X,Y pos of 4 corners*
0 Add a 4 corners polygon primitive as box body*
4,1,4,$2,$3,$4,$5,$6,$7,$8,$9,$2,$3,0*
0 Add four circle primitives for the rounded corners*
1,1,$1+$1,$2,$3*
1,1,$1+$1,$4,$5*
1,1,$1+$1,$6,$7*
1,1,$1+$1,$8,$9*
0 Add four rect primitives between the rounded corners*
20,1,$1+$1,$2,$3,$4,$5,0*
20,1,$1+$1,$4,$5,$6,$7,0*
20,1,$1+$1,$6,$7,$8,$9,0*
20,1,$1+$1,$8,$9,$2,$3,0*%
G04 Aperture macros list end*
%ADD10C,6.000000*%
%ADD11R,1.700000X1.700000*%
%ADD12C,1.700000*%
%ADD13RoundRect,0.250000X0.325000X0.650000X-0.325000X0.650000X-0.325000X-0.650000X0.325000X-0.650000X0*%
%ADD14RoundRect,0.250000X0.250000X0.475000X-0.250000X0.475000X-0.250000X-0.475000X0.250000X-0.475000X0*%
%ADD15RoundRect,0.250000X0.350000X0.625000X-0.350000X0.625000X-0.350000X-0.625000X0.350000X-0.625000X0*%
%ADD16O,1.200000X1.750000*%
%ADD17RoundRect,0.250000X0.262500X0.450000X-0.262500X0.450000X-0.262500X-0.450000X0.262500X-0.450000X0*%
G04 APERTURE END LIST*
D10*
%TO.C,MH4*%
X96000000Y-56000000D03*
%TD*%
%TO.C,MH3*%
X4000000Y-56000000D03*
%TD*%
%TO.C,MH2*%
X96000000Y-4000000D03*
%TD*%
%TO.C,MH1*%
X4000000Y-4000000D03*
%TD*%
D11*
%TO.C,U2*%
X50000000Y-50000000D03*
D12*
X52540000Y-50000000D03*
X50000000Y-52540000D03*
X52540000Y-52540000D03*
X50000000Y-55080000D03*
X52540000Y-55080000D03*
X50000000Y-57620000D03*
X52540000Y-57620000D03*
%TD*%
D13*
%TO.C,C2*%
X16475000Y-56000000D03*
X13525000Y-56000000D03*
%TD*%
D11*
%TO.C,U1*%
X61430000Y-2370000D03*
D12*
X61430000Y-4910000D03*
X61430000Y-7450000D03*
X61430000Y-9990000D03*
X61430000Y-12530000D03*
X61430000Y-15070000D03*
X61430000Y-17610000D03*
X61430000Y-20150000D03*
X61430000Y-22690000D03*
X61430000Y-25230000D03*
X61430000Y-27770000D03*
X61430000Y-30310000D03*
X61430000Y-32850000D03*
X61430000Y-35390000D03*
X61430000Y-37930000D03*
X61430000Y-40470000D03*
X61430000Y-43010000D03*
X61430000Y-45550000D03*
X61430000Y-48090000D03*
X61430000Y-50630000D03*
X38570000Y-2370000D03*
X38570000Y-4910000D03*
X38570000Y-7450000D03*
X38570000Y-9990000D03*
X38570000Y-12530000D03*
X38570000Y-15070000D03*
X38570000Y-17610000D03*
X38570000Y-20150000D03*
X38570000Y-22690000D03*
X38570000Y-25230000D03*
X38570000Y-27770000D03*
X38570000Y-30310000D03*
X38570000Y-32850000D03*
X38570000Y-35390000D03*
X38570000Y-37930000D03*
X38570000Y-40470000D03*
X38570000Y-43010000D03*
X38570000Y-45550000D03*
X38570000Y-48090000D03*
X38570000Y-50630000D03*
%TD*%
D14*
%TO.C,C1*%
X44950000Y-54000000D03*
X43050000Y-54000000D03*
%TD*%
D15*
%TO.C,J1*%
X15000000Y-50000000D03*
D16*
X13000000Y-50000000D03*
%TD*%
D17*
%TO.C,R1*%
X60912500Y-54000000D03*
X59087500Y-54000000D03*
%TD*%
M02*
