%TF.GenerationSoftware,KiCad,Pcbnew,10.0.4*%
%TF.CreationDate,2026-07-27T17:57:11+02:00*%
%TF.ProjectId,HM-BlueRemote-12,484d2d42-6c75-4655-9265-6d6f74652d31,rev?*%
%TF.SameCoordinates,Original*%
%TF.FileFunction,Paste,Top*%
%TF.FilePolarity,Positive*%
%FSLAX46Y46*%
G04 Gerber Fmt 4.6, Leading zero omitted, Abs format (unit mm)*
G04 Created by KiCad (PCBNEW 10.0.4) date 2026-07-27 17:57:11*
%MOMM*%
%LPD*%
G01*
G04 APERTURE LIST*
G04 Aperture macros list*
%AMRoundRect*
0 Rectangle with rounded corners*
0 $1 Rounding radius*
0 $2 $3 $4 $5 $6 $7 $8 $9 X,Y pos of 4 corners*
0 Add a 4 corners polygon primitive as box body*
4,1,4,$2,$3,$4,$5,$6,$7,$8,$9,$2,$3,0*
0 Add four circle primitives for the rounded corners*
1,1,$1+$1,$2,$3*
1,1,$1+$1,$4,$5*
1,1,$1+$1,$6,$7*
1,1,$1+$1,$8,$9*
0 Add four rect primitives between the rounded corners*
20,1,$1+$1,$2,$3,$4,$5,0*
20,1,$1+$1,$4,$5,$6,$7,0*
20,1,$1+$1,$6,$7,$8,$9,0*
20,1,$1+$1,$8,$9,$2,$3,0*%
G04 Aperture macros list end*
%ADD10RoundRect,0.250000X-0.525000X-0.400000X0.525000X-0.400000X0.525000X0.400000X-0.525000X0.400000X0*%
%ADD11RoundRect,0.243750X-0.243750X-0.456250X0.243750X-0.456250X0.243750X0.456250X-0.243750X0.456250X0*%
G04 APERTURE END LIST*
D10*
%TO.C,SW6*%
X66020000Y-19750000D03*
X73980000Y-19750000D03*
X66020000Y-24250000D03*
X73980000Y-24250000D03*
%TD*%
%TO.C,SW11*%
X46020000Y-39750000D03*
X53980000Y-39750000D03*
X46020000Y-44250000D03*
X53980000Y-44250000D03*
%TD*%
%TO.C,SW4*%
X26020000Y-19750000D03*
X33980000Y-19750000D03*
X26020000Y-24250000D03*
X33980000Y-24250000D03*
%TD*%
%TO.C,SW8*%
X46020000Y-29750000D03*
X53980000Y-29750000D03*
X46020000Y-34250000D03*
X53980000Y-34250000D03*
%TD*%
%TO.C,SW1*%
X26020000Y-9750000D03*
X33980000Y-9750000D03*
X26020000Y-14250000D03*
X33980000Y-14250000D03*
%TD*%
%TO.C,SW10*%
X26020000Y-39750000D03*
X33980000Y-39750000D03*
X26020000Y-44250000D03*
X33980000Y-44250000D03*
%TD*%
%TO.C,SW7*%
X26020000Y-29750000D03*
X33980000Y-29750000D03*
X26020000Y-34250000D03*
X33980000Y-34250000D03*
%TD*%
%TO.C,SW5*%
X46020000Y-19750000D03*
X53980000Y-19750000D03*
X46020000Y-24250000D03*
X53980000Y-24250000D03*
%TD*%
%TO.C,SW2*%
X46020000Y-9750000D03*
X53980000Y-9750000D03*
X46020000Y-14250000D03*
X53980000Y-14250000D03*
%TD*%
D11*
%TO.C,LED1*%
X56062500Y-57000000D03*
X57937500Y-57000000D03*
%TD*%
D10*
%TO.C,SW3*%
X66020000Y-9750000D03*
X73980000Y-9750000D03*
X66020000Y-14250000D03*
X73980000Y-14250000D03*
%TD*%
%TO.C,SW12*%
X66020000Y-39750000D03*
X73980000Y-39750000D03*
X66020000Y-44250000D03*
X73980000Y-44250000D03*
%TD*%
%TO.C,SW9*%
X66020000Y-29750000D03*
X73980000Y-29750000D03*
X66020000Y-34250000D03*
X73980000Y-34250000D03*
%TD*%
M02*
