%TF.GenerationSoftware,KiCad,Pcbnew,10.0.4*%
%TF.CreationDate,2026-07-27T17:57:11+02:00*%
%TF.ProjectId,HM-BlueRemote-12,484d2d42-6c75-4655-9265-6d6f74652d31,rev?*%
%TF.SameCoordinates,Original*%
%TF.FileFunction,Legend,Bot*%
%TF.FilePolarity,Positive*%
%FSLAX46Y46*%
G04 Gerber Fmt 4.6, Leading zero omitted, Abs format (unit mm)*
G04 Created by KiCad (PCBNEW 10.0.4) date 2026-07-27 17:57:11*
%MOMM*%
%LPD*%
G01*
G04 APERTURE LIST*
%ADD10C,0.150000*%
%ADD11C,0.120000*%
G04 APERTURE END LIST*
D10*
X52031904Y-46684819D02*
X52031904Y-47494342D01*
X52031904Y-47494342D02*
X51984285Y-47589580D01*
X51984285Y-47589580D02*
X51936666Y-47637200D01*
X51936666Y-47637200D02*
X51841428Y-47684819D01*
X51841428Y-47684819D02*
X51650952Y-47684819D01*
X51650952Y-47684819D02*
X51555714Y-47637200D01*
X51555714Y-47637200D02*
X51508095Y-47589580D01*
X51508095Y-47589580D02*
X51460476Y-47494342D01*
X51460476Y-47494342D02*
X51460476Y-46684819D01*
X51031904Y-46780057D02*
X50984285Y-46732438D01*
X50984285Y-46732438D02*
X50889047Y-46684819D01*
X50889047Y-46684819D02*
X50650952Y-46684819D01*
X50650952Y-46684819D02*
X50555714Y-46732438D01*
X50555714Y-46732438D02*
X50508095Y-46780057D01*
X50508095Y-46780057D02*
X50460476Y-46875295D01*
X50460476Y-46875295D02*
X50460476Y-46970533D01*
X50460476Y-46970533D02*
X50508095Y-47113390D01*
X50508095Y-47113390D02*
X51079523Y-47684819D01*
X51079523Y-47684819D02*
X50460476Y-47684819D01*
X15166666Y-54509580D02*
X15214285Y-54557200D01*
X15214285Y-54557200D02*
X15357142Y-54604819D01*
X15357142Y-54604819D02*
X15452380Y-54604819D01*
X15452380Y-54604819D02*
X15595237Y-54557200D01*
X15595237Y-54557200D02*
X15690475Y-54461961D01*
X15690475Y-54461961D02*
X15738094Y-54366723D01*
X15738094Y-54366723D02*
X15785713Y-54176247D01*
X15785713Y-54176247D02*
X15785713Y-54033390D01*
X15785713Y-54033390D02*
X15738094Y-53842914D01*
X15738094Y-53842914D02*
X15690475Y-53747676D01*
X15690475Y-53747676D02*
X15595237Y-53652438D01*
X15595237Y-53652438D02*
X15452380Y-53604819D01*
X15452380Y-53604819D02*
X15357142Y-53604819D01*
X15357142Y-53604819D02*
X15214285Y-53652438D01*
X15214285Y-53652438D02*
X15166666Y-53700057D01*
X14785713Y-53700057D02*
X14738094Y-53652438D01*
X14738094Y-53652438D02*
X14642856Y-53604819D01*
X14642856Y-53604819D02*
X14404761Y-53604819D01*
X14404761Y-53604819D02*
X14309523Y-53652438D01*
X14309523Y-53652438D02*
X14261904Y-53700057D01*
X14261904Y-53700057D02*
X14214285Y-53795295D01*
X14214285Y-53795295D02*
X14214285Y-53890533D01*
X14214285Y-53890533D02*
X14261904Y-54033390D01*
X14261904Y-54033390D02*
X14833332Y-54604819D01*
X14833332Y-54604819D02*
X14214285Y-54604819D01*
X50761904Y-24684819D02*
X50761904Y-25494342D01*
X50761904Y-25494342D02*
X50714285Y-25589580D01*
X50714285Y-25589580D02*
X50666666Y-25637200D01*
X50666666Y-25637200D02*
X50571428Y-25684819D01*
X50571428Y-25684819D02*
X50380952Y-25684819D01*
X50380952Y-25684819D02*
X50285714Y-25637200D01*
X50285714Y-25637200D02*
X50238095Y-25589580D01*
X50238095Y-25589580D02*
X50190476Y-25494342D01*
X50190476Y-25494342D02*
X50190476Y-24684819D01*
X49190476Y-25684819D02*
X49761904Y-25684819D01*
X49476190Y-25684819D02*
X49476190Y-24684819D01*
X49476190Y-24684819D02*
X49571428Y-24827676D01*
X49571428Y-24827676D02*
X49666666Y-24922914D01*
X49666666Y-24922914D02*
X49761904Y-24970533D01*
X44166666Y-52679580D02*
X44214285Y-52727200D01*
X44214285Y-52727200D02*
X44357142Y-52774819D01*
X44357142Y-52774819D02*
X44452380Y-52774819D01*
X44452380Y-52774819D02*
X44595237Y-52727200D01*
X44595237Y-52727200D02*
X44690475Y-52631961D01*
X44690475Y-52631961D02*
X44738094Y-52536723D01*
X44738094Y-52536723D02*
X44785713Y-52346247D01*
X44785713Y-52346247D02*
X44785713Y-52203390D01*
X44785713Y-52203390D02*
X44738094Y-52012914D01*
X44738094Y-52012914D02*
X44690475Y-51917676D01*
X44690475Y-51917676D02*
X44595237Y-51822438D01*
X44595237Y-51822438D02*
X44452380Y-51774819D01*
X44452380Y-51774819D02*
X44357142Y-51774819D01*
X44357142Y-51774819D02*
X44214285Y-51822438D01*
X44214285Y-51822438D02*
X44166666Y-51870057D01*
X43214285Y-52774819D02*
X43785713Y-52774819D01*
X43499999Y-52774819D02*
X43499999Y-51774819D01*
X43499999Y-51774819D02*
X43595237Y-51917676D01*
X43595237Y-51917676D02*
X43690475Y-52012914D01*
X43690475Y-52012914D02*
X43785713Y-52060533D01*
X14333333Y-46554819D02*
X14333333Y-47269104D01*
X14333333Y-47269104D02*
X14380952Y-47411961D01*
X14380952Y-47411961D02*
X14476190Y-47507200D01*
X14476190Y-47507200D02*
X14619047Y-47554819D01*
X14619047Y-47554819D02*
X14714285Y-47554819D01*
X13333333Y-47554819D02*
X13904761Y-47554819D01*
X13619047Y-47554819D02*
X13619047Y-46554819D01*
X13619047Y-46554819D02*
X13714285Y-46697676D01*
X13714285Y-46697676D02*
X13809523Y-46792914D01*
X13809523Y-46792914D02*
X13904761Y-46840533D01*
X60166666Y-52804819D02*
X60499999Y-52328628D01*
X60738094Y-52804819D02*
X60738094Y-51804819D01*
X60738094Y-51804819D02*
X60357142Y-51804819D01*
X60357142Y-51804819D02*
X60261904Y-51852438D01*
X60261904Y-51852438D02*
X60214285Y-51900057D01*
X60214285Y-51900057D02*
X60166666Y-51995295D01*
X60166666Y-51995295D02*
X60166666Y-52138152D01*
X60166666Y-52138152D02*
X60214285Y-52233390D01*
X60214285Y-52233390D02*
X60261904Y-52281009D01*
X60261904Y-52281009D02*
X60357142Y-52328628D01*
X60357142Y-52328628D02*
X60738094Y-52328628D01*
X59214285Y-52804819D02*
X59785713Y-52804819D01*
X59499999Y-52804819D02*
X59499999Y-51804819D01*
X59499999Y-51804819D02*
X59595237Y-51947676D01*
X59595237Y-51947676D02*
X59690475Y-52042914D01*
X59690475Y-52042914D02*
X59785713Y-52090533D01*
%TO.C,U2*%
D11*
X48670000Y-48670000D02*
X48670000Y-50000000D01*
X48670000Y-51270000D02*
X48670000Y-58950000D01*
X50000000Y-48670000D02*
X48670000Y-48670000D01*
X51270000Y-48670000D02*
X51270000Y-51270000D01*
X51270000Y-51270000D02*
X48670000Y-51270000D01*
X53870000Y-48670000D02*
X51270000Y-48670000D01*
X53870000Y-48670000D02*
X53870000Y-58950000D01*
X53870000Y-58950000D02*
X48670000Y-58950000D01*
%TO.C,C2*%
X15711252Y-55090000D02*
X14288748Y-55090000D01*
X15711252Y-56910000D02*
X14288748Y-56910000D01*
%TO.C,C1*%
X44261252Y-53265000D02*
X43738748Y-53265000D01*
X44261252Y-54735000D02*
X43738748Y-54735000D01*
%TO.C,J1*%
X10940000Y-49500000D02*
X11550000Y-49500000D01*
X10940000Y-50800000D02*
X11550000Y-50800000D01*
X11550000Y-48800000D02*
X13500000Y-48800000D01*
X11550000Y-52300000D02*
X11550000Y-48800000D01*
X13500000Y-48800000D02*
X13500000Y-48190000D01*
X13900000Y-51800000D02*
X13900000Y-52300000D01*
X14000000Y-52300000D02*
X14000000Y-51800000D01*
X14100000Y-51800000D02*
X13900000Y-51800000D01*
X14100000Y-52300000D02*
X14100000Y-51800000D01*
X14500000Y-48190000D02*
X14500000Y-48800000D01*
X14500000Y-48800000D02*
X16450000Y-48800000D01*
X15300000Y-47990000D02*
X15600000Y-47990000D01*
X15300000Y-48090000D02*
X15600000Y-48090000D01*
X15300000Y-48190000D02*
X15300000Y-47990000D01*
X15600000Y-47990000D02*
X15600000Y-48190000D01*
X16110000Y-47890000D02*
X17360000Y-47890000D01*
X16450000Y-48800000D02*
X16450000Y-52300000D01*
X16450000Y-52300000D02*
X11550000Y-52300000D01*
X17060000Y-49500000D02*
X16450000Y-49500000D01*
X17060000Y-50800000D02*
X16450000Y-50800000D01*
X17360000Y-47890000D02*
X17360000Y-49140000D01*
X10940000Y-48190000D02*
X17060000Y-48190000D01*
X17060000Y-52910000D01*
X10940000Y-52910000D01*
X10940000Y-48190000D01*
%TO.C,R1*%
X60227064Y-53265000D02*
X59772936Y-53265000D01*
X60227064Y-54735000D02*
X59772936Y-54735000D01*
%TD*%
M02*
