%TF.GenerationSoftware,KiCad,Pcbnew,10.0.4*%
%TF.CreationDate,2026-07-27T17:57:11+02:00*%
%TF.ProjectId,HM-BlueRemote-12,484d2d42-6c75-4655-9265-6d6f74652d31,rev?*%
%TF.SameCoordinates,Original*%
%TF.FileFunction,AssemblyDrawing,Top*%
%FSLAX46Y46*%
G04 Gerber Fmt 4.6, Leading zero omitted, Abs format (unit mm)*
G04 Created by KiCad (PCBNEW 10.0.4) date 2026-07-27 17:57:11*
%MOMM*%
%LPD*%
G01*
G04 APERTURE LIST*
%ADD10C,0.150000*%
%ADD11C,0.158750*%
%ADD12C,0.080000*%
%ADD13C,0.100000*%
G04 APERTURE END LIST*
D10*
X68690476Y-26081009D02*
X68833333Y-26128628D01*
X68833333Y-26128628D02*
X68880952Y-26176247D01*
X68880952Y-26176247D02*
X68928571Y-26271485D01*
X68928571Y-26271485D02*
X68928571Y-26414342D01*
X68928571Y-26414342D02*
X68880952Y-26509580D01*
X68880952Y-26509580D02*
X68833333Y-26557200D01*
X68833333Y-26557200D02*
X68738095Y-26604819D01*
X68738095Y-26604819D02*
X68357143Y-26604819D01*
X68357143Y-26604819D02*
X68357143Y-25604819D01*
X68357143Y-25604819D02*
X68690476Y-25604819D01*
X68690476Y-25604819D02*
X68785714Y-25652438D01*
X68785714Y-25652438D02*
X68833333Y-25700057D01*
X68833333Y-25700057D02*
X68880952Y-25795295D01*
X68880952Y-25795295D02*
X68880952Y-25890533D01*
X68880952Y-25890533D02*
X68833333Y-25985771D01*
X68833333Y-25985771D02*
X68785714Y-26033390D01*
X68785714Y-26033390D02*
X68690476Y-26081009D01*
X68690476Y-26081009D02*
X68357143Y-26081009D01*
X69214286Y-25604819D02*
X69785714Y-25604819D01*
X69500000Y-26604819D02*
X69500000Y-25604819D01*
X70119048Y-26604819D02*
X70119048Y-25604819D01*
X70119048Y-25604819D02*
X70690476Y-26604819D01*
X70690476Y-26604819D02*
X70690476Y-25604819D01*
X71595238Y-25604819D02*
X71404762Y-25604819D01*
X71404762Y-25604819D02*
X71309524Y-25652438D01*
X71309524Y-25652438D02*
X71261905Y-25700057D01*
X71261905Y-25700057D02*
X71166667Y-25842914D01*
X71166667Y-25842914D02*
X71119048Y-26033390D01*
X71119048Y-26033390D02*
X71119048Y-26414342D01*
X71119048Y-26414342D02*
X71166667Y-26509580D01*
X71166667Y-26509580D02*
X71214286Y-26557200D01*
X71214286Y-26557200D02*
X71309524Y-26604819D01*
X71309524Y-26604819D02*
X71500000Y-26604819D01*
X71500000Y-26604819D02*
X71595238Y-26557200D01*
X71595238Y-26557200D02*
X71642857Y-26509580D01*
X71642857Y-26509580D02*
X71690476Y-26414342D01*
X71690476Y-26414342D02*
X71690476Y-26176247D01*
X71690476Y-26176247D02*
X71642857Y-26081009D01*
X71642857Y-26081009D02*
X71595238Y-26033390D01*
X71595238Y-26033390D02*
X71500000Y-25985771D01*
X71500000Y-25985771D02*
X71309524Y-25985771D01*
X71309524Y-25985771D02*
X71214286Y-26033390D01*
X71214286Y-26033390D02*
X71166667Y-26081009D01*
X71166667Y-26081009D02*
X71119048Y-26176247D01*
X68666667Y-18357200D02*
X68809524Y-18404819D01*
X68809524Y-18404819D02*
X69047619Y-18404819D01*
X69047619Y-18404819D02*
X69142857Y-18357200D01*
X69142857Y-18357200D02*
X69190476Y-18309580D01*
X69190476Y-18309580D02*
X69238095Y-18214342D01*
X69238095Y-18214342D02*
X69238095Y-18119104D01*
X69238095Y-18119104D02*
X69190476Y-18023866D01*
X69190476Y-18023866D02*
X69142857Y-17976247D01*
X69142857Y-17976247D02*
X69047619Y-17928628D01*
X69047619Y-17928628D02*
X68857143Y-17881009D01*
X68857143Y-17881009D02*
X68761905Y-17833390D01*
X68761905Y-17833390D02*
X68714286Y-17785771D01*
X68714286Y-17785771D02*
X68666667Y-17690533D01*
X68666667Y-17690533D02*
X68666667Y-17595295D01*
X68666667Y-17595295D02*
X68714286Y-17500057D01*
X68714286Y-17500057D02*
X68761905Y-17452438D01*
X68761905Y-17452438D02*
X68857143Y-17404819D01*
X68857143Y-17404819D02*
X69095238Y-17404819D01*
X69095238Y-17404819D02*
X69238095Y-17452438D01*
X69571429Y-17404819D02*
X69809524Y-18404819D01*
X69809524Y-18404819D02*
X70000000Y-17690533D01*
X70000000Y-17690533D02*
X70190476Y-18404819D01*
X70190476Y-18404819D02*
X70428572Y-17404819D01*
X71238095Y-17404819D02*
X71047619Y-17404819D01*
X71047619Y-17404819D02*
X70952381Y-17452438D01*
X70952381Y-17452438D02*
X70904762Y-17500057D01*
X70904762Y-17500057D02*
X70809524Y-17642914D01*
X70809524Y-17642914D02*
X70761905Y-17833390D01*
X70761905Y-17833390D02*
X70761905Y-18214342D01*
X70761905Y-18214342D02*
X70809524Y-18309580D01*
X70809524Y-18309580D02*
X70857143Y-18357200D01*
X70857143Y-18357200D02*
X70952381Y-18404819D01*
X70952381Y-18404819D02*
X71142857Y-18404819D01*
X71142857Y-18404819D02*
X71238095Y-18357200D01*
X71238095Y-18357200D02*
X71285714Y-18309580D01*
X71285714Y-18309580D02*
X71333333Y-18214342D01*
X71333333Y-18214342D02*
X71333333Y-17976247D01*
X71333333Y-17976247D02*
X71285714Y-17881009D01*
X71285714Y-17881009D02*
X71238095Y-17833390D01*
X71238095Y-17833390D02*
X71142857Y-17785771D01*
X71142857Y-17785771D02*
X70952381Y-17785771D01*
X70952381Y-17785771D02*
X70857143Y-17833390D01*
X70857143Y-17833390D02*
X70809524Y-17881009D01*
X70809524Y-17881009D02*
X70761905Y-17976247D01*
X48214285Y-46081009D02*
X48357142Y-46128628D01*
X48357142Y-46128628D02*
X48404761Y-46176247D01*
X48404761Y-46176247D02*
X48452380Y-46271485D01*
X48452380Y-46271485D02*
X48452380Y-46414342D01*
X48452380Y-46414342D02*
X48404761Y-46509580D01*
X48404761Y-46509580D02*
X48357142Y-46557200D01*
X48357142Y-46557200D02*
X48261904Y-46604819D01*
X48261904Y-46604819D02*
X47880952Y-46604819D01*
X47880952Y-46604819D02*
X47880952Y-45604819D01*
X47880952Y-45604819D02*
X48214285Y-45604819D01*
X48214285Y-45604819D02*
X48309523Y-45652438D01*
X48309523Y-45652438D02*
X48357142Y-45700057D01*
X48357142Y-45700057D02*
X48404761Y-45795295D01*
X48404761Y-45795295D02*
X48404761Y-45890533D01*
X48404761Y-45890533D02*
X48357142Y-45985771D01*
X48357142Y-45985771D02*
X48309523Y-46033390D01*
X48309523Y-46033390D02*
X48214285Y-46081009D01*
X48214285Y-46081009D02*
X47880952Y-46081009D01*
X48738095Y-45604819D02*
X49309523Y-45604819D01*
X49023809Y-46604819D02*
X49023809Y-45604819D01*
X49642857Y-46604819D02*
X49642857Y-45604819D01*
X49642857Y-45604819D02*
X50214285Y-46604819D01*
X50214285Y-46604819D02*
X50214285Y-45604819D01*
X51214285Y-46604819D02*
X50642857Y-46604819D01*
X50928571Y-46604819D02*
X50928571Y-45604819D01*
X50928571Y-45604819D02*
X50833333Y-45747676D01*
X50833333Y-45747676D02*
X50738095Y-45842914D01*
X50738095Y-45842914D02*
X50642857Y-45890533D01*
X52166666Y-46604819D02*
X51595238Y-46604819D01*
X51880952Y-46604819D02*
X51880952Y-45604819D01*
X51880952Y-45604819D02*
X51785714Y-45747676D01*
X51785714Y-45747676D02*
X51690476Y-45842914D01*
X51690476Y-45842914D02*
X51595238Y-45890533D01*
X48190476Y-38357200D02*
X48333333Y-38404819D01*
X48333333Y-38404819D02*
X48571428Y-38404819D01*
X48571428Y-38404819D02*
X48666666Y-38357200D01*
X48666666Y-38357200D02*
X48714285Y-38309580D01*
X48714285Y-38309580D02*
X48761904Y-38214342D01*
X48761904Y-38214342D02*
X48761904Y-38119104D01*
X48761904Y-38119104D02*
X48714285Y-38023866D01*
X48714285Y-38023866D02*
X48666666Y-37976247D01*
X48666666Y-37976247D02*
X48571428Y-37928628D01*
X48571428Y-37928628D02*
X48380952Y-37881009D01*
X48380952Y-37881009D02*
X48285714Y-37833390D01*
X48285714Y-37833390D02*
X48238095Y-37785771D01*
X48238095Y-37785771D02*
X48190476Y-37690533D01*
X48190476Y-37690533D02*
X48190476Y-37595295D01*
X48190476Y-37595295D02*
X48238095Y-37500057D01*
X48238095Y-37500057D02*
X48285714Y-37452438D01*
X48285714Y-37452438D02*
X48380952Y-37404819D01*
X48380952Y-37404819D02*
X48619047Y-37404819D01*
X48619047Y-37404819D02*
X48761904Y-37452438D01*
X49095238Y-37404819D02*
X49333333Y-38404819D01*
X49333333Y-38404819D02*
X49523809Y-37690533D01*
X49523809Y-37690533D02*
X49714285Y-38404819D01*
X49714285Y-38404819D02*
X49952381Y-37404819D01*
X50857142Y-38404819D02*
X50285714Y-38404819D01*
X50571428Y-38404819D02*
X50571428Y-37404819D01*
X50571428Y-37404819D02*
X50476190Y-37547676D01*
X50476190Y-37547676D02*
X50380952Y-37642914D01*
X50380952Y-37642914D02*
X50285714Y-37690533D01*
X51809523Y-38404819D02*
X51238095Y-38404819D01*
X51523809Y-38404819D02*
X51523809Y-37404819D01*
X51523809Y-37404819D02*
X51428571Y-37547676D01*
X51428571Y-37547676D02*
X51333333Y-37642914D01*
X51333333Y-37642914D02*
X51238095Y-37690533D01*
D11*
X86233094Y-56579271D02*
X86233094Y-55309271D01*
X86233094Y-55309271D02*
X86656428Y-56216414D01*
X86656428Y-56216414D02*
X87079761Y-55309271D01*
X87079761Y-55309271D02*
X87079761Y-56579271D01*
X87865952Y-56579271D02*
X87745000Y-56518795D01*
X87745000Y-56518795D02*
X87684523Y-56458318D01*
X87684523Y-56458318D02*
X87624047Y-56337366D01*
X87624047Y-56337366D02*
X87624047Y-55974509D01*
X87624047Y-55974509D02*
X87684523Y-55853556D01*
X87684523Y-55853556D02*
X87745000Y-55793080D01*
X87745000Y-55793080D02*
X87865952Y-55732604D01*
X87865952Y-55732604D02*
X88047381Y-55732604D01*
X88047381Y-55732604D02*
X88168333Y-55793080D01*
X88168333Y-55793080D02*
X88228809Y-55853556D01*
X88228809Y-55853556D02*
X88289285Y-55974509D01*
X88289285Y-55974509D02*
X88289285Y-56337366D01*
X88289285Y-56337366D02*
X88228809Y-56458318D01*
X88228809Y-56458318D02*
X88168333Y-56518795D01*
X88168333Y-56518795D02*
X88047381Y-56579271D01*
X88047381Y-56579271D02*
X87865952Y-56579271D01*
X89377857Y-55732604D02*
X89377857Y-56579271D01*
X88833571Y-55732604D02*
X88833571Y-56397842D01*
X88833571Y-56397842D02*
X88894048Y-56518795D01*
X88894048Y-56518795D02*
X89015000Y-56579271D01*
X89015000Y-56579271D02*
X89196429Y-56579271D01*
X89196429Y-56579271D02*
X89317381Y-56518795D01*
X89317381Y-56518795D02*
X89377857Y-56458318D01*
X89982619Y-55732604D02*
X89982619Y-56579271D01*
X89982619Y-55853556D02*
X90043096Y-55793080D01*
X90043096Y-55793080D02*
X90164048Y-55732604D01*
X90164048Y-55732604D02*
X90345477Y-55732604D01*
X90345477Y-55732604D02*
X90466429Y-55793080D01*
X90466429Y-55793080D02*
X90526905Y-55914033D01*
X90526905Y-55914033D02*
X90526905Y-56579271D01*
X90950239Y-55732604D02*
X91434048Y-55732604D01*
X91131667Y-55309271D02*
X91131667Y-56397842D01*
X91131667Y-56397842D02*
X91192144Y-56518795D01*
X91192144Y-56518795D02*
X91313096Y-56579271D01*
X91313096Y-56579271D02*
X91434048Y-56579271D01*
X91857381Y-56579271D02*
X91857381Y-55732604D01*
X91857381Y-55309271D02*
X91796905Y-55369747D01*
X91796905Y-55369747D02*
X91857381Y-55430223D01*
X91857381Y-55430223D02*
X91917858Y-55369747D01*
X91917858Y-55369747D02*
X91857381Y-55309271D01*
X91857381Y-55309271D02*
X91857381Y-55430223D01*
X92462143Y-55732604D02*
X92462143Y-56579271D01*
X92462143Y-55853556D02*
X92522620Y-55793080D01*
X92522620Y-55793080D02*
X92643572Y-55732604D01*
X92643572Y-55732604D02*
X92825001Y-55732604D01*
X92825001Y-55732604D02*
X92945953Y-55793080D01*
X92945953Y-55793080D02*
X93006429Y-55914033D01*
X93006429Y-55914033D02*
X93006429Y-56579271D01*
X94155477Y-55732604D02*
X94155477Y-56760699D01*
X94155477Y-56760699D02*
X94095001Y-56881652D01*
X94095001Y-56881652D02*
X94034525Y-56942128D01*
X94034525Y-56942128D02*
X93913572Y-57002604D01*
X93913572Y-57002604D02*
X93732144Y-57002604D01*
X93732144Y-57002604D02*
X93611191Y-56942128D01*
X94155477Y-56518795D02*
X94034525Y-56579271D01*
X94034525Y-56579271D02*
X93792620Y-56579271D01*
X93792620Y-56579271D02*
X93671668Y-56518795D01*
X93671668Y-56518795D02*
X93611191Y-56458318D01*
X93611191Y-56458318D02*
X93550715Y-56337366D01*
X93550715Y-56337366D02*
X93550715Y-55974509D01*
X93550715Y-55974509D02*
X93611191Y-55853556D01*
X93611191Y-55853556D02*
X93671668Y-55793080D01*
X93671668Y-55793080D02*
X93792620Y-55732604D01*
X93792620Y-55732604D02*
X94034525Y-55732604D01*
X94034525Y-55732604D02*
X94155477Y-55793080D01*
X94760239Y-56579271D02*
X94760239Y-55309271D01*
X94760239Y-55914033D02*
X95485954Y-55914033D01*
X95485954Y-56579271D02*
X95485954Y-55309271D01*
X96272144Y-56579271D02*
X96151192Y-56518795D01*
X96151192Y-56518795D02*
X96090715Y-56458318D01*
X96090715Y-56458318D02*
X96030239Y-56337366D01*
X96030239Y-56337366D02*
X96030239Y-55974509D01*
X96030239Y-55974509D02*
X96090715Y-55853556D01*
X96090715Y-55853556D02*
X96151192Y-55793080D01*
X96151192Y-55793080D02*
X96272144Y-55732604D01*
X96272144Y-55732604D02*
X96453573Y-55732604D01*
X96453573Y-55732604D02*
X96574525Y-55793080D01*
X96574525Y-55793080D02*
X96635001Y-55853556D01*
X96635001Y-55853556D02*
X96695477Y-55974509D01*
X96695477Y-55974509D02*
X96695477Y-56337366D01*
X96695477Y-56337366D02*
X96635001Y-56458318D01*
X96635001Y-56458318D02*
X96574525Y-56518795D01*
X96574525Y-56518795D02*
X96453573Y-56579271D01*
X96453573Y-56579271D02*
X96272144Y-56579271D01*
X97421192Y-56579271D02*
X97300240Y-56518795D01*
X97300240Y-56518795D02*
X97239763Y-56397842D01*
X97239763Y-56397842D02*
X97239763Y-55309271D01*
X98388811Y-56518795D02*
X98267859Y-56579271D01*
X98267859Y-56579271D02*
X98025954Y-56579271D01*
X98025954Y-56579271D02*
X97905001Y-56518795D01*
X97905001Y-56518795D02*
X97844525Y-56397842D01*
X97844525Y-56397842D02*
X97844525Y-55914033D01*
X97844525Y-55914033D02*
X97905001Y-55793080D01*
X97905001Y-55793080D02*
X98025954Y-55732604D01*
X98025954Y-55732604D02*
X98267859Y-55732604D01*
X98267859Y-55732604D02*
X98388811Y-55793080D01*
X98388811Y-55793080D02*
X98449287Y-55914033D01*
X98449287Y-55914033D02*
X98449287Y-56034985D01*
X98449287Y-56034985D02*
X97844525Y-56155937D01*
X98691192Y-56700223D02*
X99658811Y-56700223D01*
X99840239Y-55309271D02*
X100626430Y-55309271D01*
X100626430Y-55309271D02*
X100203096Y-55793080D01*
X100203096Y-55793080D02*
X100384525Y-55793080D01*
X100384525Y-55793080D02*
X100505477Y-55853556D01*
X100505477Y-55853556D02*
X100565953Y-55914033D01*
X100565953Y-55914033D02*
X100626430Y-56034985D01*
X100626430Y-56034985D02*
X100626430Y-56337366D01*
X100626430Y-56337366D02*
X100565953Y-56458318D01*
X100565953Y-56458318D02*
X100505477Y-56518795D01*
X100505477Y-56518795D02*
X100384525Y-56579271D01*
X100384525Y-56579271D02*
X100021668Y-56579271D01*
X100021668Y-56579271D02*
X99900715Y-56518795D01*
X99900715Y-56518795D02*
X99840239Y-56458318D01*
X101170715Y-56458318D02*
X101231192Y-56518795D01*
X101231192Y-56518795D02*
X101170715Y-56579271D01*
X101170715Y-56579271D02*
X101110239Y-56518795D01*
X101110239Y-56518795D02*
X101170715Y-56458318D01*
X101170715Y-56458318D02*
X101170715Y-56579271D01*
X101715001Y-55430223D02*
X101775477Y-55369747D01*
X101775477Y-55369747D02*
X101896430Y-55309271D01*
X101896430Y-55309271D02*
X102198811Y-55309271D01*
X102198811Y-55309271D02*
X102319763Y-55369747D01*
X102319763Y-55369747D02*
X102380239Y-55430223D01*
X102380239Y-55430223D02*
X102440716Y-55551175D01*
X102440716Y-55551175D02*
X102440716Y-55672128D01*
X102440716Y-55672128D02*
X102380239Y-55853556D01*
X102380239Y-55853556D02*
X101654525Y-56579271D01*
X101654525Y-56579271D02*
X102440716Y-56579271D01*
X102985001Y-56579271D02*
X102985001Y-55732604D01*
X102985001Y-55853556D02*
X103045478Y-55793080D01*
X103045478Y-55793080D02*
X103166430Y-55732604D01*
X103166430Y-55732604D02*
X103347859Y-55732604D01*
X103347859Y-55732604D02*
X103468811Y-55793080D01*
X103468811Y-55793080D02*
X103529287Y-55914033D01*
X103529287Y-55914033D02*
X103529287Y-56579271D01*
X103529287Y-55914033D02*
X103589763Y-55793080D01*
X103589763Y-55793080D02*
X103710716Y-55732604D01*
X103710716Y-55732604D02*
X103892144Y-55732604D01*
X103892144Y-55732604D02*
X104013097Y-55793080D01*
X104013097Y-55793080D02*
X104073573Y-55914033D01*
X104073573Y-55914033D02*
X104073573Y-56579271D01*
X104678334Y-56579271D02*
X104678334Y-55732604D01*
X104678334Y-55853556D02*
X104738811Y-55793080D01*
X104738811Y-55793080D02*
X104859763Y-55732604D01*
X104859763Y-55732604D02*
X105041192Y-55732604D01*
X105041192Y-55732604D02*
X105162144Y-55793080D01*
X105162144Y-55793080D02*
X105222620Y-55914033D01*
X105222620Y-55914033D02*
X105222620Y-56579271D01*
X105222620Y-55914033D02*
X105283096Y-55793080D01*
X105283096Y-55793080D02*
X105404049Y-55732604D01*
X105404049Y-55732604D02*
X105585477Y-55732604D01*
X105585477Y-55732604D02*
X105706430Y-55793080D01*
X105706430Y-55793080D02*
X105766906Y-55914033D01*
X105766906Y-55914033D02*
X105766906Y-56579271D01*
D10*
X28690476Y-26081009D02*
X28833333Y-26128628D01*
X28833333Y-26128628D02*
X28880952Y-26176247D01*
X28880952Y-26176247D02*
X28928571Y-26271485D01*
X28928571Y-26271485D02*
X28928571Y-26414342D01*
X28928571Y-26414342D02*
X28880952Y-26509580D01*
X28880952Y-26509580D02*
X28833333Y-26557200D01*
X28833333Y-26557200D02*
X28738095Y-26604819D01*
X28738095Y-26604819D02*
X28357143Y-26604819D01*
X28357143Y-26604819D02*
X28357143Y-25604819D01*
X28357143Y-25604819D02*
X28690476Y-25604819D01*
X28690476Y-25604819D02*
X28785714Y-25652438D01*
X28785714Y-25652438D02*
X28833333Y-25700057D01*
X28833333Y-25700057D02*
X28880952Y-25795295D01*
X28880952Y-25795295D02*
X28880952Y-25890533D01*
X28880952Y-25890533D02*
X28833333Y-25985771D01*
X28833333Y-25985771D02*
X28785714Y-26033390D01*
X28785714Y-26033390D02*
X28690476Y-26081009D01*
X28690476Y-26081009D02*
X28357143Y-26081009D01*
X29214286Y-25604819D02*
X29785714Y-25604819D01*
X29500000Y-26604819D02*
X29500000Y-25604819D01*
X30119048Y-26604819D02*
X30119048Y-25604819D01*
X30119048Y-25604819D02*
X30690476Y-26604819D01*
X30690476Y-26604819D02*
X30690476Y-25604819D01*
X31595238Y-25938152D02*
X31595238Y-26604819D01*
X31357143Y-25557200D02*
X31119048Y-26271485D01*
X31119048Y-26271485D02*
X31738095Y-26271485D01*
X28666667Y-18357200D02*
X28809524Y-18404819D01*
X28809524Y-18404819D02*
X29047619Y-18404819D01*
X29047619Y-18404819D02*
X29142857Y-18357200D01*
X29142857Y-18357200D02*
X29190476Y-18309580D01*
X29190476Y-18309580D02*
X29238095Y-18214342D01*
X29238095Y-18214342D02*
X29238095Y-18119104D01*
X29238095Y-18119104D02*
X29190476Y-18023866D01*
X29190476Y-18023866D02*
X29142857Y-17976247D01*
X29142857Y-17976247D02*
X29047619Y-17928628D01*
X29047619Y-17928628D02*
X28857143Y-17881009D01*
X28857143Y-17881009D02*
X28761905Y-17833390D01*
X28761905Y-17833390D02*
X28714286Y-17785771D01*
X28714286Y-17785771D02*
X28666667Y-17690533D01*
X28666667Y-17690533D02*
X28666667Y-17595295D01*
X28666667Y-17595295D02*
X28714286Y-17500057D01*
X28714286Y-17500057D02*
X28761905Y-17452438D01*
X28761905Y-17452438D02*
X28857143Y-17404819D01*
X28857143Y-17404819D02*
X29095238Y-17404819D01*
X29095238Y-17404819D02*
X29238095Y-17452438D01*
X29571429Y-17404819D02*
X29809524Y-18404819D01*
X29809524Y-18404819D02*
X30000000Y-17690533D01*
X30000000Y-17690533D02*
X30190476Y-18404819D01*
X30190476Y-18404819D02*
X30428572Y-17404819D01*
X31238095Y-17738152D02*
X31238095Y-18404819D01*
X31000000Y-17357200D02*
X30761905Y-18071485D01*
X30761905Y-18071485D02*
X31380952Y-18071485D01*
D11*
X-5766905Y-56579271D02*
X-5766905Y-55309271D01*
X-5766905Y-55309271D02*
X-5343571Y-56216414D01*
X-5343571Y-56216414D02*
X-4920238Y-55309271D01*
X-4920238Y-55309271D02*
X-4920238Y-56579271D01*
X-4134047Y-56579271D02*
X-4254999Y-56518795D01*
X-4254999Y-56518795D02*
X-4315476Y-56458318D01*
X-4315476Y-56458318D02*
X-4375952Y-56337366D01*
X-4375952Y-56337366D02*
X-4375952Y-55974509D01*
X-4375952Y-55974509D02*
X-4315476Y-55853556D01*
X-4315476Y-55853556D02*
X-4254999Y-55793080D01*
X-4254999Y-55793080D02*
X-4134047Y-55732604D01*
X-4134047Y-55732604D02*
X-3952618Y-55732604D01*
X-3952618Y-55732604D02*
X-3831666Y-55793080D01*
X-3831666Y-55793080D02*
X-3771190Y-55853556D01*
X-3771190Y-55853556D02*
X-3710714Y-55974509D01*
X-3710714Y-55974509D02*
X-3710714Y-56337366D01*
X-3710714Y-56337366D02*
X-3771190Y-56458318D01*
X-3771190Y-56458318D02*
X-3831666Y-56518795D01*
X-3831666Y-56518795D02*
X-3952618Y-56579271D01*
X-3952618Y-56579271D02*
X-4134047Y-56579271D01*
X-2622142Y-55732604D02*
X-2622142Y-56579271D01*
X-3166428Y-55732604D02*
X-3166428Y-56397842D01*
X-3166428Y-56397842D02*
X-3105951Y-56518795D01*
X-3105951Y-56518795D02*
X-2984999Y-56579271D01*
X-2984999Y-56579271D02*
X-2803570Y-56579271D01*
X-2803570Y-56579271D02*
X-2682618Y-56518795D01*
X-2682618Y-56518795D02*
X-2622142Y-56458318D01*
X-2017380Y-55732604D02*
X-2017380Y-56579271D01*
X-2017380Y-55853556D02*
X-1956903Y-55793080D01*
X-1956903Y-55793080D02*
X-1835951Y-55732604D01*
X-1835951Y-55732604D02*
X-1654522Y-55732604D01*
X-1654522Y-55732604D02*
X-1533570Y-55793080D01*
X-1533570Y-55793080D02*
X-1473094Y-55914033D01*
X-1473094Y-55914033D02*
X-1473094Y-56579271D01*
X-1049760Y-55732604D02*
X-565951Y-55732604D01*
X-868332Y-55309271D02*
X-868332Y-56397842D01*
X-868332Y-56397842D02*
X-807855Y-56518795D01*
X-807855Y-56518795D02*
X-686903Y-56579271D01*
X-686903Y-56579271D02*
X-565951Y-56579271D01*
X-142618Y-56579271D02*
X-142618Y-55732604D01*
X-142618Y-55309271D02*
X-203094Y-55369747D01*
X-203094Y-55369747D02*
X-142618Y-55430223D01*
X-142618Y-55430223D02*
X-82141Y-55369747D01*
X-82141Y-55369747D02*
X-142618Y-55309271D01*
X-142618Y-55309271D02*
X-142618Y-55430223D01*
X462143Y-55732604D02*
X462143Y-56579271D01*
X462143Y-55853556D02*
X522620Y-55793080D01*
X522620Y-55793080D02*
X643572Y-55732604D01*
X643572Y-55732604D02*
X825001Y-55732604D01*
X825001Y-55732604D02*
X945953Y-55793080D01*
X945953Y-55793080D02*
X1006429Y-55914033D01*
X1006429Y-55914033D02*
X1006429Y-56579271D01*
X2155477Y-55732604D02*
X2155477Y-56760699D01*
X2155477Y-56760699D02*
X2095001Y-56881652D01*
X2095001Y-56881652D02*
X2034525Y-56942128D01*
X2034525Y-56942128D02*
X1913572Y-57002604D01*
X1913572Y-57002604D02*
X1732144Y-57002604D01*
X1732144Y-57002604D02*
X1611191Y-56942128D01*
X2155477Y-56518795D02*
X2034525Y-56579271D01*
X2034525Y-56579271D02*
X1792620Y-56579271D01*
X1792620Y-56579271D02*
X1671668Y-56518795D01*
X1671668Y-56518795D02*
X1611191Y-56458318D01*
X1611191Y-56458318D02*
X1550715Y-56337366D01*
X1550715Y-56337366D02*
X1550715Y-55974509D01*
X1550715Y-55974509D02*
X1611191Y-55853556D01*
X1611191Y-55853556D02*
X1671668Y-55793080D01*
X1671668Y-55793080D02*
X1792620Y-55732604D01*
X1792620Y-55732604D02*
X2034525Y-55732604D01*
X2034525Y-55732604D02*
X2155477Y-55793080D01*
X2760239Y-56579271D02*
X2760239Y-55309271D01*
X2760239Y-55914033D02*
X3485954Y-55914033D01*
X3485954Y-56579271D02*
X3485954Y-55309271D01*
X4272144Y-56579271D02*
X4151192Y-56518795D01*
X4151192Y-56518795D02*
X4090715Y-56458318D01*
X4090715Y-56458318D02*
X4030239Y-56337366D01*
X4030239Y-56337366D02*
X4030239Y-55974509D01*
X4030239Y-55974509D02*
X4090715Y-55853556D01*
X4090715Y-55853556D02*
X4151192Y-55793080D01*
X4151192Y-55793080D02*
X4272144Y-55732604D01*
X4272144Y-55732604D02*
X4453573Y-55732604D01*
X4453573Y-55732604D02*
X4574525Y-55793080D01*
X4574525Y-55793080D02*
X4635001Y-55853556D01*
X4635001Y-55853556D02*
X4695477Y-55974509D01*
X4695477Y-55974509D02*
X4695477Y-56337366D01*
X4695477Y-56337366D02*
X4635001Y-56458318D01*
X4635001Y-56458318D02*
X4574525Y-56518795D01*
X4574525Y-56518795D02*
X4453573Y-56579271D01*
X4453573Y-56579271D02*
X4272144Y-56579271D01*
X5421192Y-56579271D02*
X5300240Y-56518795D01*
X5300240Y-56518795D02*
X5239763Y-56397842D01*
X5239763Y-56397842D02*
X5239763Y-55309271D01*
X6388811Y-56518795D02*
X6267859Y-56579271D01*
X6267859Y-56579271D02*
X6025954Y-56579271D01*
X6025954Y-56579271D02*
X5905001Y-56518795D01*
X5905001Y-56518795D02*
X5844525Y-56397842D01*
X5844525Y-56397842D02*
X5844525Y-55914033D01*
X5844525Y-55914033D02*
X5905001Y-55793080D01*
X5905001Y-55793080D02*
X6025954Y-55732604D01*
X6025954Y-55732604D02*
X6267859Y-55732604D01*
X6267859Y-55732604D02*
X6388811Y-55793080D01*
X6388811Y-55793080D02*
X6449287Y-55914033D01*
X6449287Y-55914033D02*
X6449287Y-56034985D01*
X6449287Y-56034985D02*
X5844525Y-56155937D01*
X6691192Y-56700223D02*
X7658811Y-56700223D01*
X7840239Y-55309271D02*
X8626430Y-55309271D01*
X8626430Y-55309271D02*
X8203096Y-55793080D01*
X8203096Y-55793080D02*
X8384525Y-55793080D01*
X8384525Y-55793080D02*
X8505477Y-55853556D01*
X8505477Y-55853556D02*
X8565953Y-55914033D01*
X8565953Y-55914033D02*
X8626430Y-56034985D01*
X8626430Y-56034985D02*
X8626430Y-56337366D01*
X8626430Y-56337366D02*
X8565953Y-56458318D01*
X8565953Y-56458318D02*
X8505477Y-56518795D01*
X8505477Y-56518795D02*
X8384525Y-56579271D01*
X8384525Y-56579271D02*
X8021668Y-56579271D01*
X8021668Y-56579271D02*
X7900715Y-56518795D01*
X7900715Y-56518795D02*
X7840239Y-56458318D01*
X9170715Y-56458318D02*
X9231192Y-56518795D01*
X9231192Y-56518795D02*
X9170715Y-56579271D01*
X9170715Y-56579271D02*
X9110239Y-56518795D01*
X9110239Y-56518795D02*
X9170715Y-56458318D01*
X9170715Y-56458318D02*
X9170715Y-56579271D01*
X9715001Y-55430223D02*
X9775477Y-55369747D01*
X9775477Y-55369747D02*
X9896430Y-55309271D01*
X9896430Y-55309271D02*
X10198811Y-55309271D01*
X10198811Y-55309271D02*
X10319763Y-55369747D01*
X10319763Y-55369747D02*
X10380239Y-55430223D01*
X10380239Y-55430223D02*
X10440716Y-55551175D01*
X10440716Y-55551175D02*
X10440716Y-55672128D01*
X10440716Y-55672128D02*
X10380239Y-55853556D01*
X10380239Y-55853556D02*
X9654525Y-56579271D01*
X9654525Y-56579271D02*
X10440716Y-56579271D01*
X10985001Y-56579271D02*
X10985001Y-55732604D01*
X10985001Y-55853556D02*
X11045478Y-55793080D01*
X11045478Y-55793080D02*
X11166430Y-55732604D01*
X11166430Y-55732604D02*
X11347859Y-55732604D01*
X11347859Y-55732604D02*
X11468811Y-55793080D01*
X11468811Y-55793080D02*
X11529287Y-55914033D01*
X11529287Y-55914033D02*
X11529287Y-56579271D01*
X11529287Y-55914033D02*
X11589763Y-55793080D01*
X11589763Y-55793080D02*
X11710716Y-55732604D01*
X11710716Y-55732604D02*
X11892144Y-55732604D01*
X11892144Y-55732604D02*
X12013097Y-55793080D01*
X12013097Y-55793080D02*
X12073573Y-55914033D01*
X12073573Y-55914033D02*
X12073573Y-56579271D01*
X12678334Y-56579271D02*
X12678334Y-55732604D01*
X12678334Y-55853556D02*
X12738811Y-55793080D01*
X12738811Y-55793080D02*
X12859763Y-55732604D01*
X12859763Y-55732604D02*
X13041192Y-55732604D01*
X13041192Y-55732604D02*
X13162144Y-55793080D01*
X13162144Y-55793080D02*
X13222620Y-55914033D01*
X13222620Y-55914033D02*
X13222620Y-56579271D01*
X13222620Y-55914033D02*
X13283096Y-55793080D01*
X13283096Y-55793080D02*
X13404049Y-55732604D01*
X13404049Y-55732604D02*
X13585477Y-55732604D01*
X13585477Y-55732604D02*
X13706430Y-55793080D01*
X13706430Y-55793080D02*
X13766906Y-55914033D01*
X13766906Y-55914033D02*
X13766906Y-56579271D01*
D10*
X48690476Y-36081009D02*
X48833333Y-36128628D01*
X48833333Y-36128628D02*
X48880952Y-36176247D01*
X48880952Y-36176247D02*
X48928571Y-36271485D01*
X48928571Y-36271485D02*
X48928571Y-36414342D01*
X48928571Y-36414342D02*
X48880952Y-36509580D01*
X48880952Y-36509580D02*
X48833333Y-36557200D01*
X48833333Y-36557200D02*
X48738095Y-36604819D01*
X48738095Y-36604819D02*
X48357143Y-36604819D01*
X48357143Y-36604819D02*
X48357143Y-35604819D01*
X48357143Y-35604819D02*
X48690476Y-35604819D01*
X48690476Y-35604819D02*
X48785714Y-35652438D01*
X48785714Y-35652438D02*
X48833333Y-35700057D01*
X48833333Y-35700057D02*
X48880952Y-35795295D01*
X48880952Y-35795295D02*
X48880952Y-35890533D01*
X48880952Y-35890533D02*
X48833333Y-35985771D01*
X48833333Y-35985771D02*
X48785714Y-36033390D01*
X48785714Y-36033390D02*
X48690476Y-36081009D01*
X48690476Y-36081009D02*
X48357143Y-36081009D01*
X49214286Y-35604819D02*
X49785714Y-35604819D01*
X49500000Y-36604819D02*
X49500000Y-35604819D01*
X50119048Y-36604819D02*
X50119048Y-35604819D01*
X50119048Y-35604819D02*
X50690476Y-36604819D01*
X50690476Y-36604819D02*
X50690476Y-35604819D01*
X51309524Y-36033390D02*
X51214286Y-35985771D01*
X51214286Y-35985771D02*
X51166667Y-35938152D01*
X51166667Y-35938152D02*
X51119048Y-35842914D01*
X51119048Y-35842914D02*
X51119048Y-35795295D01*
X51119048Y-35795295D02*
X51166667Y-35700057D01*
X51166667Y-35700057D02*
X51214286Y-35652438D01*
X51214286Y-35652438D02*
X51309524Y-35604819D01*
X51309524Y-35604819D02*
X51500000Y-35604819D01*
X51500000Y-35604819D02*
X51595238Y-35652438D01*
X51595238Y-35652438D02*
X51642857Y-35700057D01*
X51642857Y-35700057D02*
X51690476Y-35795295D01*
X51690476Y-35795295D02*
X51690476Y-35842914D01*
X51690476Y-35842914D02*
X51642857Y-35938152D01*
X51642857Y-35938152D02*
X51595238Y-35985771D01*
X51595238Y-35985771D02*
X51500000Y-36033390D01*
X51500000Y-36033390D02*
X51309524Y-36033390D01*
X51309524Y-36033390D02*
X51214286Y-36081009D01*
X51214286Y-36081009D02*
X51166667Y-36128628D01*
X51166667Y-36128628D02*
X51119048Y-36223866D01*
X51119048Y-36223866D02*
X51119048Y-36414342D01*
X51119048Y-36414342D02*
X51166667Y-36509580D01*
X51166667Y-36509580D02*
X51214286Y-36557200D01*
X51214286Y-36557200D02*
X51309524Y-36604819D01*
X51309524Y-36604819D02*
X51500000Y-36604819D01*
X51500000Y-36604819D02*
X51595238Y-36557200D01*
X51595238Y-36557200D02*
X51642857Y-36509580D01*
X51642857Y-36509580D02*
X51690476Y-36414342D01*
X51690476Y-36414342D02*
X51690476Y-36223866D01*
X51690476Y-36223866D02*
X51642857Y-36128628D01*
X51642857Y-36128628D02*
X51595238Y-36081009D01*
X51595238Y-36081009D02*
X51500000Y-36033390D01*
X48666667Y-28357200D02*
X48809524Y-28404819D01*
X48809524Y-28404819D02*
X49047619Y-28404819D01*
X49047619Y-28404819D02*
X49142857Y-28357200D01*
X49142857Y-28357200D02*
X49190476Y-28309580D01*
X49190476Y-28309580D02*
X49238095Y-28214342D01*
X49238095Y-28214342D02*
X49238095Y-28119104D01*
X49238095Y-28119104D02*
X49190476Y-28023866D01*
X49190476Y-28023866D02*
X49142857Y-27976247D01*
X49142857Y-27976247D02*
X49047619Y-27928628D01*
X49047619Y-27928628D02*
X48857143Y-27881009D01*
X48857143Y-27881009D02*
X48761905Y-27833390D01*
X48761905Y-27833390D02*
X48714286Y-27785771D01*
X48714286Y-27785771D02*
X48666667Y-27690533D01*
X48666667Y-27690533D02*
X48666667Y-27595295D01*
X48666667Y-27595295D02*
X48714286Y-27500057D01*
X48714286Y-27500057D02*
X48761905Y-27452438D01*
X48761905Y-27452438D02*
X48857143Y-27404819D01*
X48857143Y-27404819D02*
X49095238Y-27404819D01*
X49095238Y-27404819D02*
X49238095Y-27452438D01*
X49571429Y-27404819D02*
X49809524Y-28404819D01*
X49809524Y-28404819D02*
X50000000Y-27690533D01*
X50000000Y-27690533D02*
X50190476Y-28404819D01*
X50190476Y-28404819D02*
X50428572Y-27404819D01*
X50952381Y-27833390D02*
X50857143Y-27785771D01*
X50857143Y-27785771D02*
X50809524Y-27738152D01*
X50809524Y-27738152D02*
X50761905Y-27642914D01*
X50761905Y-27642914D02*
X50761905Y-27595295D01*
X50761905Y-27595295D02*
X50809524Y-27500057D01*
X50809524Y-27500057D02*
X50857143Y-27452438D01*
X50857143Y-27452438D02*
X50952381Y-27404819D01*
X50952381Y-27404819D02*
X51142857Y-27404819D01*
X51142857Y-27404819D02*
X51238095Y-27452438D01*
X51238095Y-27452438D02*
X51285714Y-27500057D01*
X51285714Y-27500057D02*
X51333333Y-27595295D01*
X51333333Y-27595295D02*
X51333333Y-27642914D01*
X51333333Y-27642914D02*
X51285714Y-27738152D01*
X51285714Y-27738152D02*
X51238095Y-27785771D01*
X51238095Y-27785771D02*
X51142857Y-27833390D01*
X51142857Y-27833390D02*
X50952381Y-27833390D01*
X50952381Y-27833390D02*
X50857143Y-27881009D01*
X50857143Y-27881009D02*
X50809524Y-27928628D01*
X50809524Y-27928628D02*
X50761905Y-28023866D01*
X50761905Y-28023866D02*
X50761905Y-28214342D01*
X50761905Y-28214342D02*
X50809524Y-28309580D01*
X50809524Y-28309580D02*
X50857143Y-28357200D01*
X50857143Y-28357200D02*
X50952381Y-28404819D01*
X50952381Y-28404819D02*
X51142857Y-28404819D01*
X51142857Y-28404819D02*
X51238095Y-28357200D01*
X51238095Y-28357200D02*
X51285714Y-28309580D01*
X51285714Y-28309580D02*
X51333333Y-28214342D01*
X51333333Y-28214342D02*
X51333333Y-28023866D01*
X51333333Y-28023866D02*
X51285714Y-27928628D01*
X51285714Y-27928628D02*
X51238095Y-27881009D01*
X51238095Y-27881009D02*
X51142857Y-27833390D01*
D11*
X86233094Y-4579271D02*
X86233094Y-3309271D01*
X86233094Y-3309271D02*
X86656428Y-4216414D01*
X86656428Y-4216414D02*
X87079761Y-3309271D01*
X87079761Y-3309271D02*
X87079761Y-4579271D01*
X87865952Y-4579271D02*
X87745000Y-4518795D01*
X87745000Y-4518795D02*
X87684523Y-4458318D01*
X87684523Y-4458318D02*
X87624047Y-4337366D01*
X87624047Y-4337366D02*
X87624047Y-3974509D01*
X87624047Y-3974509D02*
X87684523Y-3853556D01*
X87684523Y-3853556D02*
X87745000Y-3793080D01*
X87745000Y-3793080D02*
X87865952Y-3732604D01*
X87865952Y-3732604D02*
X88047381Y-3732604D01*
X88047381Y-3732604D02*
X88168333Y-3793080D01*
X88168333Y-3793080D02*
X88228809Y-3853556D01*
X88228809Y-3853556D02*
X88289285Y-3974509D01*
X88289285Y-3974509D02*
X88289285Y-4337366D01*
X88289285Y-4337366D02*
X88228809Y-4458318D01*
X88228809Y-4458318D02*
X88168333Y-4518795D01*
X88168333Y-4518795D02*
X88047381Y-4579271D01*
X88047381Y-4579271D02*
X87865952Y-4579271D01*
X89377857Y-3732604D02*
X89377857Y-4579271D01*
X88833571Y-3732604D02*
X88833571Y-4397842D01*
X88833571Y-4397842D02*
X88894048Y-4518795D01*
X88894048Y-4518795D02*
X89015000Y-4579271D01*
X89015000Y-4579271D02*
X89196429Y-4579271D01*
X89196429Y-4579271D02*
X89317381Y-4518795D01*
X89317381Y-4518795D02*
X89377857Y-4458318D01*
X89982619Y-3732604D02*
X89982619Y-4579271D01*
X89982619Y-3853556D02*
X90043096Y-3793080D01*
X90043096Y-3793080D02*
X90164048Y-3732604D01*
X90164048Y-3732604D02*
X90345477Y-3732604D01*
X90345477Y-3732604D02*
X90466429Y-3793080D01*
X90466429Y-3793080D02*
X90526905Y-3914033D01*
X90526905Y-3914033D02*
X90526905Y-4579271D01*
X90950239Y-3732604D02*
X91434048Y-3732604D01*
X91131667Y-3309271D02*
X91131667Y-4397842D01*
X91131667Y-4397842D02*
X91192144Y-4518795D01*
X91192144Y-4518795D02*
X91313096Y-4579271D01*
X91313096Y-4579271D02*
X91434048Y-4579271D01*
X91857381Y-4579271D02*
X91857381Y-3732604D01*
X91857381Y-3309271D02*
X91796905Y-3369747D01*
X91796905Y-3369747D02*
X91857381Y-3430223D01*
X91857381Y-3430223D02*
X91917858Y-3369747D01*
X91917858Y-3369747D02*
X91857381Y-3309271D01*
X91857381Y-3309271D02*
X91857381Y-3430223D01*
X92462143Y-3732604D02*
X92462143Y-4579271D01*
X92462143Y-3853556D02*
X92522620Y-3793080D01*
X92522620Y-3793080D02*
X92643572Y-3732604D01*
X92643572Y-3732604D02*
X92825001Y-3732604D01*
X92825001Y-3732604D02*
X92945953Y-3793080D01*
X92945953Y-3793080D02*
X93006429Y-3914033D01*
X93006429Y-3914033D02*
X93006429Y-4579271D01*
X94155477Y-3732604D02*
X94155477Y-4760699D01*
X94155477Y-4760699D02*
X94095001Y-4881652D01*
X94095001Y-4881652D02*
X94034525Y-4942128D01*
X94034525Y-4942128D02*
X93913572Y-5002604D01*
X93913572Y-5002604D02*
X93732144Y-5002604D01*
X93732144Y-5002604D02*
X93611191Y-4942128D01*
X94155477Y-4518795D02*
X94034525Y-4579271D01*
X94034525Y-4579271D02*
X93792620Y-4579271D01*
X93792620Y-4579271D02*
X93671668Y-4518795D01*
X93671668Y-4518795D02*
X93611191Y-4458318D01*
X93611191Y-4458318D02*
X93550715Y-4337366D01*
X93550715Y-4337366D02*
X93550715Y-3974509D01*
X93550715Y-3974509D02*
X93611191Y-3853556D01*
X93611191Y-3853556D02*
X93671668Y-3793080D01*
X93671668Y-3793080D02*
X93792620Y-3732604D01*
X93792620Y-3732604D02*
X94034525Y-3732604D01*
X94034525Y-3732604D02*
X94155477Y-3793080D01*
X94760239Y-4579271D02*
X94760239Y-3309271D01*
X94760239Y-3914033D02*
X95485954Y-3914033D01*
X95485954Y-4579271D02*
X95485954Y-3309271D01*
X96272144Y-4579271D02*
X96151192Y-4518795D01*
X96151192Y-4518795D02*
X96090715Y-4458318D01*
X96090715Y-4458318D02*
X96030239Y-4337366D01*
X96030239Y-4337366D02*
X96030239Y-3974509D01*
X96030239Y-3974509D02*
X96090715Y-3853556D01*
X96090715Y-3853556D02*
X96151192Y-3793080D01*
X96151192Y-3793080D02*
X96272144Y-3732604D01*
X96272144Y-3732604D02*
X96453573Y-3732604D01*
X96453573Y-3732604D02*
X96574525Y-3793080D01*
X96574525Y-3793080D02*
X96635001Y-3853556D01*
X96635001Y-3853556D02*
X96695477Y-3974509D01*
X96695477Y-3974509D02*
X96695477Y-4337366D01*
X96695477Y-4337366D02*
X96635001Y-4458318D01*
X96635001Y-4458318D02*
X96574525Y-4518795D01*
X96574525Y-4518795D02*
X96453573Y-4579271D01*
X96453573Y-4579271D02*
X96272144Y-4579271D01*
X97421192Y-4579271D02*
X97300240Y-4518795D01*
X97300240Y-4518795D02*
X97239763Y-4397842D01*
X97239763Y-4397842D02*
X97239763Y-3309271D01*
X98388811Y-4518795D02*
X98267859Y-4579271D01*
X98267859Y-4579271D02*
X98025954Y-4579271D01*
X98025954Y-4579271D02*
X97905001Y-4518795D01*
X97905001Y-4518795D02*
X97844525Y-4397842D01*
X97844525Y-4397842D02*
X97844525Y-3914033D01*
X97844525Y-3914033D02*
X97905001Y-3793080D01*
X97905001Y-3793080D02*
X98025954Y-3732604D01*
X98025954Y-3732604D02*
X98267859Y-3732604D01*
X98267859Y-3732604D02*
X98388811Y-3793080D01*
X98388811Y-3793080D02*
X98449287Y-3914033D01*
X98449287Y-3914033D02*
X98449287Y-4034985D01*
X98449287Y-4034985D02*
X97844525Y-4155937D01*
X98691192Y-4700223D02*
X99658811Y-4700223D01*
X99840239Y-3309271D02*
X100626430Y-3309271D01*
X100626430Y-3309271D02*
X100203096Y-3793080D01*
X100203096Y-3793080D02*
X100384525Y-3793080D01*
X100384525Y-3793080D02*
X100505477Y-3853556D01*
X100505477Y-3853556D02*
X100565953Y-3914033D01*
X100565953Y-3914033D02*
X100626430Y-4034985D01*
X100626430Y-4034985D02*
X100626430Y-4337366D01*
X100626430Y-4337366D02*
X100565953Y-4458318D01*
X100565953Y-4458318D02*
X100505477Y-4518795D01*
X100505477Y-4518795D02*
X100384525Y-4579271D01*
X100384525Y-4579271D02*
X100021668Y-4579271D01*
X100021668Y-4579271D02*
X99900715Y-4518795D01*
X99900715Y-4518795D02*
X99840239Y-4458318D01*
X101170715Y-4458318D02*
X101231192Y-4518795D01*
X101231192Y-4518795D02*
X101170715Y-4579271D01*
X101170715Y-4579271D02*
X101110239Y-4518795D01*
X101110239Y-4518795D02*
X101170715Y-4458318D01*
X101170715Y-4458318D02*
X101170715Y-4579271D01*
X101715001Y-3430223D02*
X101775477Y-3369747D01*
X101775477Y-3369747D02*
X101896430Y-3309271D01*
X101896430Y-3309271D02*
X102198811Y-3309271D01*
X102198811Y-3309271D02*
X102319763Y-3369747D01*
X102319763Y-3369747D02*
X102380239Y-3430223D01*
X102380239Y-3430223D02*
X102440716Y-3551175D01*
X102440716Y-3551175D02*
X102440716Y-3672128D01*
X102440716Y-3672128D02*
X102380239Y-3853556D01*
X102380239Y-3853556D02*
X101654525Y-4579271D01*
X101654525Y-4579271D02*
X102440716Y-4579271D01*
X102985001Y-4579271D02*
X102985001Y-3732604D01*
X102985001Y-3853556D02*
X103045478Y-3793080D01*
X103045478Y-3793080D02*
X103166430Y-3732604D01*
X103166430Y-3732604D02*
X103347859Y-3732604D01*
X103347859Y-3732604D02*
X103468811Y-3793080D01*
X103468811Y-3793080D02*
X103529287Y-3914033D01*
X103529287Y-3914033D02*
X103529287Y-4579271D01*
X103529287Y-3914033D02*
X103589763Y-3793080D01*
X103589763Y-3793080D02*
X103710716Y-3732604D01*
X103710716Y-3732604D02*
X103892144Y-3732604D01*
X103892144Y-3732604D02*
X104013097Y-3793080D01*
X104013097Y-3793080D02*
X104073573Y-3914033D01*
X104073573Y-3914033D02*
X104073573Y-4579271D01*
X104678334Y-4579271D02*
X104678334Y-3732604D01*
X104678334Y-3853556D02*
X104738811Y-3793080D01*
X104738811Y-3793080D02*
X104859763Y-3732604D01*
X104859763Y-3732604D02*
X105041192Y-3732604D01*
X105041192Y-3732604D02*
X105162144Y-3793080D01*
X105162144Y-3793080D02*
X105222620Y-3914033D01*
X105222620Y-3914033D02*
X105222620Y-4579271D01*
X105222620Y-3914033D02*
X105283096Y-3793080D01*
X105283096Y-3793080D02*
X105404049Y-3732604D01*
X105404049Y-3732604D02*
X105585477Y-3732604D01*
X105585477Y-3732604D02*
X105706430Y-3793080D01*
X105706430Y-3793080D02*
X105766906Y-3914033D01*
X105766906Y-3914033D02*
X105766906Y-4579271D01*
D10*
X28690476Y-16081009D02*
X28833333Y-16128628D01*
X28833333Y-16128628D02*
X28880952Y-16176247D01*
X28880952Y-16176247D02*
X28928571Y-16271485D01*
X28928571Y-16271485D02*
X28928571Y-16414342D01*
X28928571Y-16414342D02*
X28880952Y-16509580D01*
X28880952Y-16509580D02*
X28833333Y-16557200D01*
X28833333Y-16557200D02*
X28738095Y-16604819D01*
X28738095Y-16604819D02*
X28357143Y-16604819D01*
X28357143Y-16604819D02*
X28357143Y-15604819D01*
X28357143Y-15604819D02*
X28690476Y-15604819D01*
X28690476Y-15604819D02*
X28785714Y-15652438D01*
X28785714Y-15652438D02*
X28833333Y-15700057D01*
X28833333Y-15700057D02*
X28880952Y-15795295D01*
X28880952Y-15795295D02*
X28880952Y-15890533D01*
X28880952Y-15890533D02*
X28833333Y-15985771D01*
X28833333Y-15985771D02*
X28785714Y-16033390D01*
X28785714Y-16033390D02*
X28690476Y-16081009D01*
X28690476Y-16081009D02*
X28357143Y-16081009D01*
X29214286Y-15604819D02*
X29785714Y-15604819D01*
X29500000Y-16604819D02*
X29500000Y-15604819D01*
X30119048Y-16604819D02*
X30119048Y-15604819D01*
X30119048Y-15604819D02*
X30690476Y-16604819D01*
X30690476Y-16604819D02*
X30690476Y-15604819D01*
X31690476Y-16604819D02*
X31119048Y-16604819D01*
X31404762Y-16604819D02*
X31404762Y-15604819D01*
X31404762Y-15604819D02*
X31309524Y-15747676D01*
X31309524Y-15747676D02*
X31214286Y-15842914D01*
X31214286Y-15842914D02*
X31119048Y-15890533D01*
X28666667Y-8357200D02*
X28809524Y-8404819D01*
X28809524Y-8404819D02*
X29047619Y-8404819D01*
X29047619Y-8404819D02*
X29142857Y-8357200D01*
X29142857Y-8357200D02*
X29190476Y-8309580D01*
X29190476Y-8309580D02*
X29238095Y-8214342D01*
X29238095Y-8214342D02*
X29238095Y-8119104D01*
X29238095Y-8119104D02*
X29190476Y-8023866D01*
X29190476Y-8023866D02*
X29142857Y-7976247D01*
X29142857Y-7976247D02*
X29047619Y-7928628D01*
X29047619Y-7928628D02*
X28857143Y-7881009D01*
X28857143Y-7881009D02*
X28761905Y-7833390D01*
X28761905Y-7833390D02*
X28714286Y-7785771D01*
X28714286Y-7785771D02*
X28666667Y-7690533D01*
X28666667Y-7690533D02*
X28666667Y-7595295D01*
X28666667Y-7595295D02*
X28714286Y-7500057D01*
X28714286Y-7500057D02*
X28761905Y-7452438D01*
X28761905Y-7452438D02*
X28857143Y-7404819D01*
X28857143Y-7404819D02*
X29095238Y-7404819D01*
X29095238Y-7404819D02*
X29238095Y-7452438D01*
X29571429Y-7404819D02*
X29809524Y-8404819D01*
X29809524Y-8404819D02*
X30000000Y-7690533D01*
X30000000Y-7690533D02*
X30190476Y-8404819D01*
X30190476Y-8404819D02*
X30428572Y-7404819D01*
X31333333Y-8404819D02*
X30761905Y-8404819D01*
X31047619Y-8404819D02*
X31047619Y-7404819D01*
X31047619Y-7404819D02*
X30952381Y-7547676D01*
X30952381Y-7547676D02*
X30857143Y-7642914D01*
X30857143Y-7642914D02*
X30761905Y-7690533D01*
X28214285Y-46081009D02*
X28357142Y-46128628D01*
X28357142Y-46128628D02*
X28404761Y-46176247D01*
X28404761Y-46176247D02*
X28452380Y-46271485D01*
X28452380Y-46271485D02*
X28452380Y-46414342D01*
X28452380Y-46414342D02*
X28404761Y-46509580D01*
X28404761Y-46509580D02*
X28357142Y-46557200D01*
X28357142Y-46557200D02*
X28261904Y-46604819D01*
X28261904Y-46604819D02*
X27880952Y-46604819D01*
X27880952Y-46604819D02*
X27880952Y-45604819D01*
X27880952Y-45604819D02*
X28214285Y-45604819D01*
X28214285Y-45604819D02*
X28309523Y-45652438D01*
X28309523Y-45652438D02*
X28357142Y-45700057D01*
X28357142Y-45700057D02*
X28404761Y-45795295D01*
X28404761Y-45795295D02*
X28404761Y-45890533D01*
X28404761Y-45890533D02*
X28357142Y-45985771D01*
X28357142Y-45985771D02*
X28309523Y-46033390D01*
X28309523Y-46033390D02*
X28214285Y-46081009D01*
X28214285Y-46081009D02*
X27880952Y-46081009D01*
X28738095Y-45604819D02*
X29309523Y-45604819D01*
X29023809Y-46604819D02*
X29023809Y-45604819D01*
X29642857Y-46604819D02*
X29642857Y-45604819D01*
X29642857Y-45604819D02*
X30214285Y-46604819D01*
X30214285Y-46604819D02*
X30214285Y-45604819D01*
X31214285Y-46604819D02*
X30642857Y-46604819D01*
X30928571Y-46604819D02*
X30928571Y-45604819D01*
X30928571Y-45604819D02*
X30833333Y-45747676D01*
X30833333Y-45747676D02*
X30738095Y-45842914D01*
X30738095Y-45842914D02*
X30642857Y-45890533D01*
X31833333Y-45604819D02*
X31928571Y-45604819D01*
X31928571Y-45604819D02*
X32023809Y-45652438D01*
X32023809Y-45652438D02*
X32071428Y-45700057D01*
X32071428Y-45700057D02*
X32119047Y-45795295D01*
X32119047Y-45795295D02*
X32166666Y-45985771D01*
X32166666Y-45985771D02*
X32166666Y-46223866D01*
X32166666Y-46223866D02*
X32119047Y-46414342D01*
X32119047Y-46414342D02*
X32071428Y-46509580D01*
X32071428Y-46509580D02*
X32023809Y-46557200D01*
X32023809Y-46557200D02*
X31928571Y-46604819D01*
X31928571Y-46604819D02*
X31833333Y-46604819D01*
X31833333Y-46604819D02*
X31738095Y-46557200D01*
X31738095Y-46557200D02*
X31690476Y-46509580D01*
X31690476Y-46509580D02*
X31642857Y-46414342D01*
X31642857Y-46414342D02*
X31595238Y-46223866D01*
X31595238Y-46223866D02*
X31595238Y-45985771D01*
X31595238Y-45985771D02*
X31642857Y-45795295D01*
X31642857Y-45795295D02*
X31690476Y-45700057D01*
X31690476Y-45700057D02*
X31738095Y-45652438D01*
X31738095Y-45652438D02*
X31833333Y-45604819D01*
X28190476Y-38357200D02*
X28333333Y-38404819D01*
X28333333Y-38404819D02*
X28571428Y-38404819D01*
X28571428Y-38404819D02*
X28666666Y-38357200D01*
X28666666Y-38357200D02*
X28714285Y-38309580D01*
X28714285Y-38309580D02*
X28761904Y-38214342D01*
X28761904Y-38214342D02*
X28761904Y-38119104D01*
X28761904Y-38119104D02*
X28714285Y-38023866D01*
X28714285Y-38023866D02*
X28666666Y-37976247D01*
X28666666Y-37976247D02*
X28571428Y-37928628D01*
X28571428Y-37928628D02*
X28380952Y-37881009D01*
X28380952Y-37881009D02*
X28285714Y-37833390D01*
X28285714Y-37833390D02*
X28238095Y-37785771D01*
X28238095Y-37785771D02*
X28190476Y-37690533D01*
X28190476Y-37690533D02*
X28190476Y-37595295D01*
X28190476Y-37595295D02*
X28238095Y-37500057D01*
X28238095Y-37500057D02*
X28285714Y-37452438D01*
X28285714Y-37452438D02*
X28380952Y-37404819D01*
X28380952Y-37404819D02*
X28619047Y-37404819D01*
X28619047Y-37404819D02*
X28761904Y-37452438D01*
X29095238Y-37404819D02*
X29333333Y-38404819D01*
X29333333Y-38404819D02*
X29523809Y-37690533D01*
X29523809Y-37690533D02*
X29714285Y-38404819D01*
X29714285Y-38404819D02*
X29952381Y-37404819D01*
X30857142Y-38404819D02*
X30285714Y-38404819D01*
X30571428Y-38404819D02*
X30571428Y-37404819D01*
X30571428Y-37404819D02*
X30476190Y-37547676D01*
X30476190Y-37547676D02*
X30380952Y-37642914D01*
X30380952Y-37642914D02*
X30285714Y-37690533D01*
X31476190Y-37404819D02*
X31571428Y-37404819D01*
X31571428Y-37404819D02*
X31666666Y-37452438D01*
X31666666Y-37452438D02*
X31714285Y-37500057D01*
X31714285Y-37500057D02*
X31761904Y-37595295D01*
X31761904Y-37595295D02*
X31809523Y-37785771D01*
X31809523Y-37785771D02*
X31809523Y-38023866D01*
X31809523Y-38023866D02*
X31761904Y-38214342D01*
X31761904Y-38214342D02*
X31714285Y-38309580D01*
X31714285Y-38309580D02*
X31666666Y-38357200D01*
X31666666Y-38357200D02*
X31571428Y-38404819D01*
X31571428Y-38404819D02*
X31476190Y-38404819D01*
X31476190Y-38404819D02*
X31380952Y-38357200D01*
X31380952Y-38357200D02*
X31333333Y-38309580D01*
X31333333Y-38309580D02*
X31285714Y-38214342D01*
X31285714Y-38214342D02*
X31238095Y-38023866D01*
X31238095Y-38023866D02*
X31238095Y-37785771D01*
X31238095Y-37785771D02*
X31285714Y-37595295D01*
X31285714Y-37595295D02*
X31333333Y-37500057D01*
X31333333Y-37500057D02*
X31380952Y-37452438D01*
X31380952Y-37452438D02*
X31476190Y-37404819D01*
D11*
X-5766905Y-4579271D02*
X-5766905Y-3309271D01*
X-5766905Y-3309271D02*
X-5343571Y-4216414D01*
X-5343571Y-4216414D02*
X-4920238Y-3309271D01*
X-4920238Y-3309271D02*
X-4920238Y-4579271D01*
X-4134047Y-4579271D02*
X-4254999Y-4518795D01*
X-4254999Y-4518795D02*
X-4315476Y-4458318D01*
X-4315476Y-4458318D02*
X-4375952Y-4337366D01*
X-4375952Y-4337366D02*
X-4375952Y-3974509D01*
X-4375952Y-3974509D02*
X-4315476Y-3853556D01*
X-4315476Y-3853556D02*
X-4254999Y-3793080D01*
X-4254999Y-3793080D02*
X-4134047Y-3732604D01*
X-4134047Y-3732604D02*
X-3952618Y-3732604D01*
X-3952618Y-3732604D02*
X-3831666Y-3793080D01*
X-3831666Y-3793080D02*
X-3771190Y-3853556D01*
X-3771190Y-3853556D02*
X-3710714Y-3974509D01*
X-3710714Y-3974509D02*
X-3710714Y-4337366D01*
X-3710714Y-4337366D02*
X-3771190Y-4458318D01*
X-3771190Y-4458318D02*
X-3831666Y-4518795D01*
X-3831666Y-4518795D02*
X-3952618Y-4579271D01*
X-3952618Y-4579271D02*
X-4134047Y-4579271D01*
X-2622142Y-3732604D02*
X-2622142Y-4579271D01*
X-3166428Y-3732604D02*
X-3166428Y-4397842D01*
X-3166428Y-4397842D02*
X-3105951Y-4518795D01*
X-3105951Y-4518795D02*
X-2984999Y-4579271D01*
X-2984999Y-4579271D02*
X-2803570Y-4579271D01*
X-2803570Y-4579271D02*
X-2682618Y-4518795D01*
X-2682618Y-4518795D02*
X-2622142Y-4458318D01*
X-2017380Y-3732604D02*
X-2017380Y-4579271D01*
X-2017380Y-3853556D02*
X-1956903Y-3793080D01*
X-1956903Y-3793080D02*
X-1835951Y-3732604D01*
X-1835951Y-3732604D02*
X-1654522Y-3732604D01*
X-1654522Y-3732604D02*
X-1533570Y-3793080D01*
X-1533570Y-3793080D02*
X-1473094Y-3914033D01*
X-1473094Y-3914033D02*
X-1473094Y-4579271D01*
X-1049760Y-3732604D02*
X-565951Y-3732604D01*
X-868332Y-3309271D02*
X-868332Y-4397842D01*
X-868332Y-4397842D02*
X-807855Y-4518795D01*
X-807855Y-4518795D02*
X-686903Y-4579271D01*
X-686903Y-4579271D02*
X-565951Y-4579271D01*
X-142618Y-4579271D02*
X-142618Y-3732604D01*
X-142618Y-3309271D02*
X-203094Y-3369747D01*
X-203094Y-3369747D02*
X-142618Y-3430223D01*
X-142618Y-3430223D02*
X-82141Y-3369747D01*
X-82141Y-3369747D02*
X-142618Y-3309271D01*
X-142618Y-3309271D02*
X-142618Y-3430223D01*
X462143Y-3732604D02*
X462143Y-4579271D01*
X462143Y-3853556D02*
X522620Y-3793080D01*
X522620Y-3793080D02*
X643572Y-3732604D01*
X643572Y-3732604D02*
X825001Y-3732604D01*
X825001Y-3732604D02*
X945953Y-3793080D01*
X945953Y-3793080D02*
X1006429Y-3914033D01*
X1006429Y-3914033D02*
X1006429Y-4579271D01*
X2155477Y-3732604D02*
X2155477Y-4760699D01*
X2155477Y-4760699D02*
X2095001Y-4881652D01*
X2095001Y-4881652D02*
X2034525Y-4942128D01*
X2034525Y-4942128D02*
X1913572Y-5002604D01*
X1913572Y-5002604D02*
X1732144Y-5002604D01*
X1732144Y-5002604D02*
X1611191Y-4942128D01*
X2155477Y-4518795D02*
X2034525Y-4579271D01*
X2034525Y-4579271D02*
X1792620Y-4579271D01*
X1792620Y-4579271D02*
X1671668Y-4518795D01*
X1671668Y-4518795D02*
X1611191Y-4458318D01*
X1611191Y-4458318D02*
X1550715Y-4337366D01*
X1550715Y-4337366D02*
X1550715Y-3974509D01*
X1550715Y-3974509D02*
X1611191Y-3853556D01*
X1611191Y-3853556D02*
X1671668Y-3793080D01*
X1671668Y-3793080D02*
X1792620Y-3732604D01*
X1792620Y-3732604D02*
X2034525Y-3732604D01*
X2034525Y-3732604D02*
X2155477Y-3793080D01*
X2760239Y-4579271D02*
X2760239Y-3309271D01*
X2760239Y-3914033D02*
X3485954Y-3914033D01*
X3485954Y-4579271D02*
X3485954Y-3309271D01*
X4272144Y-4579271D02*
X4151192Y-4518795D01*
X4151192Y-4518795D02*
X4090715Y-4458318D01*
X4090715Y-4458318D02*
X4030239Y-4337366D01*
X4030239Y-4337366D02*
X4030239Y-3974509D01*
X4030239Y-3974509D02*
X4090715Y-3853556D01*
X4090715Y-3853556D02*
X4151192Y-3793080D01*
X4151192Y-3793080D02*
X4272144Y-3732604D01*
X4272144Y-3732604D02*
X4453573Y-3732604D01*
X4453573Y-3732604D02*
X4574525Y-3793080D01*
X4574525Y-3793080D02*
X4635001Y-3853556D01*
X4635001Y-3853556D02*
X4695477Y-3974509D01*
X4695477Y-3974509D02*
X4695477Y-4337366D01*
X4695477Y-4337366D02*
X4635001Y-4458318D01*
X4635001Y-4458318D02*
X4574525Y-4518795D01*
X4574525Y-4518795D02*
X4453573Y-4579271D01*
X4453573Y-4579271D02*
X4272144Y-4579271D01*
X5421192Y-4579271D02*
X5300240Y-4518795D01*
X5300240Y-4518795D02*
X5239763Y-4397842D01*
X5239763Y-4397842D02*
X5239763Y-3309271D01*
X6388811Y-4518795D02*
X6267859Y-4579271D01*
X6267859Y-4579271D02*
X6025954Y-4579271D01*
X6025954Y-4579271D02*
X5905001Y-4518795D01*
X5905001Y-4518795D02*
X5844525Y-4397842D01*
X5844525Y-4397842D02*
X5844525Y-3914033D01*
X5844525Y-3914033D02*
X5905001Y-3793080D01*
X5905001Y-3793080D02*
X6025954Y-3732604D01*
X6025954Y-3732604D02*
X6267859Y-3732604D01*
X6267859Y-3732604D02*
X6388811Y-3793080D01*
X6388811Y-3793080D02*
X6449287Y-3914033D01*
X6449287Y-3914033D02*
X6449287Y-4034985D01*
X6449287Y-4034985D02*
X5844525Y-4155937D01*
X6691192Y-4700223D02*
X7658811Y-4700223D01*
X7840239Y-3309271D02*
X8626430Y-3309271D01*
X8626430Y-3309271D02*
X8203096Y-3793080D01*
X8203096Y-3793080D02*
X8384525Y-3793080D01*
X8384525Y-3793080D02*
X8505477Y-3853556D01*
X8505477Y-3853556D02*
X8565953Y-3914033D01*
X8565953Y-3914033D02*
X8626430Y-4034985D01*
X8626430Y-4034985D02*
X8626430Y-4337366D01*
X8626430Y-4337366D02*
X8565953Y-4458318D01*
X8565953Y-4458318D02*
X8505477Y-4518795D01*
X8505477Y-4518795D02*
X8384525Y-4579271D01*
X8384525Y-4579271D02*
X8021668Y-4579271D01*
X8021668Y-4579271D02*
X7900715Y-4518795D01*
X7900715Y-4518795D02*
X7840239Y-4458318D01*
X9170715Y-4458318D02*
X9231192Y-4518795D01*
X9231192Y-4518795D02*
X9170715Y-4579271D01*
X9170715Y-4579271D02*
X9110239Y-4518795D01*
X9110239Y-4518795D02*
X9170715Y-4458318D01*
X9170715Y-4458318D02*
X9170715Y-4579271D01*
X9715001Y-3430223D02*
X9775477Y-3369747D01*
X9775477Y-3369747D02*
X9896430Y-3309271D01*
X9896430Y-3309271D02*
X10198811Y-3309271D01*
X10198811Y-3309271D02*
X10319763Y-3369747D01*
X10319763Y-3369747D02*
X10380239Y-3430223D01*
X10380239Y-3430223D02*
X10440716Y-3551175D01*
X10440716Y-3551175D02*
X10440716Y-3672128D01*
X10440716Y-3672128D02*
X10380239Y-3853556D01*
X10380239Y-3853556D02*
X9654525Y-4579271D01*
X9654525Y-4579271D02*
X10440716Y-4579271D01*
X10985001Y-4579271D02*
X10985001Y-3732604D01*
X10985001Y-3853556D02*
X11045478Y-3793080D01*
X11045478Y-3793080D02*
X11166430Y-3732604D01*
X11166430Y-3732604D02*
X11347859Y-3732604D01*
X11347859Y-3732604D02*
X11468811Y-3793080D01*
X11468811Y-3793080D02*
X11529287Y-3914033D01*
X11529287Y-3914033D02*
X11529287Y-4579271D01*
X11529287Y-3914033D02*
X11589763Y-3793080D01*
X11589763Y-3793080D02*
X11710716Y-3732604D01*
X11710716Y-3732604D02*
X11892144Y-3732604D01*
X11892144Y-3732604D02*
X12013097Y-3793080D01*
X12013097Y-3793080D02*
X12073573Y-3914033D01*
X12073573Y-3914033D02*
X12073573Y-4579271D01*
X12678334Y-4579271D02*
X12678334Y-3732604D01*
X12678334Y-3853556D02*
X12738811Y-3793080D01*
X12738811Y-3793080D02*
X12859763Y-3732604D01*
X12859763Y-3732604D02*
X13041192Y-3732604D01*
X13041192Y-3732604D02*
X13162144Y-3793080D01*
X13162144Y-3793080D02*
X13222620Y-3914033D01*
X13222620Y-3914033D02*
X13222620Y-4579271D01*
X13222620Y-3914033D02*
X13283096Y-3793080D01*
X13283096Y-3793080D02*
X13404049Y-3732604D01*
X13404049Y-3732604D02*
X13585477Y-3732604D01*
X13585477Y-3732604D02*
X13706430Y-3793080D01*
X13706430Y-3793080D02*
X13766906Y-3914033D01*
X13766906Y-3914033D02*
X13766906Y-4579271D01*
D10*
X28690476Y-36081009D02*
X28833333Y-36128628D01*
X28833333Y-36128628D02*
X28880952Y-36176247D01*
X28880952Y-36176247D02*
X28928571Y-36271485D01*
X28928571Y-36271485D02*
X28928571Y-36414342D01*
X28928571Y-36414342D02*
X28880952Y-36509580D01*
X28880952Y-36509580D02*
X28833333Y-36557200D01*
X28833333Y-36557200D02*
X28738095Y-36604819D01*
X28738095Y-36604819D02*
X28357143Y-36604819D01*
X28357143Y-36604819D02*
X28357143Y-35604819D01*
X28357143Y-35604819D02*
X28690476Y-35604819D01*
X28690476Y-35604819D02*
X28785714Y-35652438D01*
X28785714Y-35652438D02*
X28833333Y-35700057D01*
X28833333Y-35700057D02*
X28880952Y-35795295D01*
X28880952Y-35795295D02*
X28880952Y-35890533D01*
X28880952Y-35890533D02*
X28833333Y-35985771D01*
X28833333Y-35985771D02*
X28785714Y-36033390D01*
X28785714Y-36033390D02*
X28690476Y-36081009D01*
X28690476Y-36081009D02*
X28357143Y-36081009D01*
X29214286Y-35604819D02*
X29785714Y-35604819D01*
X29500000Y-36604819D02*
X29500000Y-35604819D01*
X30119048Y-36604819D02*
X30119048Y-35604819D01*
X30119048Y-35604819D02*
X30690476Y-36604819D01*
X30690476Y-36604819D02*
X30690476Y-35604819D01*
X31071429Y-35604819D02*
X31738095Y-35604819D01*
X31738095Y-35604819D02*
X31309524Y-36604819D01*
X28666667Y-28357200D02*
X28809524Y-28404819D01*
X28809524Y-28404819D02*
X29047619Y-28404819D01*
X29047619Y-28404819D02*
X29142857Y-28357200D01*
X29142857Y-28357200D02*
X29190476Y-28309580D01*
X29190476Y-28309580D02*
X29238095Y-28214342D01*
X29238095Y-28214342D02*
X29238095Y-28119104D01*
X29238095Y-28119104D02*
X29190476Y-28023866D01*
X29190476Y-28023866D02*
X29142857Y-27976247D01*
X29142857Y-27976247D02*
X29047619Y-27928628D01*
X29047619Y-27928628D02*
X28857143Y-27881009D01*
X28857143Y-27881009D02*
X28761905Y-27833390D01*
X28761905Y-27833390D02*
X28714286Y-27785771D01*
X28714286Y-27785771D02*
X28666667Y-27690533D01*
X28666667Y-27690533D02*
X28666667Y-27595295D01*
X28666667Y-27595295D02*
X28714286Y-27500057D01*
X28714286Y-27500057D02*
X28761905Y-27452438D01*
X28761905Y-27452438D02*
X28857143Y-27404819D01*
X28857143Y-27404819D02*
X29095238Y-27404819D01*
X29095238Y-27404819D02*
X29238095Y-27452438D01*
X29571429Y-27404819D02*
X29809524Y-28404819D01*
X29809524Y-28404819D02*
X30000000Y-27690533D01*
X30000000Y-27690533D02*
X30190476Y-28404819D01*
X30190476Y-28404819D02*
X30428572Y-27404819D01*
X30714286Y-27404819D02*
X31380952Y-27404819D01*
X31380952Y-27404819D02*
X30952381Y-28404819D01*
X48690476Y-26081009D02*
X48833333Y-26128628D01*
X48833333Y-26128628D02*
X48880952Y-26176247D01*
X48880952Y-26176247D02*
X48928571Y-26271485D01*
X48928571Y-26271485D02*
X48928571Y-26414342D01*
X48928571Y-26414342D02*
X48880952Y-26509580D01*
X48880952Y-26509580D02*
X48833333Y-26557200D01*
X48833333Y-26557200D02*
X48738095Y-26604819D01*
X48738095Y-26604819D02*
X48357143Y-26604819D01*
X48357143Y-26604819D02*
X48357143Y-25604819D01*
X48357143Y-25604819D02*
X48690476Y-25604819D01*
X48690476Y-25604819D02*
X48785714Y-25652438D01*
X48785714Y-25652438D02*
X48833333Y-25700057D01*
X48833333Y-25700057D02*
X48880952Y-25795295D01*
X48880952Y-25795295D02*
X48880952Y-25890533D01*
X48880952Y-25890533D02*
X48833333Y-25985771D01*
X48833333Y-25985771D02*
X48785714Y-26033390D01*
X48785714Y-26033390D02*
X48690476Y-26081009D01*
X48690476Y-26081009D02*
X48357143Y-26081009D01*
X49214286Y-25604819D02*
X49785714Y-25604819D01*
X49500000Y-26604819D02*
X49500000Y-25604819D01*
X50119048Y-26604819D02*
X50119048Y-25604819D01*
X50119048Y-25604819D02*
X50690476Y-26604819D01*
X50690476Y-26604819D02*
X50690476Y-25604819D01*
X51642857Y-25604819D02*
X51166667Y-25604819D01*
X51166667Y-25604819D02*
X51119048Y-26081009D01*
X51119048Y-26081009D02*
X51166667Y-26033390D01*
X51166667Y-26033390D02*
X51261905Y-25985771D01*
X51261905Y-25985771D02*
X51500000Y-25985771D01*
X51500000Y-25985771D02*
X51595238Y-26033390D01*
X51595238Y-26033390D02*
X51642857Y-26081009D01*
X51642857Y-26081009D02*
X51690476Y-26176247D01*
X51690476Y-26176247D02*
X51690476Y-26414342D01*
X51690476Y-26414342D02*
X51642857Y-26509580D01*
X51642857Y-26509580D02*
X51595238Y-26557200D01*
X51595238Y-26557200D02*
X51500000Y-26604819D01*
X51500000Y-26604819D02*
X51261905Y-26604819D01*
X51261905Y-26604819D02*
X51166667Y-26557200D01*
X51166667Y-26557200D02*
X51119048Y-26509580D01*
X48666667Y-18357200D02*
X48809524Y-18404819D01*
X48809524Y-18404819D02*
X49047619Y-18404819D01*
X49047619Y-18404819D02*
X49142857Y-18357200D01*
X49142857Y-18357200D02*
X49190476Y-18309580D01*
X49190476Y-18309580D02*
X49238095Y-18214342D01*
X49238095Y-18214342D02*
X49238095Y-18119104D01*
X49238095Y-18119104D02*
X49190476Y-18023866D01*
X49190476Y-18023866D02*
X49142857Y-17976247D01*
X49142857Y-17976247D02*
X49047619Y-17928628D01*
X49047619Y-17928628D02*
X48857143Y-17881009D01*
X48857143Y-17881009D02*
X48761905Y-17833390D01*
X48761905Y-17833390D02*
X48714286Y-17785771D01*
X48714286Y-17785771D02*
X48666667Y-17690533D01*
X48666667Y-17690533D02*
X48666667Y-17595295D01*
X48666667Y-17595295D02*
X48714286Y-17500057D01*
X48714286Y-17500057D02*
X48761905Y-17452438D01*
X48761905Y-17452438D02*
X48857143Y-17404819D01*
X48857143Y-17404819D02*
X49095238Y-17404819D01*
X49095238Y-17404819D02*
X49238095Y-17452438D01*
X49571429Y-17404819D02*
X49809524Y-18404819D01*
X49809524Y-18404819D02*
X50000000Y-17690533D01*
X50000000Y-17690533D02*
X50190476Y-18404819D01*
X50190476Y-18404819D02*
X50428572Y-17404819D01*
X51285714Y-17404819D02*
X50809524Y-17404819D01*
X50809524Y-17404819D02*
X50761905Y-17881009D01*
X50761905Y-17881009D02*
X50809524Y-17833390D01*
X50809524Y-17833390D02*
X50904762Y-17785771D01*
X50904762Y-17785771D02*
X51142857Y-17785771D01*
X51142857Y-17785771D02*
X51238095Y-17833390D01*
X51238095Y-17833390D02*
X51285714Y-17881009D01*
X51285714Y-17881009D02*
X51333333Y-17976247D01*
X51333333Y-17976247D02*
X51333333Y-18214342D01*
X51333333Y-18214342D02*
X51285714Y-18309580D01*
X51285714Y-18309580D02*
X51238095Y-18357200D01*
X51238095Y-18357200D02*
X51142857Y-18404819D01*
X51142857Y-18404819D02*
X50904762Y-18404819D01*
X50904762Y-18404819D02*
X50809524Y-18357200D01*
X50809524Y-18357200D02*
X50761905Y-18309580D01*
X48690476Y-16081009D02*
X48833333Y-16128628D01*
X48833333Y-16128628D02*
X48880952Y-16176247D01*
X48880952Y-16176247D02*
X48928571Y-16271485D01*
X48928571Y-16271485D02*
X48928571Y-16414342D01*
X48928571Y-16414342D02*
X48880952Y-16509580D01*
X48880952Y-16509580D02*
X48833333Y-16557200D01*
X48833333Y-16557200D02*
X48738095Y-16604819D01*
X48738095Y-16604819D02*
X48357143Y-16604819D01*
X48357143Y-16604819D02*
X48357143Y-15604819D01*
X48357143Y-15604819D02*
X48690476Y-15604819D01*
X48690476Y-15604819D02*
X48785714Y-15652438D01*
X48785714Y-15652438D02*
X48833333Y-15700057D01*
X48833333Y-15700057D02*
X48880952Y-15795295D01*
X48880952Y-15795295D02*
X48880952Y-15890533D01*
X48880952Y-15890533D02*
X48833333Y-15985771D01*
X48833333Y-15985771D02*
X48785714Y-16033390D01*
X48785714Y-16033390D02*
X48690476Y-16081009D01*
X48690476Y-16081009D02*
X48357143Y-16081009D01*
X49214286Y-15604819D02*
X49785714Y-15604819D01*
X49500000Y-16604819D02*
X49500000Y-15604819D01*
X50119048Y-16604819D02*
X50119048Y-15604819D01*
X50119048Y-15604819D02*
X50690476Y-16604819D01*
X50690476Y-16604819D02*
X50690476Y-15604819D01*
X51119048Y-15700057D02*
X51166667Y-15652438D01*
X51166667Y-15652438D02*
X51261905Y-15604819D01*
X51261905Y-15604819D02*
X51500000Y-15604819D01*
X51500000Y-15604819D02*
X51595238Y-15652438D01*
X51595238Y-15652438D02*
X51642857Y-15700057D01*
X51642857Y-15700057D02*
X51690476Y-15795295D01*
X51690476Y-15795295D02*
X51690476Y-15890533D01*
X51690476Y-15890533D02*
X51642857Y-16033390D01*
X51642857Y-16033390D02*
X51071429Y-16604819D01*
X51071429Y-16604819D02*
X51690476Y-16604819D01*
X48666667Y-8357200D02*
X48809524Y-8404819D01*
X48809524Y-8404819D02*
X49047619Y-8404819D01*
X49047619Y-8404819D02*
X49142857Y-8357200D01*
X49142857Y-8357200D02*
X49190476Y-8309580D01*
X49190476Y-8309580D02*
X49238095Y-8214342D01*
X49238095Y-8214342D02*
X49238095Y-8119104D01*
X49238095Y-8119104D02*
X49190476Y-8023866D01*
X49190476Y-8023866D02*
X49142857Y-7976247D01*
X49142857Y-7976247D02*
X49047619Y-7928628D01*
X49047619Y-7928628D02*
X48857143Y-7881009D01*
X48857143Y-7881009D02*
X48761905Y-7833390D01*
X48761905Y-7833390D02*
X48714286Y-7785771D01*
X48714286Y-7785771D02*
X48666667Y-7690533D01*
X48666667Y-7690533D02*
X48666667Y-7595295D01*
X48666667Y-7595295D02*
X48714286Y-7500057D01*
X48714286Y-7500057D02*
X48761905Y-7452438D01*
X48761905Y-7452438D02*
X48857143Y-7404819D01*
X48857143Y-7404819D02*
X49095238Y-7404819D01*
X49095238Y-7404819D02*
X49238095Y-7452438D01*
X49571429Y-7404819D02*
X49809524Y-8404819D01*
X49809524Y-8404819D02*
X50000000Y-7690533D01*
X50000000Y-7690533D02*
X50190476Y-8404819D01*
X50190476Y-8404819D02*
X50428572Y-7404819D01*
X50761905Y-7500057D02*
X50809524Y-7452438D01*
X50809524Y-7452438D02*
X50904762Y-7404819D01*
X50904762Y-7404819D02*
X51142857Y-7404819D01*
X51142857Y-7404819D02*
X51238095Y-7452438D01*
X51238095Y-7452438D02*
X51285714Y-7500057D01*
X51285714Y-7500057D02*
X51333333Y-7595295D01*
X51333333Y-7595295D02*
X51333333Y-7690533D01*
X51333333Y-7690533D02*
X51285714Y-7833390D01*
X51285714Y-7833390D02*
X50714286Y-8404819D01*
X50714286Y-8404819D02*
X51333333Y-8404819D01*
X54523809Y-59057200D02*
X54666666Y-59104819D01*
X54666666Y-59104819D02*
X54904761Y-59104819D01*
X54904761Y-59104819D02*
X54999999Y-59057200D01*
X54999999Y-59057200D02*
X55047618Y-59009580D01*
X55047618Y-59009580D02*
X55095237Y-58914342D01*
X55095237Y-58914342D02*
X55095237Y-58819104D01*
X55095237Y-58819104D02*
X55047618Y-58723866D01*
X55047618Y-58723866D02*
X54999999Y-58676247D01*
X54999999Y-58676247D02*
X54904761Y-58628628D01*
X54904761Y-58628628D02*
X54714285Y-58581009D01*
X54714285Y-58581009D02*
X54619047Y-58533390D01*
X54619047Y-58533390D02*
X54571428Y-58485771D01*
X54571428Y-58485771D02*
X54523809Y-58390533D01*
X54523809Y-58390533D02*
X54523809Y-58295295D01*
X54523809Y-58295295D02*
X54571428Y-58200057D01*
X54571428Y-58200057D02*
X54619047Y-58152438D01*
X54619047Y-58152438D02*
X54714285Y-58104819D01*
X54714285Y-58104819D02*
X54952380Y-58104819D01*
X54952380Y-58104819D02*
X55095237Y-58152438D01*
X55380952Y-58104819D02*
X55952380Y-58104819D01*
X55666666Y-59104819D02*
X55666666Y-58104819D01*
X56238095Y-58819104D02*
X56714285Y-58819104D01*
X56142857Y-59104819D02*
X56476190Y-58104819D01*
X56476190Y-58104819D02*
X56809523Y-59104819D01*
X57000000Y-58104819D02*
X57571428Y-58104819D01*
X57285714Y-59104819D02*
X57285714Y-58104819D01*
X57904762Y-58104819D02*
X57904762Y-58914342D01*
X57904762Y-58914342D02*
X57952381Y-59009580D01*
X57952381Y-59009580D02*
X58000000Y-59057200D01*
X58000000Y-59057200D02*
X58095238Y-59104819D01*
X58095238Y-59104819D02*
X58285714Y-59104819D01*
X58285714Y-59104819D02*
X58380952Y-59057200D01*
X58380952Y-59057200D02*
X58428571Y-59009580D01*
X58428571Y-59009580D02*
X58476190Y-58914342D01*
X58476190Y-58914342D02*
X58476190Y-58104819D01*
X58904762Y-59057200D02*
X59047619Y-59104819D01*
X59047619Y-59104819D02*
X59285714Y-59104819D01*
X59285714Y-59104819D02*
X59380952Y-59057200D01*
X59380952Y-59057200D02*
X59428571Y-59009580D01*
X59428571Y-59009580D02*
X59476190Y-58914342D01*
X59476190Y-58914342D02*
X59476190Y-58819104D01*
X59476190Y-58819104D02*
X59428571Y-58723866D01*
X59428571Y-58723866D02*
X59380952Y-58676247D01*
X59380952Y-58676247D02*
X59285714Y-58628628D01*
X59285714Y-58628628D02*
X59095238Y-58581009D01*
X59095238Y-58581009D02*
X59000000Y-58533390D01*
X59000000Y-58533390D02*
X58952381Y-58485771D01*
X58952381Y-58485771D02*
X58904762Y-58390533D01*
X58904762Y-58390533D02*
X58904762Y-58295295D01*
X58904762Y-58295295D02*
X58952381Y-58200057D01*
X58952381Y-58200057D02*
X59000000Y-58152438D01*
X59000000Y-58152438D02*
X59095238Y-58104819D01*
X59095238Y-58104819D02*
X59333333Y-58104819D01*
X59333333Y-58104819D02*
X59476190Y-58152438D01*
D12*
X56440476Y-57227149D02*
X56202381Y-57227149D01*
X56202381Y-57227149D02*
X56202381Y-56727149D01*
X56607143Y-56965244D02*
X56773810Y-56965244D01*
X56845238Y-57227149D02*
X56607143Y-57227149D01*
X56607143Y-57227149D02*
X56607143Y-56727149D01*
X56607143Y-56727149D02*
X56845238Y-56727149D01*
X57059524Y-57227149D02*
X57059524Y-56727149D01*
X57059524Y-56727149D02*
X57178572Y-56727149D01*
X57178572Y-56727149D02*
X57250000Y-56750959D01*
X57250000Y-56750959D02*
X57297619Y-56798578D01*
X57297619Y-56798578D02*
X57321429Y-56846197D01*
X57321429Y-56846197D02*
X57345238Y-56941435D01*
X57345238Y-56941435D02*
X57345238Y-57012863D01*
X57345238Y-57012863D02*
X57321429Y-57108101D01*
X57321429Y-57108101D02*
X57297619Y-57155720D01*
X57297619Y-57155720D02*
X57250000Y-57203340D01*
X57250000Y-57203340D02*
X57178572Y-57227149D01*
X57178572Y-57227149D02*
X57059524Y-57227149D01*
X57821429Y-57227149D02*
X57535715Y-57227149D01*
X57678572Y-57227149D02*
X57678572Y-56727149D01*
X57678572Y-56727149D02*
X57630953Y-56798578D01*
X57630953Y-56798578D02*
X57583334Y-56846197D01*
X57583334Y-56846197D02*
X57535715Y-56870006D01*
D10*
X68690476Y-16081009D02*
X68833333Y-16128628D01*
X68833333Y-16128628D02*
X68880952Y-16176247D01*
X68880952Y-16176247D02*
X68928571Y-16271485D01*
X68928571Y-16271485D02*
X68928571Y-16414342D01*
X68928571Y-16414342D02*
X68880952Y-16509580D01*
X68880952Y-16509580D02*
X68833333Y-16557200D01*
X68833333Y-16557200D02*
X68738095Y-16604819D01*
X68738095Y-16604819D02*
X68357143Y-16604819D01*
X68357143Y-16604819D02*
X68357143Y-15604819D01*
X68357143Y-15604819D02*
X68690476Y-15604819D01*
X68690476Y-15604819D02*
X68785714Y-15652438D01*
X68785714Y-15652438D02*
X68833333Y-15700057D01*
X68833333Y-15700057D02*
X68880952Y-15795295D01*
X68880952Y-15795295D02*
X68880952Y-15890533D01*
X68880952Y-15890533D02*
X68833333Y-15985771D01*
X68833333Y-15985771D02*
X68785714Y-16033390D01*
X68785714Y-16033390D02*
X68690476Y-16081009D01*
X68690476Y-16081009D02*
X68357143Y-16081009D01*
X69214286Y-15604819D02*
X69785714Y-15604819D01*
X69500000Y-16604819D02*
X69500000Y-15604819D01*
X70119048Y-16604819D02*
X70119048Y-15604819D01*
X70119048Y-15604819D02*
X70690476Y-16604819D01*
X70690476Y-16604819D02*
X70690476Y-15604819D01*
X71071429Y-15604819D02*
X71690476Y-15604819D01*
X71690476Y-15604819D02*
X71357143Y-15985771D01*
X71357143Y-15985771D02*
X71500000Y-15985771D01*
X71500000Y-15985771D02*
X71595238Y-16033390D01*
X71595238Y-16033390D02*
X71642857Y-16081009D01*
X71642857Y-16081009D02*
X71690476Y-16176247D01*
X71690476Y-16176247D02*
X71690476Y-16414342D01*
X71690476Y-16414342D02*
X71642857Y-16509580D01*
X71642857Y-16509580D02*
X71595238Y-16557200D01*
X71595238Y-16557200D02*
X71500000Y-16604819D01*
X71500000Y-16604819D02*
X71214286Y-16604819D01*
X71214286Y-16604819D02*
X71119048Y-16557200D01*
X71119048Y-16557200D02*
X71071429Y-16509580D01*
X68666667Y-8357200D02*
X68809524Y-8404819D01*
X68809524Y-8404819D02*
X69047619Y-8404819D01*
X69047619Y-8404819D02*
X69142857Y-8357200D01*
X69142857Y-8357200D02*
X69190476Y-8309580D01*
X69190476Y-8309580D02*
X69238095Y-8214342D01*
X69238095Y-8214342D02*
X69238095Y-8119104D01*
X69238095Y-8119104D02*
X69190476Y-8023866D01*
X69190476Y-8023866D02*
X69142857Y-7976247D01*
X69142857Y-7976247D02*
X69047619Y-7928628D01*
X69047619Y-7928628D02*
X68857143Y-7881009D01*
X68857143Y-7881009D02*
X68761905Y-7833390D01*
X68761905Y-7833390D02*
X68714286Y-7785771D01*
X68714286Y-7785771D02*
X68666667Y-7690533D01*
X68666667Y-7690533D02*
X68666667Y-7595295D01*
X68666667Y-7595295D02*
X68714286Y-7500057D01*
X68714286Y-7500057D02*
X68761905Y-7452438D01*
X68761905Y-7452438D02*
X68857143Y-7404819D01*
X68857143Y-7404819D02*
X69095238Y-7404819D01*
X69095238Y-7404819D02*
X69238095Y-7452438D01*
X69571429Y-7404819D02*
X69809524Y-8404819D01*
X69809524Y-8404819D02*
X70000000Y-7690533D01*
X70000000Y-7690533D02*
X70190476Y-8404819D01*
X70190476Y-8404819D02*
X70428572Y-7404819D01*
X70714286Y-7404819D02*
X71333333Y-7404819D01*
X71333333Y-7404819D02*
X71000000Y-7785771D01*
X71000000Y-7785771D02*
X71142857Y-7785771D01*
X71142857Y-7785771D02*
X71238095Y-7833390D01*
X71238095Y-7833390D02*
X71285714Y-7881009D01*
X71285714Y-7881009D02*
X71333333Y-7976247D01*
X71333333Y-7976247D02*
X71333333Y-8214342D01*
X71333333Y-8214342D02*
X71285714Y-8309580D01*
X71285714Y-8309580D02*
X71238095Y-8357200D01*
X71238095Y-8357200D02*
X71142857Y-8404819D01*
X71142857Y-8404819D02*
X70857143Y-8404819D01*
X70857143Y-8404819D02*
X70761905Y-8357200D01*
X70761905Y-8357200D02*
X70714286Y-8309580D01*
X68214285Y-46081009D02*
X68357142Y-46128628D01*
X68357142Y-46128628D02*
X68404761Y-46176247D01*
X68404761Y-46176247D02*
X68452380Y-46271485D01*
X68452380Y-46271485D02*
X68452380Y-46414342D01*
X68452380Y-46414342D02*
X68404761Y-46509580D01*
X68404761Y-46509580D02*
X68357142Y-46557200D01*
X68357142Y-46557200D02*
X68261904Y-46604819D01*
X68261904Y-46604819D02*
X67880952Y-46604819D01*
X67880952Y-46604819D02*
X67880952Y-45604819D01*
X67880952Y-45604819D02*
X68214285Y-45604819D01*
X68214285Y-45604819D02*
X68309523Y-45652438D01*
X68309523Y-45652438D02*
X68357142Y-45700057D01*
X68357142Y-45700057D02*
X68404761Y-45795295D01*
X68404761Y-45795295D02*
X68404761Y-45890533D01*
X68404761Y-45890533D02*
X68357142Y-45985771D01*
X68357142Y-45985771D02*
X68309523Y-46033390D01*
X68309523Y-46033390D02*
X68214285Y-46081009D01*
X68214285Y-46081009D02*
X67880952Y-46081009D01*
X68738095Y-45604819D02*
X69309523Y-45604819D01*
X69023809Y-46604819D02*
X69023809Y-45604819D01*
X69642857Y-46604819D02*
X69642857Y-45604819D01*
X69642857Y-45604819D02*
X70214285Y-46604819D01*
X70214285Y-46604819D02*
X70214285Y-45604819D01*
X71214285Y-46604819D02*
X70642857Y-46604819D01*
X70928571Y-46604819D02*
X70928571Y-45604819D01*
X70928571Y-45604819D02*
X70833333Y-45747676D01*
X70833333Y-45747676D02*
X70738095Y-45842914D01*
X70738095Y-45842914D02*
X70642857Y-45890533D01*
X71595238Y-45700057D02*
X71642857Y-45652438D01*
X71642857Y-45652438D02*
X71738095Y-45604819D01*
X71738095Y-45604819D02*
X71976190Y-45604819D01*
X71976190Y-45604819D02*
X72071428Y-45652438D01*
X72071428Y-45652438D02*
X72119047Y-45700057D01*
X72119047Y-45700057D02*
X72166666Y-45795295D01*
X72166666Y-45795295D02*
X72166666Y-45890533D01*
X72166666Y-45890533D02*
X72119047Y-46033390D01*
X72119047Y-46033390D02*
X71547619Y-46604819D01*
X71547619Y-46604819D02*
X72166666Y-46604819D01*
X68190476Y-38357200D02*
X68333333Y-38404819D01*
X68333333Y-38404819D02*
X68571428Y-38404819D01*
X68571428Y-38404819D02*
X68666666Y-38357200D01*
X68666666Y-38357200D02*
X68714285Y-38309580D01*
X68714285Y-38309580D02*
X68761904Y-38214342D01*
X68761904Y-38214342D02*
X68761904Y-38119104D01*
X68761904Y-38119104D02*
X68714285Y-38023866D01*
X68714285Y-38023866D02*
X68666666Y-37976247D01*
X68666666Y-37976247D02*
X68571428Y-37928628D01*
X68571428Y-37928628D02*
X68380952Y-37881009D01*
X68380952Y-37881009D02*
X68285714Y-37833390D01*
X68285714Y-37833390D02*
X68238095Y-37785771D01*
X68238095Y-37785771D02*
X68190476Y-37690533D01*
X68190476Y-37690533D02*
X68190476Y-37595295D01*
X68190476Y-37595295D02*
X68238095Y-37500057D01*
X68238095Y-37500057D02*
X68285714Y-37452438D01*
X68285714Y-37452438D02*
X68380952Y-37404819D01*
X68380952Y-37404819D02*
X68619047Y-37404819D01*
X68619047Y-37404819D02*
X68761904Y-37452438D01*
X69095238Y-37404819D02*
X69333333Y-38404819D01*
X69333333Y-38404819D02*
X69523809Y-37690533D01*
X69523809Y-37690533D02*
X69714285Y-38404819D01*
X69714285Y-38404819D02*
X69952381Y-37404819D01*
X70857142Y-38404819D02*
X70285714Y-38404819D01*
X70571428Y-38404819D02*
X70571428Y-37404819D01*
X70571428Y-37404819D02*
X70476190Y-37547676D01*
X70476190Y-37547676D02*
X70380952Y-37642914D01*
X70380952Y-37642914D02*
X70285714Y-37690533D01*
X71238095Y-37500057D02*
X71285714Y-37452438D01*
X71285714Y-37452438D02*
X71380952Y-37404819D01*
X71380952Y-37404819D02*
X71619047Y-37404819D01*
X71619047Y-37404819D02*
X71714285Y-37452438D01*
X71714285Y-37452438D02*
X71761904Y-37500057D01*
X71761904Y-37500057D02*
X71809523Y-37595295D01*
X71809523Y-37595295D02*
X71809523Y-37690533D01*
X71809523Y-37690533D02*
X71761904Y-37833390D01*
X71761904Y-37833390D02*
X71190476Y-38404819D01*
X71190476Y-38404819D02*
X71809523Y-38404819D01*
X68690476Y-36081009D02*
X68833333Y-36128628D01*
X68833333Y-36128628D02*
X68880952Y-36176247D01*
X68880952Y-36176247D02*
X68928571Y-36271485D01*
X68928571Y-36271485D02*
X68928571Y-36414342D01*
X68928571Y-36414342D02*
X68880952Y-36509580D01*
X68880952Y-36509580D02*
X68833333Y-36557200D01*
X68833333Y-36557200D02*
X68738095Y-36604819D01*
X68738095Y-36604819D02*
X68357143Y-36604819D01*
X68357143Y-36604819D02*
X68357143Y-35604819D01*
X68357143Y-35604819D02*
X68690476Y-35604819D01*
X68690476Y-35604819D02*
X68785714Y-35652438D01*
X68785714Y-35652438D02*
X68833333Y-35700057D01*
X68833333Y-35700057D02*
X68880952Y-35795295D01*
X68880952Y-35795295D02*
X68880952Y-35890533D01*
X68880952Y-35890533D02*
X68833333Y-35985771D01*
X68833333Y-35985771D02*
X68785714Y-36033390D01*
X68785714Y-36033390D02*
X68690476Y-36081009D01*
X68690476Y-36081009D02*
X68357143Y-36081009D01*
X69214286Y-35604819D02*
X69785714Y-35604819D01*
X69500000Y-36604819D02*
X69500000Y-35604819D01*
X70119048Y-36604819D02*
X70119048Y-35604819D01*
X70119048Y-35604819D02*
X70690476Y-36604819D01*
X70690476Y-36604819D02*
X70690476Y-35604819D01*
X71214286Y-36604819D02*
X71404762Y-36604819D01*
X71404762Y-36604819D02*
X71500000Y-36557200D01*
X71500000Y-36557200D02*
X71547619Y-36509580D01*
X71547619Y-36509580D02*
X71642857Y-36366723D01*
X71642857Y-36366723D02*
X71690476Y-36176247D01*
X71690476Y-36176247D02*
X71690476Y-35795295D01*
X71690476Y-35795295D02*
X71642857Y-35700057D01*
X71642857Y-35700057D02*
X71595238Y-35652438D01*
X71595238Y-35652438D02*
X71500000Y-35604819D01*
X71500000Y-35604819D02*
X71309524Y-35604819D01*
X71309524Y-35604819D02*
X71214286Y-35652438D01*
X71214286Y-35652438D02*
X71166667Y-35700057D01*
X71166667Y-35700057D02*
X71119048Y-35795295D01*
X71119048Y-35795295D02*
X71119048Y-36033390D01*
X71119048Y-36033390D02*
X71166667Y-36128628D01*
X71166667Y-36128628D02*
X71214286Y-36176247D01*
X71214286Y-36176247D02*
X71309524Y-36223866D01*
X71309524Y-36223866D02*
X71500000Y-36223866D01*
X71500000Y-36223866D02*
X71595238Y-36176247D01*
X71595238Y-36176247D02*
X71642857Y-36128628D01*
X71642857Y-36128628D02*
X71690476Y-36033390D01*
X68666667Y-28357200D02*
X68809524Y-28404819D01*
X68809524Y-28404819D02*
X69047619Y-28404819D01*
X69047619Y-28404819D02*
X69142857Y-28357200D01*
X69142857Y-28357200D02*
X69190476Y-28309580D01*
X69190476Y-28309580D02*
X69238095Y-28214342D01*
X69238095Y-28214342D02*
X69238095Y-28119104D01*
X69238095Y-28119104D02*
X69190476Y-28023866D01*
X69190476Y-28023866D02*
X69142857Y-27976247D01*
X69142857Y-27976247D02*
X69047619Y-27928628D01*
X69047619Y-27928628D02*
X68857143Y-27881009D01*
X68857143Y-27881009D02*
X68761905Y-27833390D01*
X68761905Y-27833390D02*
X68714286Y-27785771D01*
X68714286Y-27785771D02*
X68666667Y-27690533D01*
X68666667Y-27690533D02*
X68666667Y-27595295D01*
X68666667Y-27595295D02*
X68714286Y-27500057D01*
X68714286Y-27500057D02*
X68761905Y-27452438D01*
X68761905Y-27452438D02*
X68857143Y-27404819D01*
X68857143Y-27404819D02*
X69095238Y-27404819D01*
X69095238Y-27404819D02*
X69238095Y-27452438D01*
X69571429Y-27404819D02*
X69809524Y-28404819D01*
X69809524Y-28404819D02*
X70000000Y-27690533D01*
X70000000Y-27690533D02*
X70190476Y-28404819D01*
X70190476Y-28404819D02*
X70428572Y-27404819D01*
X70857143Y-28404819D02*
X71047619Y-28404819D01*
X71047619Y-28404819D02*
X71142857Y-28357200D01*
X71142857Y-28357200D02*
X71190476Y-28309580D01*
X71190476Y-28309580D02*
X71285714Y-28166723D01*
X71285714Y-28166723D02*
X71333333Y-27976247D01*
X71333333Y-27976247D02*
X71333333Y-27595295D01*
X71333333Y-27595295D02*
X71285714Y-27500057D01*
X71285714Y-27500057D02*
X71238095Y-27452438D01*
X71238095Y-27452438D02*
X71142857Y-27404819D01*
X71142857Y-27404819D02*
X70952381Y-27404819D01*
X70952381Y-27404819D02*
X70857143Y-27452438D01*
X70857143Y-27452438D02*
X70809524Y-27500057D01*
X70809524Y-27500057D02*
X70761905Y-27595295D01*
X70761905Y-27595295D02*
X70761905Y-27833390D01*
X70761905Y-27833390D02*
X70809524Y-27928628D01*
X70809524Y-27928628D02*
X70857143Y-27976247D01*
X70857143Y-27976247D02*
X70952381Y-28023866D01*
X70952381Y-28023866D02*
X71142857Y-28023866D01*
X71142857Y-28023866D02*
X71238095Y-27976247D01*
X71238095Y-27976247D02*
X71285714Y-27928628D01*
X71285714Y-27928628D02*
X71333333Y-27833390D01*
%TO.C,SW6*%
D13*
X67000000Y-19000000D02*
X67000000Y-25000000D01*
X67000000Y-25000000D02*
X73000000Y-25000000D01*
X73000000Y-19000000D02*
X67000000Y-19000000D01*
X73000000Y-25000000D02*
X73000000Y-19000000D01*
X71750000Y-22000000D02*
G75*
G02*
X68250000Y-22000000I-1750000J0D01*
G01*
X68250000Y-22000000D02*
G75*
G02*
X71750000Y-22000000I1750000J0D01*
G01*
%TO.C,SW11*%
X47000000Y-39000000D02*
X47000000Y-45000000D01*
X47000000Y-45000000D02*
X53000000Y-45000000D01*
X53000000Y-39000000D02*
X47000000Y-39000000D01*
X53000000Y-45000000D02*
X53000000Y-39000000D01*
X51750000Y-42000000D02*
G75*
G02*
X48250000Y-42000000I-1750000J0D01*
G01*
X48250000Y-42000000D02*
G75*
G02*
X51750000Y-42000000I1750000J0D01*
G01*
%TO.C,SW4*%
X27000000Y-19000000D02*
X27000000Y-25000000D01*
X27000000Y-25000000D02*
X33000000Y-25000000D01*
X33000000Y-19000000D02*
X27000000Y-19000000D01*
X33000000Y-25000000D02*
X33000000Y-19000000D01*
X31750000Y-22000000D02*
G75*
G02*
X28250000Y-22000000I-1750000J0D01*
G01*
X28250000Y-22000000D02*
G75*
G02*
X31750000Y-22000000I1750000J0D01*
G01*
%TO.C,SW8*%
X47000000Y-29000000D02*
X47000000Y-35000000D01*
X47000000Y-35000000D02*
X53000000Y-35000000D01*
X53000000Y-29000000D02*
X47000000Y-29000000D01*
X53000000Y-35000000D02*
X53000000Y-29000000D01*
X51750000Y-32000000D02*
G75*
G02*
X48250000Y-32000000I-1750000J0D01*
G01*
X48250000Y-32000000D02*
G75*
G02*
X51750000Y-32000000I1750000J0D01*
G01*
%TO.C,SW1*%
X27000000Y-9000000D02*
X27000000Y-15000000D01*
X27000000Y-15000000D02*
X33000000Y-15000000D01*
X33000000Y-9000000D02*
X27000000Y-9000000D01*
X33000000Y-15000000D02*
X33000000Y-9000000D01*
X31750000Y-12000000D02*
G75*
G02*
X28250000Y-12000000I-1750000J0D01*
G01*
X28250000Y-12000000D02*
G75*
G02*
X31750000Y-12000000I1750000J0D01*
G01*
%TO.C,SW10*%
X27000000Y-39000000D02*
X27000000Y-45000000D01*
X27000000Y-45000000D02*
X33000000Y-45000000D01*
X33000000Y-39000000D02*
X27000000Y-39000000D01*
X33000000Y-45000000D02*
X33000000Y-39000000D01*
X31750000Y-42000000D02*
G75*
G02*
X28250000Y-42000000I-1750000J0D01*
G01*
X28250000Y-42000000D02*
G75*
G02*
X31750000Y-42000000I1750000J0D01*
G01*
%TO.C,SW7*%
X27000000Y-29000000D02*
X27000000Y-35000000D01*
X27000000Y-35000000D02*
X33000000Y-35000000D01*
X33000000Y-29000000D02*
X27000000Y-29000000D01*
X33000000Y-35000000D02*
X33000000Y-29000000D01*
X31750000Y-32000000D02*
G75*
G02*
X28250000Y-32000000I-1750000J0D01*
G01*
X28250000Y-32000000D02*
G75*
G02*
X31750000Y-32000000I1750000J0D01*
G01*
%TO.C,SW5*%
X47000000Y-19000000D02*
X47000000Y-25000000D01*
X47000000Y-25000000D02*
X53000000Y-25000000D01*
X53000000Y-19000000D02*
X47000000Y-19000000D01*
X53000000Y-25000000D02*
X53000000Y-19000000D01*
X51750000Y-22000000D02*
G75*
G02*
X48250000Y-22000000I-1750000J0D01*
G01*
X48250000Y-22000000D02*
G75*
G02*
X51750000Y-22000000I1750000J0D01*
G01*
%TO.C,SW2*%
X47000000Y-9000000D02*
X47000000Y-15000000D01*
X47000000Y-15000000D02*
X53000000Y-15000000D01*
X53000000Y-9000000D02*
X47000000Y-9000000D01*
X53000000Y-15000000D02*
X53000000Y-9000000D01*
X51750000Y-12000000D02*
G75*
G02*
X48250000Y-12000000I-1750000J0D01*
G01*
X48250000Y-12000000D02*
G75*
G02*
X51750000Y-12000000I1750000J0D01*
G01*
%TO.C,LED1*%
X56000000Y-56700000D02*
X56000000Y-57600000D01*
X56000000Y-57600000D02*
X58000000Y-57600000D01*
X56300000Y-56400000D02*
X56000000Y-56700000D01*
X58000000Y-56400000D02*
X56300000Y-56400000D01*
X58000000Y-57600000D02*
X58000000Y-56400000D01*
%TO.C,SW3*%
X67000000Y-9000000D02*
X67000000Y-15000000D01*
X67000000Y-15000000D02*
X73000000Y-15000000D01*
X73000000Y-9000000D02*
X67000000Y-9000000D01*
X73000000Y-15000000D02*
X73000000Y-9000000D01*
X71750000Y-12000000D02*
G75*
G02*
X68250000Y-12000000I-1750000J0D01*
G01*
X68250000Y-12000000D02*
G75*
G02*
X71750000Y-12000000I1750000J0D01*
G01*
%TO.C,SW12*%
X67000000Y-39000000D02*
X67000000Y-45000000D01*
X67000000Y-45000000D02*
X73000000Y-45000000D01*
X73000000Y-39000000D02*
X67000000Y-39000000D01*
X73000000Y-45000000D02*
X73000000Y-39000000D01*
X71750000Y-42000000D02*
G75*
G02*
X68250000Y-42000000I-1750000J0D01*
G01*
X68250000Y-42000000D02*
G75*
G02*
X71750000Y-42000000I1750000J0D01*
G01*
%TO.C,SW9*%
X67000000Y-29000000D02*
X67000000Y-35000000D01*
X67000000Y-35000000D02*
X73000000Y-35000000D01*
X73000000Y-29000000D02*
X67000000Y-29000000D01*
X73000000Y-35000000D02*
X73000000Y-29000000D01*
X71750000Y-32000000D02*
G75*
G02*
X68250000Y-32000000I-1750000J0D01*
G01*
X68250000Y-32000000D02*
G75*
G02*
X71750000Y-32000000I1750000J0D01*
G01*
%TD*%
M02*
