%TF.GenerationSoftware,KiCad,Pcbnew,10.0.4*%
%TF.CreationDate,2026-07-27T17:57:11+02:00*%
%TF.ProjectId,HM-BlueRemote-12,484d2d42-6c75-4655-9265-6d6f74652d31,rev?*%
%TF.SameCoordinates,Original*%
%TF.FileFunction,Legend,Top*%
%TF.FilePolarity,Positive*%
%FSLAX46Y46*%
G04 Gerber Fmt 4.6, Leading zero omitted, Abs format (unit mm)*
G04 Created by KiCad (PCBNEW 10.0.4) date 2026-07-27 17:57:11*
%MOMM*%
%LPD*%
G01*
G04 APERTURE LIST*
%ADD10C,0.150000*%
%ADD11C,0.158750*%
%ADD12C,0.120000*%
G04 APERTURE END LIST*
D10*
X68666667Y-18357200D02*
X68809524Y-18404819D01*
X68809524Y-18404819D02*
X69047619Y-18404819D01*
X69047619Y-18404819D02*
X69142857Y-18357200D01*
X69142857Y-18357200D02*
X69190476Y-18309580D01*
X69190476Y-18309580D02*
X69238095Y-18214342D01*
X69238095Y-18214342D02*
X69238095Y-18119104D01*
X69238095Y-18119104D02*
X69190476Y-18023866D01*
X69190476Y-18023866D02*
X69142857Y-17976247D01*
X69142857Y-17976247D02*
X69047619Y-17928628D01*
X69047619Y-17928628D02*
X68857143Y-17881009D01*
X68857143Y-17881009D02*
X68761905Y-17833390D01*
X68761905Y-17833390D02*
X68714286Y-17785771D01*
X68714286Y-17785771D02*
X68666667Y-17690533D01*
X68666667Y-17690533D02*
X68666667Y-17595295D01*
X68666667Y-17595295D02*
X68714286Y-17500057D01*
X68714286Y-17500057D02*
X68761905Y-17452438D01*
X68761905Y-17452438D02*
X68857143Y-17404819D01*
X68857143Y-17404819D02*
X69095238Y-17404819D01*
X69095238Y-17404819D02*
X69238095Y-17452438D01*
X69571429Y-17404819D02*
X69809524Y-18404819D01*
X69809524Y-18404819D02*
X70000000Y-17690533D01*
X70000000Y-17690533D02*
X70190476Y-18404819D01*
X70190476Y-18404819D02*
X70428572Y-17404819D01*
X71238095Y-17404819D02*
X71047619Y-17404819D01*
X71047619Y-17404819D02*
X70952381Y-17452438D01*
X70952381Y-17452438D02*
X70904762Y-17500057D01*
X70904762Y-17500057D02*
X70809524Y-17642914D01*
X70809524Y-17642914D02*
X70761905Y-17833390D01*
X70761905Y-17833390D02*
X70761905Y-18214342D01*
X70761905Y-18214342D02*
X70809524Y-18309580D01*
X70809524Y-18309580D02*
X70857143Y-18357200D01*
X70857143Y-18357200D02*
X70952381Y-18404819D01*
X70952381Y-18404819D02*
X71142857Y-18404819D01*
X71142857Y-18404819D02*
X71238095Y-18357200D01*
X71238095Y-18357200D02*
X71285714Y-18309580D01*
X71285714Y-18309580D02*
X71333333Y-18214342D01*
X71333333Y-18214342D02*
X71333333Y-17976247D01*
X71333333Y-17976247D02*
X71285714Y-17881009D01*
X71285714Y-17881009D02*
X71238095Y-17833390D01*
X71238095Y-17833390D02*
X71142857Y-17785771D01*
X71142857Y-17785771D02*
X70952381Y-17785771D01*
X70952381Y-17785771D02*
X70857143Y-17833390D01*
X70857143Y-17833390D02*
X70809524Y-17881009D01*
X70809524Y-17881009D02*
X70761905Y-17976247D01*
X48190476Y-38357200D02*
X48333333Y-38404819D01*
X48333333Y-38404819D02*
X48571428Y-38404819D01*
X48571428Y-38404819D02*
X48666666Y-38357200D01*
X48666666Y-38357200D02*
X48714285Y-38309580D01*
X48714285Y-38309580D02*
X48761904Y-38214342D01*
X48761904Y-38214342D02*
X48761904Y-38119104D01*
X48761904Y-38119104D02*
X48714285Y-38023866D01*
X48714285Y-38023866D02*
X48666666Y-37976247D01*
X48666666Y-37976247D02*
X48571428Y-37928628D01*
X48571428Y-37928628D02*
X48380952Y-37881009D01*
X48380952Y-37881009D02*
X48285714Y-37833390D01*
X48285714Y-37833390D02*
X48238095Y-37785771D01*
X48238095Y-37785771D02*
X48190476Y-37690533D01*
X48190476Y-37690533D02*
X48190476Y-37595295D01*
X48190476Y-37595295D02*
X48238095Y-37500057D01*
X48238095Y-37500057D02*
X48285714Y-37452438D01*
X48285714Y-37452438D02*
X48380952Y-37404819D01*
X48380952Y-37404819D02*
X48619047Y-37404819D01*
X48619047Y-37404819D02*
X48761904Y-37452438D01*
X49095238Y-37404819D02*
X49333333Y-38404819D01*
X49333333Y-38404819D02*
X49523809Y-37690533D01*
X49523809Y-37690533D02*
X49714285Y-38404819D01*
X49714285Y-38404819D02*
X49952381Y-37404819D01*
X50857142Y-38404819D02*
X50285714Y-38404819D01*
X50571428Y-38404819D02*
X50571428Y-37404819D01*
X50571428Y-37404819D02*
X50476190Y-37547676D01*
X50476190Y-37547676D02*
X50380952Y-37642914D01*
X50380952Y-37642914D02*
X50285714Y-37690533D01*
X51809523Y-38404819D02*
X51238095Y-38404819D01*
X51523809Y-38404819D02*
X51523809Y-37404819D01*
X51523809Y-37404819D02*
X51428571Y-37547676D01*
X51428571Y-37547676D02*
X51333333Y-37642914D01*
X51333333Y-37642914D02*
X51238095Y-37690533D01*
D11*
X94306666Y-56579271D02*
X94306666Y-55309271D01*
X94306666Y-55309271D02*
X94730000Y-56216414D01*
X94730000Y-56216414D02*
X95153333Y-55309271D01*
X95153333Y-55309271D02*
X95153333Y-56579271D01*
X95758095Y-56579271D02*
X95758095Y-55309271D01*
X95758095Y-55914033D02*
X96483810Y-55914033D01*
X96483810Y-56579271D02*
X96483810Y-55309271D01*
X97632857Y-55732604D02*
X97632857Y-56579271D01*
X97330476Y-55248795D02*
X97028095Y-56155937D01*
X97028095Y-56155937D02*
X97814286Y-56155937D01*
D10*
X28666667Y-18357200D02*
X28809524Y-18404819D01*
X28809524Y-18404819D02*
X29047619Y-18404819D01*
X29047619Y-18404819D02*
X29142857Y-18357200D01*
X29142857Y-18357200D02*
X29190476Y-18309580D01*
X29190476Y-18309580D02*
X29238095Y-18214342D01*
X29238095Y-18214342D02*
X29238095Y-18119104D01*
X29238095Y-18119104D02*
X29190476Y-18023866D01*
X29190476Y-18023866D02*
X29142857Y-17976247D01*
X29142857Y-17976247D02*
X29047619Y-17928628D01*
X29047619Y-17928628D02*
X28857143Y-17881009D01*
X28857143Y-17881009D02*
X28761905Y-17833390D01*
X28761905Y-17833390D02*
X28714286Y-17785771D01*
X28714286Y-17785771D02*
X28666667Y-17690533D01*
X28666667Y-17690533D02*
X28666667Y-17595295D01*
X28666667Y-17595295D02*
X28714286Y-17500057D01*
X28714286Y-17500057D02*
X28761905Y-17452438D01*
X28761905Y-17452438D02*
X28857143Y-17404819D01*
X28857143Y-17404819D02*
X29095238Y-17404819D01*
X29095238Y-17404819D02*
X29238095Y-17452438D01*
X29571429Y-17404819D02*
X29809524Y-18404819D01*
X29809524Y-18404819D02*
X30000000Y-17690533D01*
X30000000Y-17690533D02*
X30190476Y-18404819D01*
X30190476Y-18404819D02*
X30428572Y-17404819D01*
X31238095Y-17738152D02*
X31238095Y-18404819D01*
X31000000Y-17357200D02*
X30761905Y-18071485D01*
X30761905Y-18071485D02*
X31380952Y-18071485D01*
D11*
X2306666Y-56579271D02*
X2306666Y-55309271D01*
X2306666Y-55309271D02*
X2730000Y-56216414D01*
X2730000Y-56216414D02*
X3153333Y-55309271D01*
X3153333Y-55309271D02*
X3153333Y-56579271D01*
X3758095Y-56579271D02*
X3758095Y-55309271D01*
X3758095Y-55914033D02*
X4483810Y-55914033D01*
X4483810Y-56579271D02*
X4483810Y-55309271D01*
X4967619Y-55309271D02*
X5753810Y-55309271D01*
X5753810Y-55309271D02*
X5330476Y-55793080D01*
X5330476Y-55793080D02*
X5511905Y-55793080D01*
X5511905Y-55793080D02*
X5632857Y-55853556D01*
X5632857Y-55853556D02*
X5693333Y-55914033D01*
X5693333Y-55914033D02*
X5753810Y-56034985D01*
X5753810Y-56034985D02*
X5753810Y-56337366D01*
X5753810Y-56337366D02*
X5693333Y-56458318D01*
X5693333Y-56458318D02*
X5632857Y-56518795D01*
X5632857Y-56518795D02*
X5511905Y-56579271D01*
X5511905Y-56579271D02*
X5149048Y-56579271D01*
X5149048Y-56579271D02*
X5028095Y-56518795D01*
X5028095Y-56518795D02*
X4967619Y-56458318D01*
D10*
X48666667Y-28357200D02*
X48809524Y-28404819D01*
X48809524Y-28404819D02*
X49047619Y-28404819D01*
X49047619Y-28404819D02*
X49142857Y-28357200D01*
X49142857Y-28357200D02*
X49190476Y-28309580D01*
X49190476Y-28309580D02*
X49238095Y-28214342D01*
X49238095Y-28214342D02*
X49238095Y-28119104D01*
X49238095Y-28119104D02*
X49190476Y-28023866D01*
X49190476Y-28023866D02*
X49142857Y-27976247D01*
X49142857Y-27976247D02*
X49047619Y-27928628D01*
X49047619Y-27928628D02*
X48857143Y-27881009D01*
X48857143Y-27881009D02*
X48761905Y-27833390D01*
X48761905Y-27833390D02*
X48714286Y-27785771D01*
X48714286Y-27785771D02*
X48666667Y-27690533D01*
X48666667Y-27690533D02*
X48666667Y-27595295D01*
X48666667Y-27595295D02*
X48714286Y-27500057D01*
X48714286Y-27500057D02*
X48761905Y-27452438D01*
X48761905Y-27452438D02*
X48857143Y-27404819D01*
X48857143Y-27404819D02*
X49095238Y-27404819D01*
X49095238Y-27404819D02*
X49238095Y-27452438D01*
X49571429Y-27404819D02*
X49809524Y-28404819D01*
X49809524Y-28404819D02*
X50000000Y-27690533D01*
X50000000Y-27690533D02*
X50190476Y-28404819D01*
X50190476Y-28404819D02*
X50428572Y-27404819D01*
X50952381Y-27833390D02*
X50857143Y-27785771D01*
X50857143Y-27785771D02*
X50809524Y-27738152D01*
X50809524Y-27738152D02*
X50761905Y-27642914D01*
X50761905Y-27642914D02*
X50761905Y-27595295D01*
X50761905Y-27595295D02*
X50809524Y-27500057D01*
X50809524Y-27500057D02*
X50857143Y-27452438D01*
X50857143Y-27452438D02*
X50952381Y-27404819D01*
X50952381Y-27404819D02*
X51142857Y-27404819D01*
X51142857Y-27404819D02*
X51238095Y-27452438D01*
X51238095Y-27452438D02*
X51285714Y-27500057D01*
X51285714Y-27500057D02*
X51333333Y-27595295D01*
X51333333Y-27595295D02*
X51333333Y-27642914D01*
X51333333Y-27642914D02*
X51285714Y-27738152D01*
X51285714Y-27738152D02*
X51238095Y-27785771D01*
X51238095Y-27785771D02*
X51142857Y-27833390D01*
X51142857Y-27833390D02*
X50952381Y-27833390D01*
X50952381Y-27833390D02*
X50857143Y-27881009D01*
X50857143Y-27881009D02*
X50809524Y-27928628D01*
X50809524Y-27928628D02*
X50761905Y-28023866D01*
X50761905Y-28023866D02*
X50761905Y-28214342D01*
X50761905Y-28214342D02*
X50809524Y-28309580D01*
X50809524Y-28309580D02*
X50857143Y-28357200D01*
X50857143Y-28357200D02*
X50952381Y-28404819D01*
X50952381Y-28404819D02*
X51142857Y-28404819D01*
X51142857Y-28404819D02*
X51238095Y-28357200D01*
X51238095Y-28357200D02*
X51285714Y-28309580D01*
X51285714Y-28309580D02*
X51333333Y-28214342D01*
X51333333Y-28214342D02*
X51333333Y-28023866D01*
X51333333Y-28023866D02*
X51285714Y-27928628D01*
X51285714Y-27928628D02*
X51238095Y-27881009D01*
X51238095Y-27881009D02*
X51142857Y-27833390D01*
D11*
X94306666Y-4579271D02*
X94306666Y-3309271D01*
X94306666Y-3309271D02*
X94730000Y-4216414D01*
X94730000Y-4216414D02*
X95153333Y-3309271D01*
X95153333Y-3309271D02*
X95153333Y-4579271D01*
X95758095Y-4579271D02*
X95758095Y-3309271D01*
X95758095Y-3914033D02*
X96483810Y-3914033D01*
X96483810Y-4579271D02*
X96483810Y-3309271D01*
X97028095Y-3430223D02*
X97088571Y-3369747D01*
X97088571Y-3369747D02*
X97209524Y-3309271D01*
X97209524Y-3309271D02*
X97511905Y-3309271D01*
X97511905Y-3309271D02*
X97632857Y-3369747D01*
X97632857Y-3369747D02*
X97693333Y-3430223D01*
X97693333Y-3430223D02*
X97753810Y-3551175D01*
X97753810Y-3551175D02*
X97753810Y-3672128D01*
X97753810Y-3672128D02*
X97693333Y-3853556D01*
X97693333Y-3853556D02*
X96967619Y-4579271D01*
X96967619Y-4579271D02*
X97753810Y-4579271D01*
D10*
X28666667Y-8357200D02*
X28809524Y-8404819D01*
X28809524Y-8404819D02*
X29047619Y-8404819D01*
X29047619Y-8404819D02*
X29142857Y-8357200D01*
X29142857Y-8357200D02*
X29190476Y-8309580D01*
X29190476Y-8309580D02*
X29238095Y-8214342D01*
X29238095Y-8214342D02*
X29238095Y-8119104D01*
X29238095Y-8119104D02*
X29190476Y-8023866D01*
X29190476Y-8023866D02*
X29142857Y-7976247D01*
X29142857Y-7976247D02*
X29047619Y-7928628D01*
X29047619Y-7928628D02*
X28857143Y-7881009D01*
X28857143Y-7881009D02*
X28761905Y-7833390D01*
X28761905Y-7833390D02*
X28714286Y-7785771D01*
X28714286Y-7785771D02*
X28666667Y-7690533D01*
X28666667Y-7690533D02*
X28666667Y-7595295D01*
X28666667Y-7595295D02*
X28714286Y-7500057D01*
X28714286Y-7500057D02*
X28761905Y-7452438D01*
X28761905Y-7452438D02*
X28857143Y-7404819D01*
X28857143Y-7404819D02*
X29095238Y-7404819D01*
X29095238Y-7404819D02*
X29238095Y-7452438D01*
X29571429Y-7404819D02*
X29809524Y-8404819D01*
X29809524Y-8404819D02*
X30000000Y-7690533D01*
X30000000Y-7690533D02*
X30190476Y-8404819D01*
X30190476Y-8404819D02*
X30428572Y-7404819D01*
X31333333Y-8404819D02*
X30761905Y-8404819D01*
X31047619Y-8404819D02*
X31047619Y-7404819D01*
X31047619Y-7404819D02*
X30952381Y-7547676D01*
X30952381Y-7547676D02*
X30857143Y-7642914D01*
X30857143Y-7642914D02*
X30761905Y-7690533D01*
X28190476Y-38357200D02*
X28333333Y-38404819D01*
X28333333Y-38404819D02*
X28571428Y-38404819D01*
X28571428Y-38404819D02*
X28666666Y-38357200D01*
X28666666Y-38357200D02*
X28714285Y-38309580D01*
X28714285Y-38309580D02*
X28761904Y-38214342D01*
X28761904Y-38214342D02*
X28761904Y-38119104D01*
X28761904Y-38119104D02*
X28714285Y-38023866D01*
X28714285Y-38023866D02*
X28666666Y-37976247D01*
X28666666Y-37976247D02*
X28571428Y-37928628D01*
X28571428Y-37928628D02*
X28380952Y-37881009D01*
X28380952Y-37881009D02*
X28285714Y-37833390D01*
X28285714Y-37833390D02*
X28238095Y-37785771D01*
X28238095Y-37785771D02*
X28190476Y-37690533D01*
X28190476Y-37690533D02*
X28190476Y-37595295D01*
X28190476Y-37595295D02*
X28238095Y-37500057D01*
X28238095Y-37500057D02*
X28285714Y-37452438D01*
X28285714Y-37452438D02*
X28380952Y-37404819D01*
X28380952Y-37404819D02*
X28619047Y-37404819D01*
X28619047Y-37404819D02*
X28761904Y-37452438D01*
X29095238Y-37404819D02*
X29333333Y-38404819D01*
X29333333Y-38404819D02*
X29523809Y-37690533D01*
X29523809Y-37690533D02*
X29714285Y-38404819D01*
X29714285Y-38404819D02*
X29952381Y-37404819D01*
X30857142Y-38404819D02*
X30285714Y-38404819D01*
X30571428Y-38404819D02*
X30571428Y-37404819D01*
X30571428Y-37404819D02*
X30476190Y-37547676D01*
X30476190Y-37547676D02*
X30380952Y-37642914D01*
X30380952Y-37642914D02*
X30285714Y-37690533D01*
X31476190Y-37404819D02*
X31571428Y-37404819D01*
X31571428Y-37404819D02*
X31666666Y-37452438D01*
X31666666Y-37452438D02*
X31714285Y-37500057D01*
X31714285Y-37500057D02*
X31761904Y-37595295D01*
X31761904Y-37595295D02*
X31809523Y-37785771D01*
X31809523Y-37785771D02*
X31809523Y-38023866D01*
X31809523Y-38023866D02*
X31761904Y-38214342D01*
X31761904Y-38214342D02*
X31714285Y-38309580D01*
X31714285Y-38309580D02*
X31666666Y-38357200D01*
X31666666Y-38357200D02*
X31571428Y-38404819D01*
X31571428Y-38404819D02*
X31476190Y-38404819D01*
X31476190Y-38404819D02*
X31380952Y-38357200D01*
X31380952Y-38357200D02*
X31333333Y-38309580D01*
X31333333Y-38309580D02*
X31285714Y-38214342D01*
X31285714Y-38214342D02*
X31238095Y-38023866D01*
X31238095Y-38023866D02*
X31238095Y-37785771D01*
X31238095Y-37785771D02*
X31285714Y-37595295D01*
X31285714Y-37595295D02*
X31333333Y-37500057D01*
X31333333Y-37500057D02*
X31380952Y-37452438D01*
X31380952Y-37452438D02*
X31476190Y-37404819D01*
D11*
X2306666Y-4579271D02*
X2306666Y-3309271D01*
X2306666Y-3309271D02*
X2730000Y-4216414D01*
X2730000Y-4216414D02*
X3153333Y-3309271D01*
X3153333Y-3309271D02*
X3153333Y-4579271D01*
X3758095Y-4579271D02*
X3758095Y-3309271D01*
X3758095Y-3914033D02*
X4483810Y-3914033D01*
X4483810Y-4579271D02*
X4483810Y-3309271D01*
X5753810Y-4579271D02*
X5028095Y-4579271D01*
X5390952Y-4579271D02*
X5390952Y-3309271D01*
X5390952Y-3309271D02*
X5270000Y-3490699D01*
X5270000Y-3490699D02*
X5149048Y-3611652D01*
X5149048Y-3611652D02*
X5028095Y-3672128D01*
D10*
X28666667Y-28357200D02*
X28809524Y-28404819D01*
X28809524Y-28404819D02*
X29047619Y-28404819D01*
X29047619Y-28404819D02*
X29142857Y-28357200D01*
X29142857Y-28357200D02*
X29190476Y-28309580D01*
X29190476Y-28309580D02*
X29238095Y-28214342D01*
X29238095Y-28214342D02*
X29238095Y-28119104D01*
X29238095Y-28119104D02*
X29190476Y-28023866D01*
X29190476Y-28023866D02*
X29142857Y-27976247D01*
X29142857Y-27976247D02*
X29047619Y-27928628D01*
X29047619Y-27928628D02*
X28857143Y-27881009D01*
X28857143Y-27881009D02*
X28761905Y-27833390D01*
X28761905Y-27833390D02*
X28714286Y-27785771D01*
X28714286Y-27785771D02*
X28666667Y-27690533D01*
X28666667Y-27690533D02*
X28666667Y-27595295D01*
X28666667Y-27595295D02*
X28714286Y-27500057D01*
X28714286Y-27500057D02*
X28761905Y-27452438D01*
X28761905Y-27452438D02*
X28857143Y-27404819D01*
X28857143Y-27404819D02*
X29095238Y-27404819D01*
X29095238Y-27404819D02*
X29238095Y-27452438D01*
X29571429Y-27404819D02*
X29809524Y-28404819D01*
X29809524Y-28404819D02*
X30000000Y-27690533D01*
X30000000Y-27690533D02*
X30190476Y-28404819D01*
X30190476Y-28404819D02*
X30428572Y-27404819D01*
X30714286Y-27404819D02*
X31380952Y-27404819D01*
X31380952Y-27404819D02*
X30952381Y-28404819D01*
X48666667Y-18357200D02*
X48809524Y-18404819D01*
X48809524Y-18404819D02*
X49047619Y-18404819D01*
X49047619Y-18404819D02*
X49142857Y-18357200D01*
X49142857Y-18357200D02*
X49190476Y-18309580D01*
X49190476Y-18309580D02*
X49238095Y-18214342D01*
X49238095Y-18214342D02*
X49238095Y-18119104D01*
X49238095Y-18119104D02*
X49190476Y-18023866D01*
X49190476Y-18023866D02*
X49142857Y-17976247D01*
X49142857Y-17976247D02*
X49047619Y-17928628D01*
X49047619Y-17928628D02*
X48857143Y-17881009D01*
X48857143Y-17881009D02*
X48761905Y-17833390D01*
X48761905Y-17833390D02*
X48714286Y-17785771D01*
X48714286Y-17785771D02*
X48666667Y-17690533D01*
X48666667Y-17690533D02*
X48666667Y-17595295D01*
X48666667Y-17595295D02*
X48714286Y-17500057D01*
X48714286Y-17500057D02*
X48761905Y-17452438D01*
X48761905Y-17452438D02*
X48857143Y-17404819D01*
X48857143Y-17404819D02*
X49095238Y-17404819D01*
X49095238Y-17404819D02*
X49238095Y-17452438D01*
X49571429Y-17404819D02*
X49809524Y-18404819D01*
X49809524Y-18404819D02*
X50000000Y-17690533D01*
X50000000Y-17690533D02*
X50190476Y-18404819D01*
X50190476Y-18404819D02*
X50428572Y-17404819D01*
X51285714Y-17404819D02*
X50809524Y-17404819D01*
X50809524Y-17404819D02*
X50761905Y-17881009D01*
X50761905Y-17881009D02*
X50809524Y-17833390D01*
X50809524Y-17833390D02*
X50904762Y-17785771D01*
X50904762Y-17785771D02*
X51142857Y-17785771D01*
X51142857Y-17785771D02*
X51238095Y-17833390D01*
X51238095Y-17833390D02*
X51285714Y-17881009D01*
X51285714Y-17881009D02*
X51333333Y-17976247D01*
X51333333Y-17976247D02*
X51333333Y-18214342D01*
X51333333Y-18214342D02*
X51285714Y-18309580D01*
X51285714Y-18309580D02*
X51238095Y-18357200D01*
X51238095Y-18357200D02*
X51142857Y-18404819D01*
X51142857Y-18404819D02*
X50904762Y-18404819D01*
X50904762Y-18404819D02*
X50809524Y-18357200D01*
X50809524Y-18357200D02*
X50761905Y-18309580D01*
X48666667Y-8357200D02*
X48809524Y-8404819D01*
X48809524Y-8404819D02*
X49047619Y-8404819D01*
X49047619Y-8404819D02*
X49142857Y-8357200D01*
X49142857Y-8357200D02*
X49190476Y-8309580D01*
X49190476Y-8309580D02*
X49238095Y-8214342D01*
X49238095Y-8214342D02*
X49238095Y-8119104D01*
X49238095Y-8119104D02*
X49190476Y-8023866D01*
X49190476Y-8023866D02*
X49142857Y-7976247D01*
X49142857Y-7976247D02*
X49047619Y-7928628D01*
X49047619Y-7928628D02*
X48857143Y-7881009D01*
X48857143Y-7881009D02*
X48761905Y-7833390D01*
X48761905Y-7833390D02*
X48714286Y-7785771D01*
X48714286Y-7785771D02*
X48666667Y-7690533D01*
X48666667Y-7690533D02*
X48666667Y-7595295D01*
X48666667Y-7595295D02*
X48714286Y-7500057D01*
X48714286Y-7500057D02*
X48761905Y-7452438D01*
X48761905Y-7452438D02*
X48857143Y-7404819D01*
X48857143Y-7404819D02*
X49095238Y-7404819D01*
X49095238Y-7404819D02*
X49238095Y-7452438D01*
X49571429Y-7404819D02*
X49809524Y-8404819D01*
X49809524Y-8404819D02*
X50000000Y-7690533D01*
X50000000Y-7690533D02*
X50190476Y-8404819D01*
X50190476Y-8404819D02*
X50428572Y-7404819D01*
X50761905Y-7500057D02*
X50809524Y-7452438D01*
X50809524Y-7452438D02*
X50904762Y-7404819D01*
X50904762Y-7404819D02*
X51142857Y-7404819D01*
X51142857Y-7404819D02*
X51238095Y-7452438D01*
X51238095Y-7452438D02*
X51285714Y-7500057D01*
X51285714Y-7500057D02*
X51333333Y-7595295D01*
X51333333Y-7595295D02*
X51333333Y-7690533D01*
X51333333Y-7690533D02*
X51285714Y-7833390D01*
X51285714Y-7833390D02*
X50714286Y-8404819D01*
X50714286Y-8404819D02*
X51333333Y-8404819D01*
X55880952Y-55804819D02*
X55404762Y-55804819D01*
X55404762Y-55804819D02*
X55404762Y-54804819D01*
X56214286Y-55281009D02*
X56547619Y-55281009D01*
X56690476Y-55804819D02*
X56214286Y-55804819D01*
X56214286Y-55804819D02*
X56214286Y-54804819D01*
X56214286Y-54804819D02*
X56690476Y-54804819D01*
X57119048Y-55804819D02*
X57119048Y-54804819D01*
X57119048Y-54804819D02*
X57357143Y-54804819D01*
X57357143Y-54804819D02*
X57500000Y-54852438D01*
X57500000Y-54852438D02*
X57595238Y-54947676D01*
X57595238Y-54947676D02*
X57642857Y-55042914D01*
X57642857Y-55042914D02*
X57690476Y-55233390D01*
X57690476Y-55233390D02*
X57690476Y-55376247D01*
X57690476Y-55376247D02*
X57642857Y-55566723D01*
X57642857Y-55566723D02*
X57595238Y-55661961D01*
X57595238Y-55661961D02*
X57500000Y-55757200D01*
X57500000Y-55757200D02*
X57357143Y-55804819D01*
X57357143Y-55804819D02*
X57119048Y-55804819D01*
X58642857Y-55804819D02*
X58071429Y-55804819D01*
X58357143Y-55804819D02*
X58357143Y-54804819D01*
X58357143Y-54804819D02*
X58261905Y-54947676D01*
X58261905Y-54947676D02*
X58166667Y-55042914D01*
X58166667Y-55042914D02*
X58071429Y-55090533D01*
X68666667Y-8357200D02*
X68809524Y-8404819D01*
X68809524Y-8404819D02*
X69047619Y-8404819D01*
X69047619Y-8404819D02*
X69142857Y-8357200D01*
X69142857Y-8357200D02*
X69190476Y-8309580D01*
X69190476Y-8309580D02*
X69238095Y-8214342D01*
X69238095Y-8214342D02*
X69238095Y-8119104D01*
X69238095Y-8119104D02*
X69190476Y-8023866D01*
X69190476Y-8023866D02*
X69142857Y-7976247D01*
X69142857Y-7976247D02*
X69047619Y-7928628D01*
X69047619Y-7928628D02*
X68857143Y-7881009D01*
X68857143Y-7881009D02*
X68761905Y-7833390D01*
X68761905Y-7833390D02*
X68714286Y-7785771D01*
X68714286Y-7785771D02*
X68666667Y-7690533D01*
X68666667Y-7690533D02*
X68666667Y-7595295D01*
X68666667Y-7595295D02*
X68714286Y-7500057D01*
X68714286Y-7500057D02*
X68761905Y-7452438D01*
X68761905Y-7452438D02*
X68857143Y-7404819D01*
X68857143Y-7404819D02*
X69095238Y-7404819D01*
X69095238Y-7404819D02*
X69238095Y-7452438D01*
X69571429Y-7404819D02*
X69809524Y-8404819D01*
X69809524Y-8404819D02*
X70000000Y-7690533D01*
X70000000Y-7690533D02*
X70190476Y-8404819D01*
X70190476Y-8404819D02*
X70428572Y-7404819D01*
X70714286Y-7404819D02*
X71333333Y-7404819D01*
X71333333Y-7404819D02*
X71000000Y-7785771D01*
X71000000Y-7785771D02*
X71142857Y-7785771D01*
X71142857Y-7785771D02*
X71238095Y-7833390D01*
X71238095Y-7833390D02*
X71285714Y-7881009D01*
X71285714Y-7881009D02*
X71333333Y-7976247D01*
X71333333Y-7976247D02*
X71333333Y-8214342D01*
X71333333Y-8214342D02*
X71285714Y-8309580D01*
X71285714Y-8309580D02*
X71238095Y-8357200D01*
X71238095Y-8357200D02*
X71142857Y-8404819D01*
X71142857Y-8404819D02*
X70857143Y-8404819D01*
X70857143Y-8404819D02*
X70761905Y-8357200D01*
X70761905Y-8357200D02*
X70714286Y-8309580D01*
X68190476Y-38357200D02*
X68333333Y-38404819D01*
X68333333Y-38404819D02*
X68571428Y-38404819D01*
X68571428Y-38404819D02*
X68666666Y-38357200D01*
X68666666Y-38357200D02*
X68714285Y-38309580D01*
X68714285Y-38309580D02*
X68761904Y-38214342D01*
X68761904Y-38214342D02*
X68761904Y-38119104D01*
X68761904Y-38119104D02*
X68714285Y-38023866D01*
X68714285Y-38023866D02*
X68666666Y-37976247D01*
X68666666Y-37976247D02*
X68571428Y-37928628D01*
X68571428Y-37928628D02*
X68380952Y-37881009D01*
X68380952Y-37881009D02*
X68285714Y-37833390D01*
X68285714Y-37833390D02*
X68238095Y-37785771D01*
X68238095Y-37785771D02*
X68190476Y-37690533D01*
X68190476Y-37690533D02*
X68190476Y-37595295D01*
X68190476Y-37595295D02*
X68238095Y-37500057D01*
X68238095Y-37500057D02*
X68285714Y-37452438D01*
X68285714Y-37452438D02*
X68380952Y-37404819D01*
X68380952Y-37404819D02*
X68619047Y-37404819D01*
X68619047Y-37404819D02*
X68761904Y-37452438D01*
X69095238Y-37404819D02*
X69333333Y-38404819D01*
X69333333Y-38404819D02*
X69523809Y-37690533D01*
X69523809Y-37690533D02*
X69714285Y-38404819D01*
X69714285Y-38404819D02*
X69952381Y-37404819D01*
X70857142Y-38404819D02*
X70285714Y-38404819D01*
X70571428Y-38404819D02*
X70571428Y-37404819D01*
X70571428Y-37404819D02*
X70476190Y-37547676D01*
X70476190Y-37547676D02*
X70380952Y-37642914D01*
X70380952Y-37642914D02*
X70285714Y-37690533D01*
X71238095Y-37500057D02*
X71285714Y-37452438D01*
X71285714Y-37452438D02*
X71380952Y-37404819D01*
X71380952Y-37404819D02*
X71619047Y-37404819D01*
X71619047Y-37404819D02*
X71714285Y-37452438D01*
X71714285Y-37452438D02*
X71761904Y-37500057D01*
X71761904Y-37500057D02*
X71809523Y-37595295D01*
X71809523Y-37595295D02*
X71809523Y-37690533D01*
X71809523Y-37690533D02*
X71761904Y-37833390D01*
X71761904Y-37833390D02*
X71190476Y-38404819D01*
X71190476Y-38404819D02*
X71809523Y-38404819D01*
X68666667Y-28357200D02*
X68809524Y-28404819D01*
X68809524Y-28404819D02*
X69047619Y-28404819D01*
X69047619Y-28404819D02*
X69142857Y-28357200D01*
X69142857Y-28357200D02*
X69190476Y-28309580D01*
X69190476Y-28309580D02*
X69238095Y-28214342D01*
X69238095Y-28214342D02*
X69238095Y-28119104D01*
X69238095Y-28119104D02*
X69190476Y-28023866D01*
X69190476Y-28023866D02*
X69142857Y-27976247D01*
X69142857Y-27976247D02*
X69047619Y-27928628D01*
X69047619Y-27928628D02*
X68857143Y-27881009D01*
X68857143Y-27881009D02*
X68761905Y-27833390D01*
X68761905Y-27833390D02*
X68714286Y-27785771D01*
X68714286Y-27785771D02*
X68666667Y-27690533D01*
X68666667Y-27690533D02*
X68666667Y-27595295D01*
X68666667Y-27595295D02*
X68714286Y-27500057D01*
X68714286Y-27500057D02*
X68761905Y-27452438D01*
X68761905Y-27452438D02*
X68857143Y-27404819D01*
X68857143Y-27404819D02*
X69095238Y-27404819D01*
X69095238Y-27404819D02*
X69238095Y-27452438D01*
X69571429Y-27404819D02*
X69809524Y-28404819D01*
X69809524Y-28404819D02*
X70000000Y-27690533D01*
X70000000Y-27690533D02*
X70190476Y-28404819D01*
X70190476Y-28404819D02*
X70428572Y-27404819D01*
X70857143Y-28404819D02*
X71047619Y-28404819D01*
X71047619Y-28404819D02*
X71142857Y-28357200D01*
X71142857Y-28357200D02*
X71190476Y-28309580D01*
X71190476Y-28309580D02*
X71285714Y-28166723D01*
X71285714Y-28166723D02*
X71333333Y-27976247D01*
X71333333Y-27976247D02*
X71333333Y-27595295D01*
X71333333Y-27595295D02*
X71285714Y-27500057D01*
X71285714Y-27500057D02*
X71238095Y-27452438D01*
X71238095Y-27452438D02*
X71142857Y-27404819D01*
X71142857Y-27404819D02*
X70952381Y-27404819D01*
X70952381Y-27404819D02*
X70857143Y-27452438D01*
X70857143Y-27452438D02*
X70809524Y-27500057D01*
X70809524Y-27500057D02*
X70761905Y-27595295D01*
X70761905Y-27595295D02*
X70761905Y-27833390D01*
X70761905Y-27833390D02*
X70809524Y-27928628D01*
X70809524Y-27928628D02*
X70857143Y-27976247D01*
X70857143Y-27976247D02*
X70952381Y-28023866D01*
X70952381Y-28023866D02*
X71142857Y-28023866D01*
X71142857Y-28023866D02*
X71238095Y-27976247D01*
X71238095Y-27976247D02*
X71285714Y-27928628D01*
X71285714Y-27928628D02*
X71333333Y-27833390D01*
%TO.C,SW6*%
D12*
X66770000Y-18770000D02*
X73230000Y-18770000D01*
X66770000Y-18800000D02*
X66770000Y-18770000D01*
X66770000Y-20700000D02*
X66770000Y-23300000D01*
X66770000Y-25230000D02*
X66770000Y-25200000D01*
X66770000Y-25230000D02*
X73230000Y-25230000D01*
X73230000Y-18770000D02*
X73230000Y-18800000D01*
X73230000Y-20700000D02*
X73230000Y-23300000D01*
X73230000Y-25230000D02*
X73230000Y-25200000D01*
%TO.C,SW11*%
X46770000Y-38770000D02*
X53230000Y-38770000D01*
X46770000Y-38800000D02*
X46770000Y-38770000D01*
X46770000Y-40700000D02*
X46770000Y-43300000D01*
X46770000Y-45230000D02*
X46770000Y-45200000D01*
X46770000Y-45230000D02*
X53230000Y-45230000D01*
X53230000Y-38770000D02*
X53230000Y-38800000D01*
X53230000Y-40700000D02*
X53230000Y-43300000D01*
X53230000Y-45230000D02*
X53230000Y-45200000D01*
%TO.C,SW4*%
X26770000Y-18770000D02*
X33230000Y-18770000D01*
X26770000Y-18800000D02*
X26770000Y-18770000D01*
X26770000Y-20700000D02*
X26770000Y-23300000D01*
X26770000Y-25230000D02*
X26770000Y-25200000D01*
X26770000Y-25230000D02*
X33230000Y-25230000D01*
X33230000Y-18770000D02*
X33230000Y-18800000D01*
X33230000Y-20700000D02*
X33230000Y-23300000D01*
X33230000Y-25230000D02*
X33230000Y-25200000D01*
%TO.C,SW8*%
X46770000Y-28770000D02*
X53230000Y-28770000D01*
X46770000Y-28800000D02*
X46770000Y-28770000D01*
X46770000Y-30700000D02*
X46770000Y-33300000D01*
X46770000Y-35230000D02*
X46770000Y-35200000D01*
X46770000Y-35230000D02*
X53230000Y-35230000D01*
X53230000Y-28770000D02*
X53230000Y-28800000D01*
X53230000Y-30700000D02*
X53230000Y-33300000D01*
X53230000Y-35230000D02*
X53230000Y-35200000D01*
%TO.C,SW1*%
X26770000Y-8770000D02*
X33230000Y-8770000D01*
X26770000Y-8800000D02*
X26770000Y-8770000D01*
X26770000Y-10700000D02*
X26770000Y-13300000D01*
X26770000Y-15230000D02*
X26770000Y-15200000D01*
X26770000Y-15230000D02*
X33230000Y-15230000D01*
X33230000Y-8770000D02*
X33230000Y-8800000D01*
X33230000Y-10700000D02*
X33230000Y-13300000D01*
X33230000Y-15230000D02*
X33230000Y-15200000D01*
%TO.C,SW10*%
X26770000Y-38770000D02*
X33230000Y-38770000D01*
X26770000Y-38800000D02*
X26770000Y-38770000D01*
X26770000Y-40700000D02*
X26770000Y-43300000D01*
X26770000Y-45230000D02*
X26770000Y-45200000D01*
X26770000Y-45230000D02*
X33230000Y-45230000D01*
X33230000Y-38770000D02*
X33230000Y-38800000D01*
X33230000Y-40700000D02*
X33230000Y-43300000D01*
X33230000Y-45230000D02*
X33230000Y-45200000D01*
%TO.C,SW7*%
X26770000Y-28770000D02*
X33230000Y-28770000D01*
X26770000Y-28800000D02*
X26770000Y-28770000D01*
X26770000Y-30700000D02*
X26770000Y-33300000D01*
X26770000Y-35230000D02*
X26770000Y-35200000D01*
X26770000Y-35230000D02*
X33230000Y-35230000D01*
X33230000Y-28770000D02*
X33230000Y-28800000D01*
X33230000Y-30700000D02*
X33230000Y-33300000D01*
X33230000Y-35230000D02*
X33230000Y-35200000D01*
%TO.C,SW5*%
X46770000Y-18770000D02*
X53230000Y-18770000D01*
X46770000Y-18800000D02*
X46770000Y-18770000D01*
X46770000Y-20700000D02*
X46770000Y-23300000D01*
X46770000Y-25230000D02*
X46770000Y-25200000D01*
X46770000Y-25230000D02*
X53230000Y-25230000D01*
X53230000Y-18770000D02*
X53230000Y-18800000D01*
X53230000Y-20700000D02*
X53230000Y-23300000D01*
X53230000Y-25230000D02*
X53230000Y-25200000D01*
%TO.C,SW2*%
X46770000Y-8770000D02*
X53230000Y-8770000D01*
X46770000Y-8800000D02*
X46770000Y-8770000D01*
X46770000Y-10700000D02*
X46770000Y-13300000D01*
X46770000Y-15230000D02*
X46770000Y-15200000D01*
X46770000Y-15230000D02*
X53230000Y-15230000D01*
X53230000Y-8770000D02*
X53230000Y-8800000D01*
X53230000Y-10700000D02*
X53230000Y-13300000D01*
X53230000Y-15230000D02*
X53230000Y-15200000D01*
%TO.C,LED1*%
X55315000Y-56040000D02*
X55315000Y-57960000D01*
X55315000Y-57960000D02*
X58000000Y-57960000D01*
X58000000Y-56040000D02*
X55315000Y-56040000D01*
%TO.C,SW3*%
X66770000Y-8770000D02*
X73230000Y-8770000D01*
X66770000Y-8800000D02*
X66770000Y-8770000D01*
X66770000Y-10700000D02*
X66770000Y-13300000D01*
X66770000Y-15230000D02*
X66770000Y-15200000D01*
X66770000Y-15230000D02*
X73230000Y-15230000D01*
X73230000Y-8770000D02*
X73230000Y-8800000D01*
X73230000Y-10700000D02*
X73230000Y-13300000D01*
X73230000Y-15230000D02*
X73230000Y-15200000D01*
%TO.C,SW12*%
X66770000Y-38770000D02*
X73230000Y-38770000D01*
X66770000Y-38800000D02*
X66770000Y-38770000D01*
X66770000Y-40700000D02*
X66770000Y-43300000D01*
X66770000Y-45230000D02*
X66770000Y-45200000D01*
X66770000Y-45230000D02*
X73230000Y-45230000D01*
X73230000Y-38770000D02*
X73230000Y-38800000D01*
X73230000Y-40700000D02*
X73230000Y-43300000D01*
X73230000Y-45230000D02*
X73230000Y-45200000D01*
%TO.C,SW9*%
X66770000Y-28770000D02*
X73230000Y-28770000D01*
X66770000Y-28800000D02*
X66770000Y-28770000D01*
X66770000Y-30700000D02*
X66770000Y-33300000D01*
X66770000Y-35230000D02*
X66770000Y-35200000D01*
X66770000Y-35230000D02*
X73230000Y-35230000D01*
X73230000Y-28770000D02*
X73230000Y-28800000D01*
X73230000Y-30700000D02*
X73230000Y-33300000D01*
X73230000Y-35230000D02*
X73230000Y-35200000D01*
%TD*%
G36*
X94017183Y-718907D02*
G01*
X94028996Y-728996D01*
X99271004Y-5971004D01*
X99298781Y-6025521D01*
X99300000Y-6041008D01*
X99300000Y-53958992D01*
X99281093Y-54017183D01*
X99271004Y-54028996D01*
X94028996Y-59271004D01*
X93974479Y-59298781D01*
X93958992Y-59300000D01*
X6041008Y-59300000D01*
X5982817Y-59281093D01*
X5971004Y-59271004D01*
X728996Y-54028996D01*
X701219Y-53974479D01*
X700000Y-53958992D01*
X700000Y-6041008D01*
X718907Y-5982817D01*
X728996Y-5971004D01*
X5971004Y-728996D01*
X6025521Y-701219D01*
X6041008Y-700000D01*
X93958992Y-700000D01*
X94017183Y-718907D01*
G37*
M02*
