%TF.GenerationSoftware,KiCad,Pcbnew,10.0.4*%
%TF.CreationDate,2026-07-27T17:57:11+02:00*%
%TF.ProjectId,HM-BlueRemote-12,484d2d42-6c75-4655-9265-6d6f74652d31,rev?*%
%TF.SameCoordinates,Original*%
%TF.FileFunction,Copper,L4,Bot*%
%TF.FilePolarity,Positive*%
%FSLAX46Y46*%
G04 Gerber Fmt 4.6, Leading zero omitted, Abs format (unit mm)*
G04 Created by KiCad (PCBNEW 10.0.4) date 2026-07-27 17:57:11*
%MOMM*%
%LPD*%
G01*
G04 APERTURE LIST*
G04 Aperture macros list*
%AMRoundRect*
0 Rectangle with rounded corners*
0 $1 Rounding radius*
0 $2 $3 $4 $5 $6 $7 $8 $9 X,Y pos of 4 corners*
0 Add a 4 corners polygon primitive as box body*
4,1,4,$2,$3,$4,$5,$6,$7,$8,$9,$2,$3,0*
0 Add four circle primitives for the rounded corners*
1,1,$1+$1,$2,$3*
1,1,$1+$1,$4,$5*
1,1,$1+$1,$6,$7*
1,1,$1+$1,$8,$9*
0 Add four rect primitives between the rounded corners*
20,1,$1+$1,$2,$3,$4,$5,0*
20,1,$1+$1,$4,$5,$6,$7,0*
20,1,$1+$1,$6,$7,$8,$9,0*
20,1,$1+$1,$8,$9,$2,$3,0*%
G04 Aperture macros list end*
%TA.AperFunction,ComponentPad*%
%ADD10R,1.700000X1.700000*%
%TD*%
%TA.AperFunction,ComponentPad*%
%ADD11C,1.700000*%
%TD*%
%TA.AperFunction,SMDPad,CuDef*%
%ADD12RoundRect,0.250000X0.325000X0.650000X-0.325000X0.650000X-0.325000X-0.650000X0.325000X-0.650000X0*%
%TD*%
%TA.AperFunction,SMDPad,CuDef*%
%ADD13RoundRect,0.250000X0.250000X0.475000X-0.250000X0.475000X-0.250000X-0.475000X0.250000X-0.475000X0*%
%TD*%
%TA.AperFunction,ComponentPad*%
%ADD14RoundRect,0.250000X0.350000X0.625000X-0.350000X0.625000X-0.350000X-0.625000X0.350000X-0.625000X0*%
%TD*%
%TA.AperFunction,ComponentPad*%
%ADD15O,1.200000X1.750000*%
%TD*%
%TA.AperFunction,SMDPad,CuDef*%
%ADD16RoundRect,0.250000X0.262500X0.450000X-0.262500X0.450000X-0.262500X-0.450000X0.262500X-0.450000X0*%
%TD*%
%TA.AperFunction,ViaPad*%
%ADD17C,0.600000*%
%TD*%
%TA.AperFunction,Conductor*%
%ADD18C,0.400000*%
%TD*%
G04 APERTURE END LIST*
D10*
%TO.P,U2,1*%
%TO.N,VCC*%
X50000000Y-50000000D03*
D11*
%TO.P,U2,2*%
%TO.N,GND*%
X52540000Y-50000000D03*
%TO.P,U2,3*%
%TO.N,MOSI*%
X50000000Y-52540000D03*
%TO.P,U2,4*%
%TO.N,SCK*%
X52540000Y-52540000D03*
%TO.P,U2,5*%
%TO.N,MISO*%
X50000000Y-55080000D03*
%TO.P,U2,6*%
%TO.N,N/C*%
X52540000Y-55080000D03*
%TO.P,U2,7*%
%TO.N,GDO0*%
X50000000Y-57620000D03*
%TO.P,U2,8*%
%TO.N,CS*%
X52540000Y-57620000D03*
%TD*%
D12*
%TO.P,C2,1*%
%TO.N,VCC*%
X16475000Y-56000000D03*
%TO.P,C2,2*%
%TO.N,GND*%
X13525000Y-56000000D03*
%TD*%
D10*
%TO.P,U1,1*%
%TO.N,GND*%
X61430000Y-2370000D03*
D11*
%TO.P,U1,2*%
%TO.N,VCC*%
X61430000Y-4910000D03*
%TO.P,U1,3*%
%TO.N,LED_SIG*%
X61430000Y-7450000D03*
%TO.P,U1,4*%
%TO.N,N/C*%
X61430000Y-9990000D03*
%TO.P,U1,5*%
X61430000Y-12530000D03*
%TO.P,U1,6*%
%TO.N,GDO0*%
X61430000Y-15070000D03*
%TO.P,U1,7*%
%TO.N,CS*%
X61430000Y-17610000D03*
%TO.P,U1,8*%
%TO.N,SCK*%
X61430000Y-20150000D03*
%TO.P,U1,9*%
%TO.N,MISO*%
X61430000Y-22690000D03*
%TO.P,U1,10*%
%TO.N,MOSI*%
X61430000Y-25230000D03*
%TO.P,U1,11*%
%TO.N,N/C*%
X61430000Y-27770000D03*
%TO.P,U1,12*%
X61430000Y-30310000D03*
%TO.P,U1,13*%
X61430000Y-32850000D03*
%TO.P,U1,14*%
%TO.N,BTN1*%
X61430000Y-35390000D03*
%TO.P,U1,15*%
%TO.N,BTN2*%
X61430000Y-37930000D03*
%TO.P,U1,16*%
%TO.N,N/C*%
X61430000Y-40470000D03*
%TO.P,U1,17*%
X61430000Y-43010000D03*
%TO.P,U1,18*%
%TO.N,BTN10*%
X61430000Y-45550000D03*
%TO.P,U1,19*%
%TO.N,BTN11*%
X61430000Y-48090000D03*
%TO.P,U1,20*%
%TO.N,BTN12*%
X61430000Y-50630000D03*
%TO.P,U1,21*%
%TO.N,N/C*%
X38570000Y-2370000D03*
%TO.P,U1,22*%
X38570000Y-4910000D03*
%TO.P,U1,23*%
X38570000Y-7450000D03*
%TO.P,U1,24*%
X38570000Y-9990000D03*
%TO.P,U1,25*%
X38570000Y-12530000D03*
%TO.P,U1,26*%
X38570000Y-15070000D03*
%TO.P,U1,27*%
X38570000Y-17610000D03*
%TO.P,U1,28*%
X38570000Y-20150000D03*
%TO.P,U1,29*%
X38570000Y-22690000D03*
%TO.P,U1,30*%
X38570000Y-25230000D03*
%TO.P,U1,31*%
%TO.N,BTN3*%
X38570000Y-27770000D03*
%TO.P,U1,32*%
%TO.N,BTN4*%
X38570000Y-30310000D03*
%TO.P,U1,33*%
%TO.N,BTN5*%
X38570000Y-32850000D03*
%TO.P,U1,34*%
%TO.N,BTN6*%
X38570000Y-35390000D03*
%TO.P,U1,35*%
%TO.N,BTN7*%
X38570000Y-37930000D03*
%TO.P,U1,36*%
%TO.N,BTN8*%
X38570000Y-40470000D03*
%TO.P,U1,37*%
%TO.N,BTN9*%
X38570000Y-43010000D03*
%TO.P,U1,38*%
%TO.N,N/C*%
X38570000Y-45550000D03*
%TO.P,U1,39*%
X38570000Y-48090000D03*
%TO.P,U1,40*%
X38570000Y-50630000D03*
%TD*%
D13*
%TO.P,C1,1*%
%TO.N,VCC*%
X44950000Y-54000000D03*
%TO.P,C1,2*%
%TO.N,GND*%
X43050000Y-54000000D03*
%TD*%
D14*
%TO.P,J1,1*%
%TO.N,GND*%
X15000000Y-50000000D03*
D15*
%TO.P,J1,2*%
%TO.N,VCC*%
X13000000Y-50000000D03*
%TD*%
D16*
%TO.P,R1,1*%
%TO.N,LED_SIG*%
X60912500Y-54000000D03*
%TO.P,R1,2*%
%TO.N,LED_A*%
X59087500Y-54000000D03*
%TD*%
D17*
%TO.N,BTN6*%
X57561900Y-1562300D03*
X65136700Y-4375600D03*
%TO.N,GND*%
X26020000Y-44250000D03*
X53980000Y-14250000D03*
X73980000Y-44250000D03*
X53980000Y-44250000D03*
X53980000Y-34250000D03*
X66020000Y-44250000D03*
X33980000Y-14250000D03*
X33980000Y-34250000D03*
X66020000Y-34250000D03*
X66020000Y-14250000D03*
X73980000Y-24250000D03*
X13525000Y-56000000D03*
X43050000Y-54000000D03*
X53980000Y-24250000D03*
X26020000Y-34250000D03*
X73980000Y-34250000D03*
X33980000Y-44250000D03*
X26020000Y-14250000D03*
X46020000Y-14250000D03*
X46020000Y-44250000D03*
X66020000Y-24250000D03*
X73980000Y-14250000D03*
X56062500Y-57000000D03*
X46020000Y-24250000D03*
X33980000Y-24250000D03*
X46020000Y-34250000D03*
X26020000Y-24250000D03*
%TO.N,BTN11*%
X53829900Y-41212300D03*
%TO.N,BTN1*%
X51622600Y-24414600D03*
X52342700Y-27759000D03*
X42413600Y-24829000D03*
%TO.N,BTN10*%
X55445200Y-40996700D03*
%TO.N,BTN2*%
X43366100Y-27833800D03*
%TO.N,LED_A*%
X57234500Y-52933200D03*
%TO.N,BTN3*%
X56308500Y-7426100D03*
%TO.N,BTN9*%
X69156900Y-52933200D03*
%TO.N,VCC*%
X44950000Y-54000000D03*
X16475000Y-56000000D03*
%TO.N,MOSI*%
X56883500Y-29251000D03*
%TO.N,SCK*%
X57597500Y-46773600D03*
%TO.N,MISO*%
X50621300Y-59218300D03*
%TO.N,GDO0*%
X54238200Y-49140700D03*
%TO.N,LED_SIG*%
X52231400Y-44802700D03*
X57297900Y-7066000D03*
%TD*%
%TO.N,BTN6*%
D18*
X65136700Y-4375600D02*
X65136700Y-3625000D01*
X58105900Y-1018300D02*
X57561900Y-1562300D01*
X65136700Y-3625000D02*
X62530000Y-1018300D01*
X62530000Y-1018300D02*
X58105900Y-1018300D01*
%TO.N,BTN11*%
X60707600Y-48090000D02*
X61430000Y-48090000D01*
X53829900Y-41212300D02*
X60707600Y-48090000D01*
%TO.N,BTN1*%
X52342700Y-27759000D02*
X53799000Y-27759000D01*
X53799000Y-27759000D02*
X61430000Y-35390000D01*
X50985500Y-25051700D02*
X51622600Y-24414600D01*
X42413600Y-24829000D02*
X42636300Y-25051700D01*
X42636300Y-25051700D02*
X50985500Y-25051700D01*
%TO.N,BTN10*%
X55445200Y-40996700D02*
X56876700Y-40996700D01*
X56876700Y-40996700D02*
X61430000Y-45550000D01*
%TO.N,BTN2*%
X53462300Y-37930000D02*
X61430000Y-37930000D01*
X43366100Y-27833800D02*
X53462300Y-37930000D01*
%TO.N,LED_A*%
X58020700Y-52933200D02*
X59087500Y-54000000D01*
X57234500Y-52933200D02*
X58020700Y-52933200D01*
%TO.N,BTN3*%
X56308500Y-7426100D02*
X56308500Y-9800400D01*
X38570000Y-27538900D02*
X38570000Y-27770000D01*
X56308500Y-9800400D02*
X38570000Y-27538900D01*
%TO.N,BTN9*%
X38570000Y-43010000D02*
X51723800Y-43010000D01*
X53390000Y-44840000D02*
X61647000Y-52933200D01*
X61647000Y-52933200D02*
X69156900Y-52933200D01*
X51723800Y-43010000D02*
X53390000Y-44840000D01*
%TO.N,VCC*%
X43708400Y-52758400D02*
X44950000Y-54000000D01*
X16475000Y-56000000D02*
X19716600Y-52758400D01*
X50000000Y-50000000D02*
X48648300Y-50000000D01*
X48648300Y-50301700D02*
X44950000Y-54000000D01*
X19716600Y-52758400D02*
X43708400Y-52758400D01*
X48648300Y-50000000D02*
X48648300Y-50301700D01*
%TO.N,MOSI*%
X61430000Y-25230000D02*
X60904500Y-25230000D01*
X60904500Y-25230000D02*
X56883500Y-29251000D01*
%TO.N,SCK*%
X54624400Y-26955600D02*
X43046100Y-26955600D01*
X53335000Y-42776000D02*
X54621000Y-43610000D01*
X43046100Y-26955600D02*
X42525900Y-27475800D01*
X61430000Y-20150000D02*
X54624400Y-26955600D01*
X42525900Y-31967000D02*
X53335000Y-42776000D01*
X42525900Y-27475800D02*
X42525900Y-31967000D01*
X57332500Y-46773600D02*
X57597500Y-46773600D01*
X54621000Y-43610000D02*
X57332500Y-46773600D01*
%TO.N,MISO*%
X48648300Y-56431700D02*
X48648300Y-58214700D01*
X48648300Y-58214700D02*
X49651900Y-59218300D01*
X50000000Y-55080000D02*
X48648300Y-56431700D01*
X49651900Y-59218300D02*
X50621300Y-59218300D01*
%TO.N,GDO0*%
X50156800Y-57620000D02*
X50000000Y-57620000D01*
X54238200Y-49140700D02*
X54238200Y-57925800D01*
X54238200Y-57925800D02*
X53192300Y-58971700D01*
X53192300Y-58971700D02*
X51508500Y-58971700D01*
X51508500Y-58971700D02*
X50156800Y-57620000D01*
%TO.N,LED_SIG*%
X60912500Y-54000000D02*
X52231400Y-45318900D01*
X52231400Y-45318900D02*
X52231400Y-44802700D01*
X57297900Y-7066000D02*
X61046000Y-7066000D01*
X61046000Y-7066000D02*
X61430000Y-7450000D01*
%TD*%
M02*
