%TF.GenerationSoftware,KiCad,Pcbnew,10.0.4*%
%TF.CreationDate,2026-07-27T17:57:11+02:00*%
%TF.ProjectId,HM-BlueRemote-12,484d2d42-6c75-4655-9265-6d6f74652d31,rev?*%
%TF.SameCoordinates,Original*%
%TF.FileFunction,AssemblyDrawing,Bot*%
%FSLAX46Y46*%
G04 Gerber Fmt 4.6, Leading zero omitted, Abs format (unit mm)*
G04 Created by KiCad (PCBNEW 10.0.4) date 2026-07-27 17:57:11*
%MOMM*%
%LPD*%
G01*
G04 APERTURE LIST*
%ADD10C,0.150000*%
%ADD11C,0.120000*%
%ADD12C,0.080000*%
%ADD13C,0.100000*%
G04 APERTURE END LIST*
D10*
X53365238Y-60749580D02*
X53412857Y-60797200D01*
X53412857Y-60797200D02*
X53555714Y-60844819D01*
X53555714Y-60844819D02*
X53650952Y-60844819D01*
X53650952Y-60844819D02*
X53793809Y-60797200D01*
X53793809Y-60797200D02*
X53889047Y-60701961D01*
X53889047Y-60701961D02*
X53936666Y-60606723D01*
X53936666Y-60606723D02*
X53984285Y-60416247D01*
X53984285Y-60416247D02*
X53984285Y-60273390D01*
X53984285Y-60273390D02*
X53936666Y-60082914D01*
X53936666Y-60082914D02*
X53889047Y-59987676D01*
X53889047Y-59987676D02*
X53793809Y-59892438D01*
X53793809Y-59892438D02*
X53650952Y-59844819D01*
X53650952Y-59844819D02*
X53555714Y-59844819D01*
X53555714Y-59844819D02*
X53412857Y-59892438D01*
X53412857Y-59892438D02*
X53365238Y-59940057D01*
X52365238Y-60749580D02*
X52412857Y-60797200D01*
X52412857Y-60797200D02*
X52555714Y-60844819D01*
X52555714Y-60844819D02*
X52650952Y-60844819D01*
X52650952Y-60844819D02*
X52793809Y-60797200D01*
X52793809Y-60797200D02*
X52889047Y-60701961D01*
X52889047Y-60701961D02*
X52936666Y-60606723D01*
X52936666Y-60606723D02*
X52984285Y-60416247D01*
X52984285Y-60416247D02*
X52984285Y-60273390D01*
X52984285Y-60273390D02*
X52936666Y-60082914D01*
X52936666Y-60082914D02*
X52889047Y-59987676D01*
X52889047Y-59987676D02*
X52793809Y-59892438D01*
X52793809Y-59892438D02*
X52650952Y-59844819D01*
X52650952Y-59844819D02*
X52555714Y-59844819D01*
X52555714Y-59844819D02*
X52412857Y-59892438D01*
X52412857Y-59892438D02*
X52365238Y-59940057D01*
X51412857Y-60844819D02*
X51984285Y-60844819D01*
X51698571Y-60844819D02*
X51698571Y-59844819D01*
X51698571Y-59844819D02*
X51793809Y-59987676D01*
X51793809Y-59987676D02*
X51889047Y-60082914D01*
X51889047Y-60082914D02*
X51984285Y-60130533D01*
X50460476Y-60844819D02*
X51031904Y-60844819D01*
X50746190Y-60844819D02*
X50746190Y-59844819D01*
X50746190Y-59844819D02*
X50841428Y-59987676D01*
X50841428Y-59987676D02*
X50936666Y-60082914D01*
X50936666Y-60082914D02*
X51031904Y-60130533D01*
X49841428Y-59844819D02*
X49746190Y-59844819D01*
X49746190Y-59844819D02*
X49650952Y-59892438D01*
X49650952Y-59892438D02*
X49603333Y-59940057D01*
X49603333Y-59940057D02*
X49555714Y-60035295D01*
X49555714Y-60035295D02*
X49508095Y-60225771D01*
X49508095Y-60225771D02*
X49508095Y-60463866D01*
X49508095Y-60463866D02*
X49555714Y-60654342D01*
X49555714Y-60654342D02*
X49603333Y-60749580D01*
X49603333Y-60749580D02*
X49650952Y-60797200D01*
X49650952Y-60797200D02*
X49746190Y-60844819D01*
X49746190Y-60844819D02*
X49841428Y-60844819D01*
X49841428Y-60844819D02*
X49936666Y-60797200D01*
X49936666Y-60797200D02*
X49984285Y-60749580D01*
X49984285Y-60749580D02*
X50031904Y-60654342D01*
X50031904Y-60654342D02*
X50079523Y-60463866D01*
X50079523Y-60463866D02*
X50079523Y-60225771D01*
X50079523Y-60225771D02*
X50031904Y-60035295D01*
X50031904Y-60035295D02*
X49984285Y-59940057D01*
X49984285Y-59940057D02*
X49936666Y-59892438D01*
X49936666Y-59892438D02*
X49841428Y-59844819D01*
X48555714Y-60844819D02*
X49127142Y-60844819D01*
X48841428Y-60844819D02*
X48841428Y-59844819D01*
X48841428Y-59844819D02*
X48936666Y-59987676D01*
X48936666Y-59987676D02*
X49031904Y-60082914D01*
X49031904Y-60082914D02*
X49127142Y-60130533D01*
X50724819Y-53048095D02*
X51534342Y-53048095D01*
X51534342Y-53048095D02*
X51629580Y-53095714D01*
X51629580Y-53095714D02*
X51677200Y-53143333D01*
X51677200Y-53143333D02*
X51724819Y-53238571D01*
X51724819Y-53238571D02*
X51724819Y-53429047D01*
X51724819Y-53429047D02*
X51677200Y-53524285D01*
X51677200Y-53524285D02*
X51629580Y-53571904D01*
X51629580Y-53571904D02*
X51534342Y-53619523D01*
X51534342Y-53619523D02*
X50724819Y-53619523D01*
X50820057Y-54048095D02*
X50772438Y-54095714D01*
X50772438Y-54095714D02*
X50724819Y-54190952D01*
X50724819Y-54190952D02*
X50724819Y-54429047D01*
X50724819Y-54429047D02*
X50772438Y-54524285D01*
X50772438Y-54524285D02*
X50820057Y-54571904D01*
X50820057Y-54571904D02*
X50915295Y-54619523D01*
X50915295Y-54619523D02*
X51010533Y-54619523D01*
X51010533Y-54619523D02*
X51153390Y-54571904D01*
X51153390Y-54571904D02*
X51724819Y-54000476D01*
X51724819Y-54000476D02*
X51724819Y-54619523D01*
X16071428Y-58304819D02*
X16642856Y-58304819D01*
X16357142Y-58304819D02*
X16357142Y-57304819D01*
X16357142Y-57304819D02*
X16452380Y-57447676D01*
X16452380Y-57447676D02*
X16547618Y-57542914D01*
X16547618Y-57542914D02*
X16642856Y-57590533D01*
X15452380Y-57304819D02*
X15357142Y-57304819D01*
X15357142Y-57304819D02*
X15261904Y-57352438D01*
X15261904Y-57352438D02*
X15214285Y-57400057D01*
X15214285Y-57400057D02*
X15166666Y-57495295D01*
X15166666Y-57495295D02*
X15119047Y-57685771D01*
X15119047Y-57685771D02*
X15119047Y-57923866D01*
X15119047Y-57923866D02*
X15166666Y-58114342D01*
X15166666Y-58114342D02*
X15214285Y-58209580D01*
X15214285Y-58209580D02*
X15261904Y-58257200D01*
X15261904Y-58257200D02*
X15357142Y-58304819D01*
X15357142Y-58304819D02*
X15452380Y-58304819D01*
X15452380Y-58304819D02*
X15547618Y-58257200D01*
X15547618Y-58257200D02*
X15595237Y-58209580D01*
X15595237Y-58209580D02*
X15642856Y-58114342D01*
X15642856Y-58114342D02*
X15690475Y-57923866D01*
X15690475Y-57923866D02*
X15690475Y-57685771D01*
X15690475Y-57685771D02*
X15642856Y-57495295D01*
X15642856Y-57495295D02*
X15595237Y-57400057D01*
X15595237Y-57400057D02*
X15547618Y-57352438D01*
X15547618Y-57352438D02*
X15452380Y-57304819D01*
X14261904Y-57638152D02*
X14261904Y-58304819D01*
X14690475Y-57638152D02*
X14690475Y-58161961D01*
X14690475Y-58161961D02*
X14642856Y-58257200D01*
X14642856Y-58257200D02*
X14547618Y-58304819D01*
X14547618Y-58304819D02*
X14404761Y-58304819D01*
X14404761Y-58304819D02*
X14309523Y-58257200D01*
X14309523Y-58257200D02*
X14261904Y-58209580D01*
X13452380Y-57781009D02*
X13785713Y-57781009D01*
X13785713Y-58304819D02*
X13785713Y-57304819D01*
X13785713Y-57304819D02*
X13309523Y-57304819D01*
D11*
X15133332Y-56287664D02*
X15171428Y-56325760D01*
X15171428Y-56325760D02*
X15285713Y-56363855D01*
X15285713Y-56363855D02*
X15361904Y-56363855D01*
X15361904Y-56363855D02*
X15476190Y-56325760D01*
X15476190Y-56325760D02*
X15552380Y-56249569D01*
X15552380Y-56249569D02*
X15590475Y-56173379D01*
X15590475Y-56173379D02*
X15628571Y-56020998D01*
X15628571Y-56020998D02*
X15628571Y-55906712D01*
X15628571Y-55906712D02*
X15590475Y-55754331D01*
X15590475Y-55754331D02*
X15552380Y-55678140D01*
X15552380Y-55678140D02*
X15476190Y-55601950D01*
X15476190Y-55601950D02*
X15361904Y-55563855D01*
X15361904Y-55563855D02*
X15285713Y-55563855D01*
X15285713Y-55563855D02*
X15171428Y-55601950D01*
X15171428Y-55601950D02*
X15133332Y-55640045D01*
X14828571Y-55640045D02*
X14790475Y-55601950D01*
X14790475Y-55601950D02*
X14714285Y-55563855D01*
X14714285Y-55563855D02*
X14523809Y-55563855D01*
X14523809Y-55563855D02*
X14447618Y-55601950D01*
X14447618Y-55601950D02*
X14409523Y-55640045D01*
X14409523Y-55640045D02*
X14371428Y-55716236D01*
X14371428Y-55716236D02*
X14371428Y-55792426D01*
X14371428Y-55792426D02*
X14409523Y-55906712D01*
X14409523Y-55906712D02*
X14866666Y-56363855D01*
X14866666Y-56363855D02*
X14371428Y-56363855D01*
D10*
X55880952Y-28177200D02*
X55738095Y-28224819D01*
X55738095Y-28224819D02*
X55500000Y-28224819D01*
X55500000Y-28224819D02*
X55404762Y-28177200D01*
X55404762Y-28177200D02*
X55357143Y-28129580D01*
X55357143Y-28129580D02*
X55309524Y-28034342D01*
X55309524Y-28034342D02*
X55309524Y-27939104D01*
X55309524Y-27939104D02*
X55357143Y-27843866D01*
X55357143Y-27843866D02*
X55404762Y-27796247D01*
X55404762Y-27796247D02*
X55500000Y-27748628D01*
X55500000Y-27748628D02*
X55690476Y-27701009D01*
X55690476Y-27701009D02*
X55785714Y-27653390D01*
X55785714Y-27653390D02*
X55833333Y-27605771D01*
X55833333Y-27605771D02*
X55880952Y-27510533D01*
X55880952Y-27510533D02*
X55880952Y-27415295D01*
X55880952Y-27415295D02*
X55833333Y-27320057D01*
X55833333Y-27320057D02*
X55785714Y-27272438D01*
X55785714Y-27272438D02*
X55690476Y-27224819D01*
X55690476Y-27224819D02*
X55452381Y-27224819D01*
X55452381Y-27224819D02*
X55309524Y-27272438D01*
X55023809Y-27224819D02*
X54452381Y-27224819D01*
X54738095Y-28224819D02*
X54738095Y-27224819D01*
X54119047Y-28224819D02*
X54119047Y-27224819D01*
X54119047Y-27224819D02*
X53785714Y-27939104D01*
X53785714Y-27939104D02*
X53452381Y-27224819D01*
X53452381Y-27224819D02*
X53452381Y-28224819D01*
X53071428Y-27224819D02*
X52452381Y-27224819D01*
X52452381Y-27224819D02*
X52785714Y-27605771D01*
X52785714Y-27605771D02*
X52642857Y-27605771D01*
X52642857Y-27605771D02*
X52547619Y-27653390D01*
X52547619Y-27653390D02*
X52500000Y-27701009D01*
X52500000Y-27701009D02*
X52452381Y-27796247D01*
X52452381Y-27796247D02*
X52452381Y-28034342D01*
X52452381Y-28034342D02*
X52500000Y-28129580D01*
X52500000Y-28129580D02*
X52547619Y-28177200D01*
X52547619Y-28177200D02*
X52642857Y-28224819D01*
X52642857Y-28224819D02*
X52928571Y-28224819D01*
X52928571Y-28224819D02*
X53023809Y-28177200D01*
X53023809Y-28177200D02*
X53071428Y-28129580D01*
X52071428Y-27320057D02*
X52023809Y-27272438D01*
X52023809Y-27272438D02*
X51928571Y-27224819D01*
X51928571Y-27224819D02*
X51690476Y-27224819D01*
X51690476Y-27224819D02*
X51595238Y-27272438D01*
X51595238Y-27272438D02*
X51547619Y-27320057D01*
X51547619Y-27320057D02*
X51500000Y-27415295D01*
X51500000Y-27415295D02*
X51500000Y-27510533D01*
X51500000Y-27510533D02*
X51547619Y-27653390D01*
X51547619Y-27653390D02*
X52119047Y-28224819D01*
X52119047Y-28224819D02*
X51500000Y-28224819D01*
X50738095Y-27701009D02*
X51071428Y-27701009D01*
X51071428Y-28224819D02*
X51071428Y-27224819D01*
X51071428Y-27224819D02*
X50595238Y-27224819D01*
X49690476Y-28224819D02*
X50261904Y-28224819D01*
X49976190Y-28224819D02*
X49976190Y-27224819D01*
X49976190Y-27224819D02*
X50071428Y-27367676D01*
X50071428Y-27367676D02*
X50166666Y-27462914D01*
X50166666Y-27462914D02*
X50261904Y-27510533D01*
X49071428Y-27224819D02*
X48976190Y-27224819D01*
X48976190Y-27224819D02*
X48880952Y-27272438D01*
X48880952Y-27272438D02*
X48833333Y-27320057D01*
X48833333Y-27320057D02*
X48785714Y-27415295D01*
X48785714Y-27415295D02*
X48738095Y-27605771D01*
X48738095Y-27605771D02*
X48738095Y-27843866D01*
X48738095Y-27843866D02*
X48785714Y-28034342D01*
X48785714Y-28034342D02*
X48833333Y-28129580D01*
X48833333Y-28129580D02*
X48880952Y-28177200D01*
X48880952Y-28177200D02*
X48976190Y-28224819D01*
X48976190Y-28224819D02*
X49071428Y-28224819D01*
X49071428Y-28224819D02*
X49166666Y-28177200D01*
X49166666Y-28177200D02*
X49214285Y-28129580D01*
X49214285Y-28129580D02*
X49261904Y-28034342D01*
X49261904Y-28034342D02*
X49309523Y-27843866D01*
X49309523Y-27843866D02*
X49309523Y-27605771D01*
X49309523Y-27605771D02*
X49261904Y-27415295D01*
X49261904Y-27415295D02*
X49214285Y-27320057D01*
X49214285Y-27320057D02*
X49166666Y-27272438D01*
X49166666Y-27272438D02*
X49071428Y-27224819D01*
X48404761Y-27224819D02*
X47785714Y-27224819D01*
X47785714Y-27224819D02*
X48119047Y-27605771D01*
X48119047Y-27605771D02*
X47976190Y-27605771D01*
X47976190Y-27605771D02*
X47880952Y-27653390D01*
X47880952Y-27653390D02*
X47833333Y-27701009D01*
X47833333Y-27701009D02*
X47785714Y-27796247D01*
X47785714Y-27796247D02*
X47785714Y-28034342D01*
X47785714Y-28034342D02*
X47833333Y-28129580D01*
X47833333Y-28129580D02*
X47880952Y-28177200D01*
X47880952Y-28177200D02*
X47976190Y-28224819D01*
X47976190Y-28224819D02*
X48261904Y-28224819D01*
X48261904Y-28224819D02*
X48357142Y-28177200D01*
X48357142Y-28177200D02*
X48404761Y-28129580D01*
X46785714Y-28129580D02*
X46833333Y-28177200D01*
X46833333Y-28177200D02*
X46976190Y-28224819D01*
X46976190Y-28224819D02*
X47071428Y-28224819D01*
X47071428Y-28224819D02*
X47214285Y-28177200D01*
X47214285Y-28177200D02*
X47309523Y-28081961D01*
X47309523Y-28081961D02*
X47357142Y-27986723D01*
X47357142Y-27986723D02*
X47404761Y-27796247D01*
X47404761Y-27796247D02*
X47404761Y-27653390D01*
X47404761Y-27653390D02*
X47357142Y-27462914D01*
X47357142Y-27462914D02*
X47309523Y-27367676D01*
X47309523Y-27367676D02*
X47214285Y-27272438D01*
X47214285Y-27272438D02*
X47071428Y-27224819D01*
X47071428Y-27224819D02*
X46976190Y-27224819D01*
X46976190Y-27224819D02*
X46833333Y-27272438D01*
X46833333Y-27272438D02*
X46785714Y-27320057D01*
X46214285Y-27653390D02*
X46309523Y-27605771D01*
X46309523Y-27605771D02*
X46357142Y-27558152D01*
X46357142Y-27558152D02*
X46404761Y-27462914D01*
X46404761Y-27462914D02*
X46404761Y-27415295D01*
X46404761Y-27415295D02*
X46357142Y-27320057D01*
X46357142Y-27320057D02*
X46309523Y-27272438D01*
X46309523Y-27272438D02*
X46214285Y-27224819D01*
X46214285Y-27224819D02*
X46023809Y-27224819D01*
X46023809Y-27224819D02*
X45928571Y-27272438D01*
X45928571Y-27272438D02*
X45880952Y-27320057D01*
X45880952Y-27320057D02*
X45833333Y-27415295D01*
X45833333Y-27415295D02*
X45833333Y-27462914D01*
X45833333Y-27462914D02*
X45880952Y-27558152D01*
X45880952Y-27558152D02*
X45928571Y-27605771D01*
X45928571Y-27605771D02*
X46023809Y-27653390D01*
X46023809Y-27653390D02*
X46214285Y-27653390D01*
X46214285Y-27653390D02*
X46309523Y-27701009D01*
X46309523Y-27701009D02*
X46357142Y-27748628D01*
X46357142Y-27748628D02*
X46404761Y-27843866D01*
X46404761Y-27843866D02*
X46404761Y-28034342D01*
X46404761Y-28034342D02*
X46357142Y-28129580D01*
X46357142Y-28129580D02*
X46309523Y-28177200D01*
X46309523Y-28177200D02*
X46214285Y-28224819D01*
X46214285Y-28224819D02*
X46023809Y-28224819D01*
X46023809Y-28224819D02*
X45928571Y-28177200D01*
X45928571Y-28177200D02*
X45880952Y-28129580D01*
X45880952Y-28129580D02*
X45833333Y-28034342D01*
X45833333Y-28034342D02*
X45833333Y-27843866D01*
X45833333Y-27843866D02*
X45880952Y-27748628D01*
X45880952Y-27748628D02*
X45928571Y-27701009D01*
X45928571Y-27701009D02*
X46023809Y-27653390D01*
X45547618Y-27224819D02*
X44976190Y-27224819D01*
X45261904Y-28224819D02*
X45261904Y-27224819D01*
X44214285Y-27224819D02*
X44404761Y-27224819D01*
X44404761Y-27224819D02*
X44499999Y-27272438D01*
X44499999Y-27272438D02*
X44547618Y-27320057D01*
X44547618Y-27320057D02*
X44642856Y-27462914D01*
X44642856Y-27462914D02*
X44690475Y-27653390D01*
X44690475Y-27653390D02*
X44690475Y-28034342D01*
X44690475Y-28034342D02*
X44642856Y-28129580D01*
X44642856Y-28129580D02*
X44595237Y-28177200D01*
X44595237Y-28177200D02*
X44499999Y-28224819D01*
X44499999Y-28224819D02*
X44309523Y-28224819D01*
X44309523Y-28224819D02*
X44214285Y-28177200D01*
X44214285Y-28177200D02*
X44166666Y-28129580D01*
X44166666Y-28129580D02*
X44119047Y-28034342D01*
X44119047Y-28034342D02*
X44119047Y-27796247D01*
X44119047Y-27796247D02*
X44166666Y-27701009D01*
X44166666Y-27701009D02*
X44214285Y-27653390D01*
X44214285Y-27653390D02*
X44309523Y-27605771D01*
X44309523Y-27605771D02*
X44499999Y-27605771D01*
X44499999Y-27605771D02*
X44595237Y-27653390D01*
X44595237Y-27653390D02*
X44642856Y-27701009D01*
X44642856Y-27701009D02*
X44690475Y-27796247D01*
X45547619Y-56134819D02*
X46119047Y-56134819D01*
X45833333Y-56134819D02*
X45833333Y-55134819D01*
X45833333Y-55134819D02*
X45928571Y-55277676D01*
X45928571Y-55277676D02*
X46023809Y-55372914D01*
X46023809Y-55372914D02*
X46119047Y-55420533D01*
X44928571Y-55134819D02*
X44833333Y-55134819D01*
X44833333Y-55134819D02*
X44738095Y-55182438D01*
X44738095Y-55182438D02*
X44690476Y-55230057D01*
X44690476Y-55230057D02*
X44642857Y-55325295D01*
X44642857Y-55325295D02*
X44595238Y-55515771D01*
X44595238Y-55515771D02*
X44595238Y-55753866D01*
X44595238Y-55753866D02*
X44642857Y-55944342D01*
X44642857Y-55944342D02*
X44690476Y-56039580D01*
X44690476Y-56039580D02*
X44738095Y-56087200D01*
X44738095Y-56087200D02*
X44833333Y-56134819D01*
X44833333Y-56134819D02*
X44928571Y-56134819D01*
X44928571Y-56134819D02*
X45023809Y-56087200D01*
X45023809Y-56087200D02*
X45071428Y-56039580D01*
X45071428Y-56039580D02*
X45119047Y-55944342D01*
X45119047Y-55944342D02*
X45166666Y-55753866D01*
X45166666Y-55753866D02*
X45166666Y-55515771D01*
X45166666Y-55515771D02*
X45119047Y-55325295D01*
X45119047Y-55325295D02*
X45071428Y-55230057D01*
X45071428Y-55230057D02*
X45023809Y-55182438D01*
X45023809Y-55182438D02*
X44928571Y-55134819D01*
X43976190Y-55134819D02*
X43880952Y-55134819D01*
X43880952Y-55134819D02*
X43785714Y-55182438D01*
X43785714Y-55182438D02*
X43738095Y-55230057D01*
X43738095Y-55230057D02*
X43690476Y-55325295D01*
X43690476Y-55325295D02*
X43642857Y-55515771D01*
X43642857Y-55515771D02*
X43642857Y-55753866D01*
X43642857Y-55753866D02*
X43690476Y-55944342D01*
X43690476Y-55944342D02*
X43738095Y-56039580D01*
X43738095Y-56039580D02*
X43785714Y-56087200D01*
X43785714Y-56087200D02*
X43880952Y-56134819D01*
X43880952Y-56134819D02*
X43976190Y-56134819D01*
X43976190Y-56134819D02*
X44071428Y-56087200D01*
X44071428Y-56087200D02*
X44119047Y-56039580D01*
X44119047Y-56039580D02*
X44166666Y-55944342D01*
X44166666Y-55944342D02*
X44214285Y-55753866D01*
X44214285Y-55753866D02*
X44214285Y-55515771D01*
X44214285Y-55515771D02*
X44166666Y-55325295D01*
X44166666Y-55325295D02*
X44119047Y-55230057D01*
X44119047Y-55230057D02*
X44071428Y-55182438D01*
X44071428Y-55182438D02*
X43976190Y-55134819D01*
X43214285Y-55468152D02*
X43214285Y-56134819D01*
X43214285Y-55563390D02*
X43166666Y-55515771D01*
X43166666Y-55515771D02*
X43071428Y-55468152D01*
X43071428Y-55468152D02*
X42928571Y-55468152D01*
X42928571Y-55468152D02*
X42833333Y-55515771D01*
X42833333Y-55515771D02*
X42785714Y-55611009D01*
X42785714Y-55611009D02*
X42785714Y-56134819D01*
X41976190Y-55611009D02*
X42309523Y-55611009D01*
X42309523Y-56134819D02*
X42309523Y-55134819D01*
X42309523Y-55134819D02*
X41833333Y-55134819D01*
D12*
X44083333Y-54179530D02*
X44107142Y-54203340D01*
X44107142Y-54203340D02*
X44178571Y-54227149D01*
X44178571Y-54227149D02*
X44226190Y-54227149D01*
X44226190Y-54227149D02*
X44297618Y-54203340D01*
X44297618Y-54203340D02*
X44345237Y-54155720D01*
X44345237Y-54155720D02*
X44369047Y-54108101D01*
X44369047Y-54108101D02*
X44392856Y-54012863D01*
X44392856Y-54012863D02*
X44392856Y-53941435D01*
X44392856Y-53941435D02*
X44369047Y-53846197D01*
X44369047Y-53846197D02*
X44345237Y-53798578D01*
X44345237Y-53798578D02*
X44297618Y-53750959D01*
X44297618Y-53750959D02*
X44226190Y-53727149D01*
X44226190Y-53727149D02*
X44178571Y-53727149D01*
X44178571Y-53727149D02*
X44107142Y-53750959D01*
X44107142Y-53750959D02*
X44083333Y-53774768D01*
X43607142Y-54227149D02*
X43892856Y-54227149D01*
X43749999Y-54227149D02*
X43749999Y-53727149D01*
X43749999Y-53727149D02*
X43797618Y-53798578D01*
X43797618Y-53798578D02*
X43845237Y-53846197D01*
X43845237Y-53846197D02*
X43892856Y-53870006D01*
D10*
X17738095Y-53550057D02*
X17690476Y-53502438D01*
X17690476Y-53502438D02*
X17595238Y-53454819D01*
X17595238Y-53454819D02*
X17357143Y-53454819D01*
X17357143Y-53454819D02*
X17261905Y-53502438D01*
X17261905Y-53502438D02*
X17214286Y-53550057D01*
X17214286Y-53550057D02*
X17166667Y-53645295D01*
X17166667Y-53645295D02*
X17166667Y-53740533D01*
X17166667Y-53740533D02*
X17214286Y-53883390D01*
X17214286Y-53883390D02*
X17785714Y-54454819D01*
X17785714Y-54454819D02*
X17166667Y-54454819D01*
X16833333Y-54454819D02*
X16309524Y-53788152D01*
X16833333Y-53788152D02*
X16309524Y-54454819D01*
X15976190Y-54169104D02*
X15500000Y-54169104D01*
X16071428Y-54454819D02*
X15738095Y-53454819D01*
X15738095Y-53454819D02*
X15404762Y-54454819D01*
X15119047Y-54169104D02*
X14642857Y-54169104D01*
X15214285Y-54454819D02*
X14880952Y-53454819D01*
X14880952Y-53454819D02*
X14547619Y-54454819D01*
X14261904Y-54169104D02*
X13785714Y-54169104D01*
X14357142Y-54454819D02*
X14023809Y-53454819D01*
X14023809Y-53454819D02*
X13690476Y-54454819D01*
X12690475Y-53454819D02*
X12071428Y-53454819D01*
X12071428Y-53454819D02*
X12404761Y-53835771D01*
X12404761Y-53835771D02*
X12261904Y-53835771D01*
X12261904Y-53835771D02*
X12166666Y-53883390D01*
X12166666Y-53883390D02*
X12119047Y-53931009D01*
X12119047Y-53931009D02*
X12071428Y-54026247D01*
X12071428Y-54026247D02*
X12071428Y-54264342D01*
X12071428Y-54264342D02*
X12119047Y-54359580D01*
X12119047Y-54359580D02*
X12166666Y-54407200D01*
X12166666Y-54407200D02*
X12261904Y-54454819D01*
X12261904Y-54454819D02*
X12547618Y-54454819D01*
X12547618Y-54454819D02*
X12642856Y-54407200D01*
X12642856Y-54407200D02*
X12690475Y-54359580D01*
X11785713Y-53454819D02*
X11452380Y-54454819D01*
X11452380Y-54454819D02*
X11119047Y-53454819D01*
X10595237Y-53454819D02*
X10499999Y-53454819D01*
X10499999Y-53454819D02*
X10404761Y-53502438D01*
X10404761Y-53502438D02*
X10357142Y-53550057D01*
X10357142Y-53550057D02*
X10309523Y-53645295D01*
X10309523Y-53645295D02*
X10261904Y-53835771D01*
X10261904Y-53835771D02*
X10261904Y-54073866D01*
X10261904Y-54073866D02*
X10309523Y-54264342D01*
X10309523Y-54264342D02*
X10357142Y-54359580D01*
X10357142Y-54359580D02*
X10404761Y-54407200D01*
X10404761Y-54407200D02*
X10499999Y-54454819D01*
X10499999Y-54454819D02*
X10595237Y-54454819D01*
X10595237Y-54454819D02*
X10690475Y-54407200D01*
X10690475Y-54407200D02*
X10738094Y-54359580D01*
X10738094Y-54359580D02*
X10785713Y-54264342D01*
X10785713Y-54264342D02*
X10833332Y-54073866D01*
X10833332Y-54073866D02*
X10833332Y-53835771D01*
X10833332Y-53835771D02*
X10785713Y-53645295D01*
X10785713Y-53645295D02*
X10738094Y-53550057D01*
X10738094Y-53550057D02*
X10690475Y-53502438D01*
X10690475Y-53502438D02*
X10595237Y-53454819D01*
X14333333Y-50954819D02*
X14333333Y-51669104D01*
X14333333Y-51669104D02*
X14380952Y-51811961D01*
X14380952Y-51811961D02*
X14476190Y-51907200D01*
X14476190Y-51907200D02*
X14619047Y-51954819D01*
X14619047Y-51954819D02*
X14714285Y-51954819D01*
X13333333Y-51954819D02*
X13904761Y-51954819D01*
X13619047Y-51954819D02*
X13619047Y-50954819D01*
X13619047Y-50954819D02*
X13714285Y-51097676D01*
X13714285Y-51097676D02*
X13809523Y-51192914D01*
X13809523Y-51192914D02*
X13904761Y-51240533D01*
X61285713Y-55104819D02*
X60666666Y-55104819D01*
X60666666Y-55104819D02*
X60999999Y-55485771D01*
X60999999Y-55485771D02*
X60857142Y-55485771D01*
X60857142Y-55485771D02*
X60761904Y-55533390D01*
X60761904Y-55533390D02*
X60714285Y-55581009D01*
X60714285Y-55581009D02*
X60666666Y-55676247D01*
X60666666Y-55676247D02*
X60666666Y-55914342D01*
X60666666Y-55914342D02*
X60714285Y-56009580D01*
X60714285Y-56009580D02*
X60761904Y-56057200D01*
X60761904Y-56057200D02*
X60857142Y-56104819D01*
X60857142Y-56104819D02*
X61142856Y-56104819D01*
X61142856Y-56104819D02*
X61238094Y-56057200D01*
X61238094Y-56057200D02*
X61285713Y-56009580D01*
X60333332Y-55104819D02*
X59714285Y-55104819D01*
X59714285Y-55104819D02*
X60047618Y-55485771D01*
X60047618Y-55485771D02*
X59904761Y-55485771D01*
X59904761Y-55485771D02*
X59809523Y-55533390D01*
X59809523Y-55533390D02*
X59761904Y-55581009D01*
X59761904Y-55581009D02*
X59714285Y-55676247D01*
X59714285Y-55676247D02*
X59714285Y-55914342D01*
X59714285Y-55914342D02*
X59761904Y-56009580D01*
X59761904Y-56009580D02*
X59809523Y-56057200D01*
X59809523Y-56057200D02*
X59904761Y-56104819D01*
X59904761Y-56104819D02*
X60190475Y-56104819D01*
X60190475Y-56104819D02*
X60285713Y-56057200D01*
X60285713Y-56057200D02*
X60333332Y-56009580D01*
X59095237Y-55104819D02*
X58999999Y-55104819D01*
X58999999Y-55104819D02*
X58904761Y-55152438D01*
X58904761Y-55152438D02*
X58857142Y-55200057D01*
X58857142Y-55200057D02*
X58809523Y-55295295D01*
X58809523Y-55295295D02*
X58761904Y-55485771D01*
X58761904Y-55485771D02*
X58761904Y-55723866D01*
X58761904Y-55723866D02*
X58809523Y-55914342D01*
X58809523Y-55914342D02*
X58857142Y-56009580D01*
X58857142Y-56009580D02*
X58904761Y-56057200D01*
X58904761Y-56057200D02*
X58999999Y-56104819D01*
X58999999Y-56104819D02*
X59095237Y-56104819D01*
X59095237Y-56104819D02*
X59190475Y-56057200D01*
X59190475Y-56057200D02*
X59238094Y-56009580D01*
X59238094Y-56009580D02*
X59285713Y-55914342D01*
X59285713Y-55914342D02*
X59333332Y-55723866D01*
X59333332Y-55723866D02*
X59333332Y-55485771D01*
X59333332Y-55485771D02*
X59285713Y-55295295D01*
X59285713Y-55295295D02*
X59238094Y-55200057D01*
X59238094Y-55200057D02*
X59190475Y-55152438D01*
X59190475Y-55152438D02*
X59095237Y-55104819D01*
D12*
X60083333Y-54227149D02*
X60249999Y-53989054D01*
X60369047Y-54227149D02*
X60369047Y-53727149D01*
X60369047Y-53727149D02*
X60178571Y-53727149D01*
X60178571Y-53727149D02*
X60130952Y-53750959D01*
X60130952Y-53750959D02*
X60107142Y-53774768D01*
X60107142Y-53774768D02*
X60083333Y-53822387D01*
X60083333Y-53822387D02*
X60083333Y-53893816D01*
X60083333Y-53893816D02*
X60107142Y-53941435D01*
X60107142Y-53941435D02*
X60130952Y-53965244D01*
X60130952Y-53965244D02*
X60178571Y-53989054D01*
X60178571Y-53989054D02*
X60369047Y-53989054D01*
X59607142Y-54227149D02*
X59892856Y-54227149D01*
X59749999Y-54227149D02*
X59749999Y-53727149D01*
X59749999Y-53727149D02*
X59797618Y-53798578D01*
X59797618Y-53798578D02*
X59845237Y-53846197D01*
X59845237Y-53846197D02*
X59892856Y-53870006D01*
%TO.C,U2*%
D13*
X48730000Y-49730000D02*
X48730000Y-58890000D01*
X48730000Y-58890000D02*
X53810000Y-58890000D01*
X49730000Y-48730000D02*
X48730000Y-49730000D01*
X53810000Y-48730000D02*
X49730000Y-48730000D01*
X53810000Y-58890000D02*
X53810000Y-48730000D01*
%TO.C,C2*%
X13400000Y-55200000D02*
X16600000Y-55200000D01*
X16600000Y-56800000D01*
X13400000Y-56800000D01*
X13400000Y-55200000D01*
%TO.C,C1*%
X43000000Y-53375000D02*
X45000000Y-53375000D01*
X45000000Y-54625000D01*
X43000000Y-54625000D01*
X43000000Y-53375000D01*
%TO.C,J1*%
X16110000Y-47890000D02*
X17360000Y-47890000D01*
X17360000Y-47890000D02*
X17360000Y-49140000D01*
X11050000Y-48300000D02*
X16950000Y-48300000D01*
X16950000Y-52800000D01*
X11050000Y-52800000D01*
X11050000Y-48300000D01*
%TO.C,R1*%
X59000000Y-53375000D02*
X61000000Y-53375000D01*
X61000000Y-54625000D01*
X59000000Y-54625000D01*
X59000000Y-53375000D01*
%TD*%
M02*
