M48
; DRILL file KiCad 10.0.4 date 2026-07-27T17:57:12
; FORMAT={-:-/ absolute / metric / decimal}
; #@! TF.CreationDate,2026-07-27T17:57:12+02:00
; #@! TF.GenerationSoftware,Kicad,Pcbnew,10.0.4
; #@! TF.FileFunction,MixedPlating,1,4
FMAT,2
METRIC
; #@! TA.AperFunction,Plated,PTH,ViaDrill
T1C0.300
; #@! TA.AperFunction,Plated,PTH,ComponentDrill
T2C0.750
; #@! TA.AperFunction,Plated,PTH,ComponentDrill
T3C1.000
; #@! TA.AperFunction,NonPlated,NPTH,ComponentDrill
T4C3.200
%
G90
G05
T1
X13.525Y-56.0
X16.475Y-56.0
X26.02Y-14.25
X26.02Y-24.25
X26.02Y-34.25
X26.02Y-44.25
X33.98Y-14.25
X33.98Y-24.25
X33.98Y-34.25
X33.98Y-44.25
X42.414Y-24.829
X43.05Y-54.0
X43.366Y-27.834
X44.95Y-54.0
X46.02Y-14.25
X46.02Y-24.25
X46.02Y-34.25
X46.02Y-44.25
X50.621Y-59.218
X51.623Y-24.415
X52.231Y-44.803
X52.343Y-27.759
X53.83Y-41.212
X53.98Y-14.25
X53.98Y-24.25
X53.98Y-34.25
X53.98Y-44.25
X54.238Y-49.141
X55.445Y-40.997
X56.062Y-57.0
X56.308Y-7.426
X56.883Y-29.251
X57.234Y-52.933
X57.298Y-7.066
X57.562Y-1.562
X57.597Y-46.774
X65.137Y-4.376
X66.02Y-14.25
X66.02Y-24.25
X66.02Y-34.25
X66.02Y-44.25
X69.157Y-52.933
X73.98Y-14.25
X73.98Y-24.25
X73.98Y-34.25
X73.98Y-44.25
T2
X13.0Y-50.0
X15.0Y-50.0
T3
X38.57Y-2.37
X38.57Y-4.91
X38.57Y-7.45
X38.57Y-9.99
X38.57Y-12.53
X38.57Y-15.07
X38.57Y-17.61
X38.57Y-20.15
X38.57Y-22.69
X38.57Y-25.23
X38.57Y-27.77
X38.57Y-30.31
X38.57Y-32.85
X38.57Y-35.39
X38.57Y-37.93
X38.57Y-40.47
X38.57Y-43.01
X38.57Y-45.55
X38.57Y-48.09
X38.57Y-50.63
X50.0Y-50.0
X50.0Y-52.54
X50.0Y-55.08
X50.0Y-57.62
X52.54Y-50.0
X52.54Y-52.54
X52.54Y-55.08
X52.54Y-57.62
X61.43Y-2.37
X61.43Y-4.91
X61.43Y-7.45
X61.43Y-9.99
X61.43Y-12.53
X61.43Y-15.07
X61.43Y-17.61
X61.43Y-20.15
X61.43Y-22.69
X61.43Y-25.23
X61.43Y-27.77
X61.43Y-30.31
X61.43Y-32.85
X61.43Y-35.39
X61.43Y-37.93
X61.43Y-40.47
X61.43Y-43.01
X61.43Y-45.55
X61.43Y-48.09
X61.43Y-50.63
T4
X4.0Y-4.0
X4.0Y-56.0
X96.0Y-4.0
X96.0Y-56.0
M30
